{
.appVersion = "1286";
copyright = MIT;
customParameters = (
{
name = localizedFamilyName;
value = "Japanese;Kugane";
}
);
date = "2020-04-30 22:17:57 +0000";
designer = "Gelehrte Crest";
designerURL = "http://www.gelehrte.com";
familyName = "@Kugane";
featurePrefixes = (
{
code = "";
name = Languagesystems;
}
);
features = (
{
code = "";
name = aalt;
},
{
code = "";
name = vert;
},
{
code = "";
name = vkna;
},
{
code = "";
name = vrt2;
}
);
fontMaster = (
{
ascender = 800;
capHeight = 700;
descender = -200;
id = "1305C52C-0BD1-483E-A343-C05F3AFF2931";
xHeight = 500;
}
);
glyphs = (
{
glyphname = "a-hira";
lastChange = "2020-05-01 00:14:42 +0000";
layers = (
{
layerId = "1305C52C-0BD1-483E-A343-C05F3AFF2931";
paths = (
{
closed = 1;
nodes = (
"30 261 OFFCURVE",
"79 377 OFFCURVE",
"103 403 CURVE",
"115 417 OFFCURVE",
"153 423 OFFCURVE",
"164 416 CURVE",
"174 410 OFFCURVE",
"159 391 OFFCURVE",
"168 382 CURVE",
"178 372 OFFCURVE",
"206 364 OFFCURVE",
"224 363 CURVE",
"279 361 OFFCURVE",
"506 356 OFFCURVE",
"506 356 CURVE",
"506 356 OFFCURVE",
"457 423 OFFCURVE",
"430 438 CURVE",
"406 451 OFFCURVE",
"342 445 OFFCURVE",
"342 445 CURVE",
"342 445 OFFCURVE",
"390 527 OFFCURVE",
"413 544 CURVE",
"432 557 OFFCURVE",
"472 550 OFFCURVE",
"484 541 CURVE",
"496 533 OFFCURVE",
"493 516 OFFCURVE",
"496 496 CURVE",
"500 463 OFFCURVE",
"557 358 OFFCURVE",
"557 358 CURVE",
"557 358 OFFCURVE",
"773 356 OFFCURVE",
"827 357 CURVE",
"851 357 OFFCURVE",
"880 366 OFFCURVE",
"888 360 CURVE",
"896 353 OFFCURVE",
"887 329 OFFCURVE",
"874 318 CURVE",
"862 308 OFFCURVE",
"818 299 OFFCURVE",
"808 303 CURVE",
"799 306 OFFCURVE",
"796 313 OFFCURVE",
"787 314 CURVE",
"747 317 OFFCURVE",
"571 320 OFFCURVE",
"571 320 CURVE",
"571 320 OFFCURVE",
"605 237 OFFCURVE",
"619 194 CURVE",
"633 149 OFFCURVE",
"656 50 OFFCURVE",
"656 50 CURVE",
"656 50 OFFCURVE",
"609 161 OFFCURVE",
"588 206 CURVE",
"569 245 OFFCURVE",
"524 320 OFFCURVE",
"524 320 CURVE",
"524 320 OFFCURVE",
"246 318 OFFCURVE",
"170 316 CURVE",
"131 316 OFFCURVE",
"91 268 OFFCURVE",
"69 257 CURVE",
"62 254 OFFCURVE",
"30 261 OFFCURVE",
"30 261 CURVE"
);
}
);
width = 921;
}
);
unicode = 3042;
},
{
glyphname = "asmall-hira";
lastChange = "2020-04-30 23:42:58 +0000";
layers = (
{
layerId = "1305C52C-0BD1-483E-A343-C05F3AFF2931";
paths = (
{
closed = 1;
nodes = (
"31 418 LINE",
"28 421 OFFCURVE",
"31 434 OFFCURVE",
"35 440 CURVE",
"45 455 OFFCURVE",
"81 510 OFFCURVE",
"99 508 CURVE",
"114 507 OFFCURVE",
"111 464 OFFCURVE",
"126 464 CURVE",
"165 464 OFFCURVE",
"300 463 OFFCURVE",
"330 462 CURVE",
"341 462 OFFCURVE",
"311 437 OFFCURVE",
"311 437 CURVE",
"311 437 OFFCURVE",
"121 438 OFFCURVE",
"76 439 CURVE",
"66 439 OFFCURVE",
"64 426 OFFCURVE",
"56 422 CURVE",
"49 419 OFFCURVE",
"34 414 OFFCURVE",
"31 418 CURVE"
);
},
{
closed = 1;
nodes = (
"274 447 LINE",
"315 449 LINE",
"315 449 OFFCURVE",
"309 407 OFFCURVE",
"300 393 CURVE",
"291 379 OFFCURVE",
"276 362 OFFCURVE",
"260 363 CURVE",
"234 364 OFFCURVE",
"200 399 OFFCURVE",
"185 428 CURVE",
"169 459 OFFCURVE",
"164 530 OFFCURVE",
"189 545 CURVE",
"239 576 OFFCURVE",
"296 540 OFFCURVE",
"350 497 CURVE",
"449 418 OFFCURVE",
"455 311 OFFCURVE",
"455 311 CURVE",
"455 311 OFFCURVE",
"405 412 OFFCURVE",
"358 456 CURVE",
"320 490 OFFCURVE",
"249 529 OFFCURVE",
"221 527 CURVE",
"200 526 OFFCURVE",
"181 505 OFFCURVE",
"184 471 CURVE",
"186 449 OFFCURVE",
"212 399 OFFCURVE",
"249 398 CURVE",
"260 397 OFFCURVE",
"271 409 OFFCURVE",
"274 418 CURVE",
"277 427 OFFCURVE",
"274 447 OFFCURVE",
"274 447 CURVE"
);
}
);
width = 485;
}
);
unicode = 3041;
},
{
glyphname = "i-hira";
lastChange = "2020-05-01 00:14:54 +0000";
layers = (
{
layerId = "1305C52C-0BD1-483E-A343-C05F3AFF2931";
paths = (
{
closed = 1;
nodes = (
"203 282 OFFCURVE",
"234 385 OFFCURVE",
"262 407 CURVE",
"279 420 OFFCURVE",
"307 421 OFFCURVE",
"326 404 CURVE",
"335 397 OFFCURVE",
"330 371 OFFCURVE",
"326 355 CURVE",
"324 345 OFFCURVE",
"320 341 OFFCURVE",
"319 328 CURVE",
"317 314 OFFCURVE",
"335 282 OFFCURVE",
"367 266 CURVE",
"401 248 OFFCURVE",
"482 238 OFFCURVE",
"531 251 CURVE",
"581 264 OFFCURVE",
"638 299 OFFCURVE",
"672 343 CURVE",
"735 423 OFFCURVE",
"733 545 OFFCURVE",
"751 549 CURVE",
"783 555 OFFCURVE",
"757 396 OFFCURVE",
"686 310 CURVE",
"643 259 OFFCURVE",
"570 217 OFFCURVE",
"520 203 CURVE",
"478 191 OFFCURVE",
"427 196 OFFCURVE",
"385 204 CURVE",
"339 213 OFFCURVE",
"240 284 OFFCURVE",
"240 284 CURVE",
"203 282 LINE"
);
},
{
closed = 1;
nodes = (
"30 47 OFFCURVE",
"28 112 OFFCURVE",
"48 155 CURVE",
"58 176 OFFCURVE",
"87 218 OFFCURVE",
"101 227 CURVE",
"111 234 OFFCURVE",
"129 227 OFFCURVE",
"136 221 CURVE",
"144 214 OFFCURVE",
"139 194 OFFCURVE",
"144 187 CURVE",
"149 179 OFFCURVE",
"163 172 OFFCURVE",
"172 171 CURVE",
"280 166 OFFCURVE",
"652 163 OFFCURVE",
"763 162 CURVE",
"785 161 OFFCURVE",
"809 192 OFFCURVE",
"826 191 CURVE",
"851 190 OFFCURVE",
"869 184 OFFCURVE",
"867 165 CURVE",
"864 139 OFFCURVE",
"836 110 OFFCURVE",
"803 112 CURVE",
"778 113 OFFCURVE",
"778 129 OFFCURVE",
"758 129 CURVE",
"658 131 OFFCURVE",
"278 132 OFFCURVE",
"172 133 CURVE",
"153 134 OFFCURVE",
"134 126 OFFCURVE",
"118 117 CURVE",
"94 103 OFFCURVE",
"30 47 OFFCURVE",
"30 47 CURVE"
);
}
);
width = 897;
}
);
unicode = 3044;
},
{
glyphname = "ismall-hira";
lastChange = "2020-04-30 23:42:45 +0000";
layers = (
{
layerId = "1305C52C-0BD1-483E-A343-C05F3AFF2931";
paths = (
{
closed = 1;
nodes = (
"32 308 LINE",
"25 310 OFFCURVE",
"35 352 OFFCURVE",
"44 368 CURVE",
"53 384 OFFCURVE",
"74 402 OFFCURVE",
"86 402 CURVE",
"98 402 OFFCURVE",
"103 370 OFFCURVE",
"116 370 CURVE",
"138 369 OFFCURVE",
"191 368 OFFCURVE",
"217 368 CURVE",
"233 368 OFFCURVE",
"259 394 OFFCURVE",
"259 394 CURVE",
"296 374 LINE",
"296 374 OFFCURVE",
"270 339 OFFCURVE",
"255 338 CURVE",
"218 338 OFFCURVE",
"123 344 OFFCURVE",
"86 343 CURVE",
"64 342 OFFCURVE",
"42 304 OFFCURVE",
"32 308 CURVE"
);
},
{
closed = 1;
nodes = (
"161 441 LINE",
"156 449 OFFCURVE",
"163 474 OFFCURVE",
"171 484 CURVE",
"178 494 OFFCURVE",
"195 501 OFFCURVE",
"205 501 CURVE",
"215 501 OFFCURVE",
"227 490 OFFCURVE",
"227 483 CURVE",
"228 475 OFFCURVE",
"221 465 OFFCURVE",
"221 455 CURVE",
"222 432 OFFCURVE",
"278 390 OFFCURVE",
"325 382 CURVE",
"380 373 OFFCURVE",
"415 400 OFFCURVE",
"420 439 CURVE",
"422 465 OFFCURVE",
"414 522 OFFCURVE",
"414 522 CURVE",
"414 522 OFFCURVE",
"448 476 OFFCURVE",
"446 448 CURVE",
"441 380 OFFCURVE",
"375 354 OFFCURVE",
"332 355 CURVE",
"237 358 OFFCURVE",
"209 413 OFFCURVE",
"185 432 CURVE",
"179 437 OFFCURVE",
"165 435 OFFCURVE",
"161 441 CURVE"
);
}
);
width = 476;
}
);
unicode = 3043;
},
{
glyphname = "u-hira";
lastChange = "2020-05-01 00:15:07 +0000";
layers = (
{
layerId = "1305C52C-0BD1-483E-A343-C05F3AFF2931";
paths = (
{
closed = 1;
nodes = (
"31 215 OFFCURVE",
"43 244 OFFCURVE",
"53 260 CURVE",
"68 282 OFFCURVE",
"94 329 OFFCURVE",
"118 339 CURVE",
"129 344 OFFCURVE",
"152 340 OFFCURVE",
"159 335 CURVE",
"167 329 OFFCURVE",
"170 314 OFFCURVE",
"171 305 CURVE",
"171 296 OFFCURVE",
"165 286 OFFCURVE",
"165 280 CURVE",
"166 274 OFFCURVE",
"178 264 OFFCURVE",
"186 264 CURVE",
"238 264 OFFCURVE",
"470 259 OFFCURVE",
"470 259 CURVE",
"470 259 OFFCURVE",
"386 540 OFFCURVE",
"394 542 CURVE",
"409 544 OFFCURVE",
"504 259 OFFCURVE",
"504 259 CURVE",
"504 259 OFFCURVE",
"681 261 OFFCURVE",
"736 260 CURVE",
"754 260 OFFCURVE",
"786 287 OFFCURVE",
"804 287 CURVE",
"822 288 OFFCURVE",
"834 285 OFFCURVE",
"846 283 CURVE",
"859 281 OFFCURVE",
"868 259 OFFCURVE",
"868 246 CURVE",
"868 234 OFFCURVE",
"830 215 OFFCURVE",
"811 215 CURVE",
"753 215 OFFCURVE",
"517 224 OFFCURVE",
"517 224 CURVE",
"517 224 OFFCURVE",
"527 195 OFFCURVE",
"538 185 CURVE",
"548 174 OFFCURVE",
"568 173 OFFCURVE",
"576 161 CURVE",
"583 150 OFFCURVE",
"586 120 OFFCURVE",
"578 107 CURVE",
"568 91 OFFCURVE",
"537 69 OFFCURVE",
"515 66 CURVE",
"492 63 OFFCURVE",
"453 74 OFFCURVE",
"447 87 CURVE",
"441 102 OFFCURVE",
"440 118 OFFCURVE",
"447 125 CURVE",
"454 133 OFFCURVE",
"468 130 OFFCURVE",
"475 138 CURVE",
"486 150 OFFCURVE",
"476 224 OFFCURVE",
"476 224 CURVE",
"476 224 OFFCURVE",
"256 225 OFFCURVE",
"194 224 CURVE",
"166 224 OFFCURVE",
"134 220 OFFCURVE",
"110 214 CURVE",
"88 209 OFFCURVE",
"61 190 OFFCURVE",
"48 188 CURVE",
"40 187 OFFCURVE",
"30 197 OFFCURVE",
"30 204 CURVE"
);
}
);
width = 898;
}
);
unicode = 3046;
},
{
glyphname = "usmall-hira";
lastChange = "2020-04-30 23:42:31 +0000";
layers = (
{
layerId = "1305C52C-0BD1-483E-A343-C05F3AFF2931";
paths = (
{
closed = 1;
nodes = (
"367 303 LINE",
"362 308 OFFCURVE",
"369 324 OFFCURVE",
"373 332 CURVE",
"376 340 OFFCURVE",
"389 351 OFFCURVE",
"386 359 CURVE",
"379 380 OFFCURVE",
"360 426 OFFCURVE",
"346 459 CURVE",
"329 496 OFFCURVE",
"286 582 OFFCURVE",
"286 582 CURVE",
"286 582 OFFCURVE",
"314 551 OFFCURVE",
"364 476 CURVE",
"384 446 OFFCURVE",
"405 402 OFFCURVE",
"419 383 CURVE",
"427 372 OFFCURVE",
"444 374 OFFCURVE",
"448 366 CURVE",
"453 357 OFFCURVE",
"430 335 OFFCURVE",
"416 325 CURVE",
"403 314 OFFCURVE",
"371 297 OFFCURVE",
"367 303 CURVE"
);
},
{
closed = 1;
nodes = (
"30 402 LINE",
"34 416 OFFCURVE",
"69 470 OFFCURVE",
"86 481 CURVE",
"103 492 OFFCURVE",
"118 459 OFFCURVE",
"134 459 CURVE",
"163 458 OFFCURVE",
"230 457 OFFCURVE",
"257 458 CURVE",
"271 458 OFFCURVE",
"285 464 OFFCURVE",
"297 464 CURVE",
"317 463 OFFCURVE",
"334 455 OFFCURVE",
"334 448 CURVE",
"334 441 OFFCURVE",
"304 433 OFFCURVE",
"291 426 CURVE",
"274 416 OFFCURVE",
"250 403 OFFCURVE",
"235 396 CURVE",
"225 392 OFFCURVE",
"203 387 OFFCURVE",
"203 387 CURVE",
"203 387 OFFCURVE",
"220 402 OFFCURVE",
"228 409 CURVE",
"234 416 OFFCURVE",
"251 434 OFFCURVE",
"251 434 CURVE",
"251 434 OFFCURVE",
"161 432 OFFCURVE",
"134 432 CURVE",
"120 433 OFFCURVE",
"100 430 OFFCURVE",
"88 424 CURVE",
"78 419 OFFCURVE",
"70 407 OFFCURVE",
"61 403 CURVE",
"51 399 OFFCURVE",
"27 392 OFFCURVE",
"30 402 CURVE"
);
}
);
width = 479;
}
);
unicode = 3045;
},
{
glyphname = "e-hira";
lastChange = "2020-05-01 00:15:19 +0000";
layers = (
{
layerId = "1305C52C-0BD1-483E-A343-C05F3AFF2931";
paths = (
{
closed = 1;
nodes = (
"689 108 OFFCURVE",
"665 130 OFFCURVE",
"625 183 CURVE SMOOTH",
"591 228 OFFCURVE",
"570 304 OFFCURVE",
"570 304 CURVE",
"275 302 LINE",
"275 302 OFFCURVE",
"233 216 OFFCURVE",
"216 197 CURVE",
"208 187 OFFCURVE",
"188 182 OFFCURVE",
"176 185 CURVE",
"133 198 OFFCURVE",
"122 248 OFFCURVE",
"98 267 CURVE SMOOTH",
"80 281 OFFCURVE",
"41 232 OFFCURVE",
"33 241 CURVE",
"25 249 OFFCURVE",
"35 303 OFFCURVE",
"44 325 CURVE SMOOTH",
"53 348 OFFCURVE",
"72 372 OFFCURVE",
"88 382 CURVE SMOOTH",
"99 389 OFFCURVE",
"127 393 OFFCURVE",
"138 387 CURVE SMOOTH",
"149 381 OFFCURVE",
"159 357 OFFCURVE",
"171 352 CURVE",
"192 345 OFFCURVE",
"268 340 OFFCURVE",
"268 340 CURVE SMOOTH",
"268 340 OFFCURVE",
"360 503 OFFCURVE",
"444 523 CURVE SMOOTH",
"473 530 OFFCURVE",
"516 529 OFFCURVE",
"543 520 CURVE SMOOTH",
"569 511 OFFCURVE",
"587 490 OFFCURVE",
"598 466 CURVE SMOOTH",
"610 439 OFFCURVE",
"602 421 OFFCURVE",
"603 394 CURVE SMOOTH",
"604 363 OFFCURVE",
"609 335 OFFCURVE",
"609 335 CURVE SMOOTH",
"609 335 OFFCURVE",
"762 334 OFFCURVE",
"806 335 CURVE",
"822 336 OFFCURVE",
"827 355 OFFCURVE",
"850 356 CURVE SMOOTH",
"867 357 OFFCURVE",
"876 357 OFFCURVE",
"878 343 CURVE",
"879 328 OFFCURVE",
"845 294 OFFCURVE",
"829 289 CURVE",
"792 280 OFFCURVE",
"776 304 OFFCURVE",
"762 304 CURVE SMOOTH",
"734 304 OFFCURVE",
"615 303 OFFCURVE",
"615 304 CURVE SMOOTH",
"615 304 OFFCURVE",
"635 233 OFFCURVE",
"652 199 CURVE SMOOTH",
"675 153 OFFCURVE",
"703 125 OFFCURVE",
"744 110 CURVE SMOOTH",
"769 101 OFFCURVE",
"814 104 OFFCURVE",
"814 95 CURVE",
"815 84 OFFCURVE",
"758 79 OFFCURVE",
"732 90 CURVE SMOOTH"
);
},
{
closed = 1;
nodes = (
"199 215 OFFCURVE",
"243 299 OFFCURVE",
"243 299 CURVE SMOOTH",
"243 299 OFFCURVE",
"146 302 OFFCURVE",
"141 283 CURVE SMOOTH",
"137 267 OFFCURVE",
"150 221 OFFCURVE",
"182 217 CURVE SMOOTH"
);
},
{
closed = 1;
nodes = (
"562 335 OFFCURVE",
"541 434 OFFCURVE",
"507 448 CURVE SMOOTH",
"478 460 OFFCURVE",
"442 463 OFFCURVE",
"412 451 CURVE SMOOTH",
"348 425 OFFCURVE",
"298 340 OFFCURVE",
"298 340 CURVE",
"562 336 LINE"
);
}
);
width = 908;
}
);
unicode = 3048;
},
{
glyphname = "esmall-hira";
lastChange = "2020-04-30 23:42:18 +0000";
layers = (
{
layerId = "1305C52C-0BD1-483E-A343-C05F3AFF2931";
paths = (
{
closed = 1;
nodes = (
"30 393 LINE",
"28 400 OFFCURVE",
"35 421 OFFCURVE",
"42 433 CURVE",
"49 446 OFFCURVE",
"64 469 OFFCURVE",
"73 469 CURVE",
"81 469 OFFCURVE",
"87 443 OFFCURVE",
"98 443 CURVE",
"121 443 OFFCURVE",
"190 442 OFFCURVE",
"215 442 CURVE",
"226 443 OFFCURVE",
"241 458 OFFCURVE",
"251 458 CURVE",
"262 458 OFFCURVE",
"272 456 OFFCURVE",
"274 450 CURVE",
"282 417 OFFCURVE",
"242 414 OFFCURVE",
"226 414 CURVE",
"216 414 OFFCURVE",
"213 420 OFFCURVE",
"206 420 CURVE",
"183 421 OFFCURVE",
"115 421 OFFCURVE",
"89 420 CURVE",
"63 419 OFFCURVE",
"63 404 OFFCURVE",
"54 398 CURVE",
"47 394 OFFCURVE",
"32 387 OFFCURVE",
"30 393 CURVE"
);
},
{
closed = 1;
nodes = (
"138 427 LINE",
"138 427 OFFCURVE",
"143 560 OFFCURVE",
"203 557 CURVE",
"253 554 OFFCURVE",
"272 477 OFFCURVE",
"292 433 CURVE",
"357 295 OFFCURVE",
"465 296 OFFCURVE",
"465 296 CURVE",
"465 296 OFFCURVE",
"366 282 OFFCURVE",
"307 368 CURVE",
"274 415 OFFCURVE",
"237 510 OFFCURVE",
"197 510 CURVE",
"156 509 OFFCURVE",
"138 427 OFFCURVE",
"138 427 CURVE"
);
}
);
width = 495;
}
);
unicode = 3047;
},
{
glyphname = "o-hira";
lastChange = "2020-05-01 00:21:25 +0000";
layers = (
{
layerId = "1305C52C-0BD1-483E-A343-C05F3AFF2931";
paths = (
{
closed = 1;
nodes = (
"25 218 OFFCURVE",
"85 287 OFFCURVE",
"104 291 CURVE",
"116 294 OFFCURVE",
"135 296 OFFCURVE",
"146 291 CURVE",
"156 285 OFFCURVE",
"152 255 OFFCURVE",
"165 255 CURVE",
"182 254 OFFCURVE",
"247 254 OFFCURVE",
"247 254 CURVE",
"247 254 OFFCURVE",
"283 346 OFFCURVE",
"363 361 CURVE",
"417 371 OFFCURVE",
"503 374 OFFCURVE",
"557 381 CURVE",
"601 387 OFFCURVE",
"644 427 OFFCURVE",
"642 473 CURVE",
"637 583 OFFCURVE",
"518 621 OFFCURVE",
"520 641 CURVE",
"521 654 OFFCURVE",
"570 640 OFFCURVE",
"594 626 CURVE",
"638 601 OFFCURVE",
"697 536 OFFCURVE",
"697 458 CURVE",
"698 383 OFFCURVE",
"649 314 OFFCURVE",
"586 310 CURVE",
"524 305 OFFCURVE",
"408 312 OFFCURVE",
"356 310 CURVE",
"321 309 OFFCURVE",
"280 254 OFFCURVE",
"280 254 CURVE",
"280 254 OFFCURVE",
"667 251 OFFCURVE",
"765 257 CURVE",
"781 258 OFFCURVE",
"802 272 OFFCURVE",
"824 270 CURVE",
"846 269 OFFCURVE",
"859 258 OFFCURVE",
"862 246 CURVE",
"864 235 OFFCURVE",
"857 215 OFFCURVE",
"842 207 CURVE",
"828 199 OFFCURVE",
"795 200 OFFCURVE",
"780 201 CURVE",
"772 202 OFFCURVE",
"756 216 OFFCURVE",
"739 216 CURVE",
"658 217 OFFCURVE",
"277 220 OFFCURVE",
"277 220 CURVE",
"277 220 OFFCURVE",
"271 185 OFFCURVE",
"310 145 CURVE",
"327 127 OFFCURVE",
"358 113 OFFCURVE",
"376 114 CURVE",
"390 115 OFFCURVE",
"399 127 OFFCURVE",
"417 121 CURVE",
"428 118 OFFCURVE",
"433 79 OFFCURVE",
"427 66 CURVE",
"420 50 OFFCURVE",
"394 29 OFFCURVE",
"370 28 CURVE",
"333 27 OFFCURVE",
"306 54 OFFCURVE",
"301 69 CURVE",
"297 84 OFFCURVE",
"303 90 OFFCURVE",
"298 99 CURVE",
"293 110 OFFCURVE",
"270 130 OFFCURVE",
"260 154 CURVE",
"246 185 OFFCURVE",
"247 221 OFFCURVE",
"247 221 CURVE",
"247 221 OFFCURVE",
"159 222 OFFCURVE",
"138 222 CURVE",
"125 221 OFFCURVE",
"112 204 OFFCURVE",
"99 200 CURVE",
"81 195 OFFCURVE",
"33 185 OFFCURVE",
"30 201 CURVE"
);
}
);
width = 892;
}
);
unicode = 304A;
},
{
glyphname = "osmall-hira";
lastChange = "2020-04-30 23:42:05 +0000";
layers = (
{
layerId = "1305C52C-0BD1-483E-A343-C05F3AFF2931";
paths = (
{
closed = 1;
nodes = (
"32 360 LINE",
"28 363 OFFCURVE",
"32 376 OFFCURVE",
"36 382 CURVE",
"45 397 OFFCURVE",
"76 447 OFFCURVE",
"94 445 CURVE",
"109 444 OFFCURVE",
"112 416 OFFCURVE",
"127 416 CURVE",
"166 416 OFFCURVE",
"324 414 OFFCURVE",
"354 414 CURVE",
"375 414 OFFCURVE",
"329 368 OFFCURVE",
"304 366 CURVE",
"294 365 OFFCURVE",
"293 386 OFFCURVE",
"273 386 CURVE",
"217 388 OFFCURVE",
"124 387 OFFCURVE",
"89 387 CURVE",
"79 387 OFFCURVE",
"65 368 OFFCURVE",
"57 364 CURVE",
"50 361 OFFCURVE",
"35 356 OFFCURVE",
"32 360 CURVE"
);
},
{
closed = 1;
nodes = (
"175 400 LINE",
"176 429 OFFCURVE",
"214 477 OFFCURVE",
"246 477 CURVE",
"277 477 OFFCURVE",
"326 477 OFFCURVE",
"355 478 CURVE",
"382 478 OFFCURVE",
"412 512 OFFCURVE",
"412 536 CURVE",
"413 561 OFFCURVE",
"382 615 OFFCURVE",
"382 615 CURVE",
"382 615 OFFCURVE",
"440 566 OFFCURVE",
"440 534 CURVE",
"441 506 OFFCURVE",
"396 455 OFFCURVE",
"360 455 CURVE",
"322 454 OFFCURVE",
"266 456 OFFCURVE",
"238 455 CURVE",
"215 455 OFFCURVE",
"194 422 OFFCURVE",
"193 401 CURVE",
"192 381 OFFCURVE",
"208 332 OFFCURVE",
"234 332 CURVE",
"259 331 OFFCURVE",
"267 360 OFFCURVE",
"267 372 CURVE",
"268 380 OFFCURVE",
"259 398 OFFCURVE",
"259 398 CURVE",
"320 371 LINE",
"320 371 OFFCURVE",
"297 361 OFFCURVE",
"297 351 CURVE",
"297 333 OFFCURVE",
"272 305 OFFCURVE",
"251 305 CURVE",
"196 306 OFFCURVE",
"174 371 OFFCURVE",
"175 400 CURVE"
);
}
);
width = 470;
}
);
unicode = 3049;
},
{
glyphname = "ka-hira";
lastChange = "2020-05-01 00:17:52 +0000";
layers = (
{
layerId = "1305C52C-0BD1-483E-A343-C05F3AFF2931";
paths = (
{
closed = 1;
nodes = (
"26 447 OFFCURVE",
"31 472 OFFCURVE",
"39 486 CURVE",
"51 508 OFFCURVE",
"87 554 OFFCURVE",
"108 559 CURVE",
"125 562 OFFCURVE",
"143 559 OFFCURVE",
"152 549 CURVE",
"159 541 OFFCURVE",
"151 504 OFFCURVE",
"162 485 CURVE",
"181 454 OFFCURVE",
"259 360 OFFCURVE",
"259 360 CURVE",
"259 360 OFFCURVE",
"296 419 OFFCURVE",
"317 446 CURVE",
"338 473 OFFCURVE",
"376 510 OFFCURVE",
"386 513 CURVE",
"399 517 OFFCURVE",
"412 514 OFFCURVE",
"420 506 CURVE",
"428 498 OFFCURVE",
"423 476 OFFCURVE",
"421 465 CURVE",
"419 455 OFFCURVE",
"409 444 OFFCURVE",
"407 432 CURVE",
"404 415 OFFCURVE",
"400 379 OFFCURVE",
"407 355 CURVE",
"414 331 OFFCURVE",
"423 295 OFFCURVE",
"457 294 CURVE",
"523 292 OFFCURVE",
"534 408 OFFCURVE",
"564 452 CURVE",
"579 474 OFFCURVE",
"608 511 OFFCURVE",
"640 511 CURVE",
"723 511 OFFCURVE",
"754 468 OFFCURVE",
"786 429 CURVE",
"811 399 OFFCURVE",
"829 358 OFFCURVE",
"835 323 CURVE",
"841 288 OFFCURVE",
"831 218 OFFCURVE",
"819 218 CURVE",
"807 218 OFFCURVE",
"817 289 OFFCURVE",
"806 314 CURVE",
"787 359 OFFCURVE",
"763 390 OFFCURVE",
"720 422 CURVE",
"702 435 OFFCURVE",
"673 439 OFFCURVE",
"649 431 CURVE",
"601 414 OFFCURVE",
"558 296 OFFCURVE",
"505 265 CURVE",
"482 252 OFFCURVE",
"445 257 OFFCURVE",
"425 265 CURVE",
"411 270 OFFCURVE",
"386 299 OFFCURVE",
"372 321 CURVE",
"358 342 OFFCURVE",
"340 403 OFFCURVE",
"340 403 CURVE",
"282 330 LINE",
"282 330 OFFCURVE",
"334 250 OFFCURVE",
"359 204 CURVE",
"384 157 OFFCURVE",
"430 48 OFFCURVE",
"415 47 CURVE",
"399 45 OFFCURVE",
"343 195 OFFCURVE",
"263 286 CURVE",
"205 352 OFFCURVE",
"143 406 OFFCURVE",
"104 432 CURVE",
"86 444 OFFCURVE",
"47 430 OFFCURVE",
"36 438 CURVE"
);
},
{
closed = 1;
nodes = (
"598 244 OFFCURVE",
"617 267 OFFCURVE",
"617 283 CURVE",
"618 299 OFFCURVE",
"595 326 OFFCURVE",
"604 333 CURVE",
"609 339 OFFCURVE",
"625 324 OFFCURVE",
"640 317 CURVE",
"653 311 OFFCURVE",
"684 325 OFFCURVE",
"691 313 CURVE",
"698 302 OFFCURVE",
"707 281 OFFCURVE",
"677 253 CURVE",
"653 231 OFFCURVE",
"615 224 OFFCURVE",
"607 233 CURVE"
);
}
);
width = 867;
}
);
unicode = 304B;
},
{
glyphname = "ga-hira";
lastChange = "2020-05-01 00:14:19 +0000";
layers = (
{
layerId = "1305C52C-0BD1-483E-A343-C05F3AFF2931";
paths = (
{
closed = 1;
nodes = (
"21 394 OFFCURVE",
"47 448 OFFCURVE",
"63 470 CURVE",
"79 491 OFFCURVE",
"99 511 OFFCURVE",
"131 512 CURVE",
"164 512 OFFCURVE",
"157 445 OFFCURVE",
"174 419 CURVE",
"201 377 OFFCURVE",
"262 293 OFFCURVE",
"301 241 CURVE",
"394 115 OFFCURVE",
"413 -6 OFFCURVE",
"413 -6 CURVE",
"413 -6 OFFCURVE",
"329 155 OFFCURVE",
"274 222 CURVE",
"177 340 OFFCURVE",
"97 388 OFFCURVE",
"79 387 CURVE",
"64 386 OFFCURVE",
"42 368 OFFCURVE",
"33 379 CURVE"
);
},
{
closed = 1;
nodes = (
"218 433 OFFCURVE",
"259 452 OFFCURVE",
"258 472 CURVE",
"257 492 OFFCURVE",
"223 524 OFFCURVE",
"223 548 CURVE",
"224 573 OFFCURVE",
"254 610 OFFCURVE",
"285 610 CURVE",
"304 611 OFFCURVE",
"335 608 OFFCURVE",
"337 562 CURVE",
"338 549 OFFCURVE",
"334 523 OFFCURVE",
"322 523 CURVE",
"311 523 OFFCURVE",
"301 559 OFFCURVE",
"275 560 CURVE",
"267 560 OFFCURVE",
"256 550 OFFCURVE",
"256 542 CURVE",
"258 498 OFFCURVE",
"312 489 OFFCURVE",
"313 467 CURVE",
"313 442 OFFCURVE",
"231 413 OFFCURVE",
"226 421 CURVE"
);
},
{
closed = 1;
nodes = (
"246 280 OFFCURVE",
"272 335 OFFCURVE",
"323 396 CURVE",
"346 423 OFFCURVE",
"377 469 OFFCURVE",
"410 466 CURVE",
"425 464 OFFCURVE",
"433 439 OFFCURVE",
"432 424 CURVE",
"432 409 OFFCURVE",
"412 392 OFFCURVE",
"409 375 CURVE",
"405 354 OFFCURVE",
"400 317 OFFCURVE",
"409 294 CURVE",
"417 271 OFFCURVE",
"441 238 OFFCURVE",
"460 237 CURVE",
"539 236 OFFCURVE",
"548 465 OFFCURVE",
"647 460 CURVE",
"760 454 OFFCURVE",
"822 338 OFFCURVE",
"838 275 CURVE",
"856 203 OFFCURVE",
"815 155 OFFCURVE",
"815 155 CURVE",
"815 155 OFFCURVE",
"825 220 OFFCURVE",
"814 250 CURVE",
"791 312 OFFCURVE",
"735 381 OFFCURVE",
"679 383 CURVE",
"588 386 OFFCURVE",
"559 203 OFFCURVE",
"463 204 CURVE",
"383 205 OFFCURVE",
"347 351 OFFCURVE",
"347 351 CURVE",
"347 351 OFFCURVE",
"338 354 OFFCURVE",
"312 322 CURVE",
"292 296 OFFCURVE",
"264 263 OFFCURVE",
"260 267 CURVE"
);
},
{
closed = 1;
nodes = (
"596 186 OFFCURVE",
"625 215 OFFCURVE",
"624 232 CURVE",
"623 250 OFFCURVE",
"592 276 OFFCURVE",
"597 282 CURVE",
"602 289 OFFCURVE",
"628 267 OFFCURVE",
"645 265 CURVE",
"662 262 OFFCURVE",
"691 271 OFFCURVE",
"697 259 CURVE",
"703 248 OFFCURVE",
"692 210 OFFCURVE",
"676 196 CURVE",
"660 182 OFFCURVE",
"610 169 OFFCURVE",
"604 177 CURVE"
);
}
);
width = 873;
}
);
unicode = 304C;
},
{
glyphname = "ki-hira";
lastChange = "2020-05-01 00:19:30 +0000";
layers = (
{
layerId = "1305C52C-0BD1-483E-A343-C05F3AFF2931";
paths = (
{
closed = 1;
nodes = (
"27 242 OFFCURVE",
"40 284 OFFCURVE",
"45 299 CURVE",
"49 311 OFFCURVE",
"49 329 OFFCURVE",
"57 338 CURVE",
"72 356 OFFCURVE",
"107 402 OFFCURVE",
"138 407 CURVE",
"159 409 OFFCURVE",
"183 404 OFFCURVE",
"187 389 CURVE",
"192 370 OFFCURVE",
"165 335 OFFCURVE",
"160 310 CURVE",
"155 286 OFFCURVE",
"154 246 OFFCURVE",
"163 226 CURVE",
"172 206 OFFCURVE",
"198 187 OFFCURVE",
"213 188 CURVE",
"239 190 OFFCURVE",
"255 215 OFFCURVE",
"257 238 CURVE",
"262 265 OFFCURVE",
"262 315 OFFCURVE",
"272 345 CURVE",
"283 372 OFFCURVE",
"304 401 OFFCURVE",
"330 410 CURVE",
"404 435 OFFCURVE",
"472 391 OFFCURVE",
"517 365 CURVE",
"548 347 OFFCURVE",
"600 294 OFFCURVE",
"600 294 CURVE",
"600 294 OFFCURVE",
"647 353 OFFCURVE",
"689 415 CURVE",
"707 442 OFFCURVE",
"748 488 OFFCURVE",
"764 596 CURVE",
"772 652 OFFCURVE",
"767 719 OFFCURVE",
"770 719 CURVE",
"784 720 OFFCURVE",
"820 572 OFFCURVE",
"823 522 CURVE",
"826 483 OFFCURVE",
"818 446 OFFCURVE",
"798 415 CURVE",
"752 347 OFFCURVE",
"626 255 OFFCURVE",
"626 255 CURVE",
"626 255 OFFCURVE",
"684 162 OFFCURVE",
"696 113 CURVE",
"707 63 OFFCURVE",
"716 -32 OFFCURVE",
"702 -29 CURVE",
"688 -25 OFFCURVE",
"714 56 OFFCURVE",
"591 203 CURVE",
"571 226 OFFCURVE",
"498 297 OFFCURVE",
"455 321 CURVE",
"429 334 OFFCURVE",
"398 339 OFFCURVE",
"374 330 CURVE",
"322 314 OFFCURVE",
"301 211 OFFCURVE",
"276 180 CURVE",
"249 145 OFFCURVE",
"206 154 OFFCURVE",
"180 160 CURVE",
"128 171 OFFCURVE",
"80 273 OFFCURVE",
"77 273 CURVE",
"67 274 OFFCURVE",
"37 234 OFFCURVE",
"31 238 CURVE"
);
},
{
closed = 1;
nodes = (
"384 119 OFFCURVE",
"389 141 OFFCURVE",
"395 153 CURVE",
"403 165 OFFCURVE",
"424 170 OFFCURVE",
"426 185 CURVE",
"430 206 OFFCURVE",
"370 277 OFFCURVE",
"382 287 CURVE",
"393 296 OFFCURVE",
"499 205 OFFCURVE",
"510 167 CURVE",
"515 146 OFFCURVE",
"487 130 OFFCURVE",
"468 119 CURVE",
"446 107 OFFCURVE",
"394 107 OFFCURVE",
"392 109 CURVE"
);
}
);
width = 854;
}
);
unicode = 304D;
},
{
glyphname = "gi-hira";
lastChange = "2020-05-01 00:19:42 +0000";
layers = (
{
layerId = "1305C52C-0BD1-483E-A343-C05F3AFF2931";
paths = (
{
closed = 1;
nodes = (
"360 154 OFFCURVE",
"411 180 OFFCURVE",
"410 208 CURVE",
"410 234 OFFCURVE",
"358 303 OFFCURVE",
"358 303 CURVE",
"358 303 OFFCURVE",
"396 282 OFFCURVE",
"426 252 CURVE",
"455 222 OFFCURVE",
"485 198 OFFCURVE",
"487 190 CURVE",
"495 153 OFFCURVE",
"383 120 OFFCURVE",
"373 135 CURVE"
);
},
{
closed = 1;
nodes = (
"550 264 OFFCURVE",
"657 397 OFFCURVE",
"690 467 CURVE",
"748 588 OFFCURVE",
"735 700 OFFCURVE",
"735 700 CURVE",
"735 700 OFFCURVE",
"755 656 OFFCURVE",
"761 635 CURVE",
"766 616 OFFCURVE",
"769 594 OFFCURVE",
"773 574 CURVE",
"777 550 OFFCURVE",
"784 513 OFFCURVE",
"782 487 CURVE",
"772 348 OFFCURVE",
"550 264 OFFCURVE",
"550 264 CURVE"
);
},
{
closed = 1;
nodes = (
"30 250 OFFCURVE",
"48 293 OFFCURVE",
"58 314 CURVE",
"67 333 OFFCURVE",
"53 328 OFFCURVE",
"85 371 CURVE",
"96 385 OFFCURVE",
"137 412 OFFCURVE",
"158 411 CURVE",
"171 410 OFFCURVE",
"179 397 OFFCURVE",
"179 384 CURVE",
"179 363 OFFCURVE",
"145 333 OFFCURVE",
"150 285 CURVE",
"152 254 OFFCURVE",
"180 206 OFFCURVE",
"208 207 CURVE",
"299 211 OFFCURVE",
"228 340 OFFCURVE",
"285 386 CURVE",
"334 425 OFFCURVE",
"419 417 OFFCURVE",
"485 374 CURVE",
"697 236 OFFCURVE",
"675 -3 OFFCURVE",
"675 -3 CURVE",
"675 -3 OFFCURVE",
"626 141 OFFCURVE",
"583 203 CURVE",
"539 264 OFFCURVE",
"446 346 OFFCURVE",
"386 348 CURVE",
"273 352 OFFCURVE",
"315 171 OFFCURVE",
"207 176 CURVE",
"131 180 OFFCURVE",
"83 294 OFFCURVE",
"83 294 CURVE",
"30 250 LINE"
);
},
{
closed = 1;
nodes = (
"202 440 OFFCURVE",
"238 462 OFFCURVE",
"238 482 CURVE",
"238 504 OFFCURVE",
"204 536 OFFCURVE",
"204 561 CURVE",
"205 588 OFFCURVE",
"238 621 OFFCURVE",
"274 621 CURVE",
"297 622 OFFCURVE",
"319 599 OFFCURVE",
"320 576 CURVE",
"321 561 OFFCURVE",
"315 532 OFFCURVE",
"306 532 CURVE",
"294 532 OFFCURVE",
"275 575 OFFCURVE",
"264 575 CURVE",
"249 575 OFFCURVE",
"239 561 OFFCURVE",
"239 549 CURVE",
"239 520 OFFCURVE",
"296 490 OFFCURVE",
"295 475 CURVE",
"294 446 OFFCURVE",
"211 424 OFFCURVE",
"207 430 CURVE"
);
}
);
width = 812;
}
);
unicode = 304E;
},
{
glyphname = "ku-hira";
lastChange = "2020-05-01 00:19:52 +0000";
layers = (
{
layerId = "1305C52C-0BD1-483E-A343-C05F3AFF2931";
paths = (
{
closed = 1;
nodes = (
"21 301 OFFCURVE",
"66 387 OFFCURVE",
"88 415 CURVE",
"127 466 OFFCURVE",
"206 451 OFFCURVE",
"209 440 CURVE",
"213 413 OFFCURVE",
"165 348 OFFCURVE",
"166 304 CURVE",
"167 262 OFFCURVE",
"181 210 OFFCURVE",
"216 209 CURVE",
"241 208 OFFCURVE",
"256 278 OFFCURVE",
"256 331 CURVE",
"256 377 OFFCURVE",
"298 446 OFFCURVE",
"339 456 CURVE",
"365 463 OFFCURVE",
"417 474 OFFCURVE",
"478 413 CURVE",
"508 385 OFFCURVE",
"669 187 OFFCURVE",
"669 187 CURVE",
"669 187 OFFCURVE",
"662 484 OFFCURVE",
"661 548 CURVE",
"661 566 OFFCURVE",
"631 591 OFFCURVE",
"632 611 CURVE",
"633 638 OFFCURVE",
"669 688 OFFCURVE",
"688 707 CURVE",
"702 720 OFFCURVE",
"736 718 OFFCURVE",
"749 705 CURVE",
"763 694 OFFCURVE",
"764 650 OFFCURVE",
"757 627 CURVE",
"749 603 OFFCURVE",
"720 585 OFFCURVE",
"708 553 CURVE",
"696 527 OFFCURVE",
"703 274 OFFCURVE",
"710 180 CURVE",
"716 96 OFFCURVE",
"808 31 OFFCURVE",
"810 0 CURVE",
"812 -28 OFFCURVE",
"777 -60 OFFCURVE",
"756 -64 CURVE",
"739 -67 OFFCURVE",
"712 -43 OFFCURVE",
"709 -27 CURVE",
"704 -8 OFFCURVE",
"720 17 OFFCURVE",
"709 36 CURVE",
"681 82 OFFCURVE",
"620 179 OFFCURVE",
"571 235 CURVE",
"524 289 OFFCURVE",
"452 354 OFFCURVE",
"413 373 CURVE",
"367 395 OFFCURVE",
"308 338 OFFCURVE",
"301 302 CURVE",
"295 277 OFFCURVE",
"297 257 OFFCURVE",
"289 235 CURVE",
"281 213 OFFCURVE",
"266 170 OFFCURVE",
"212 170 CURVE",
"131 169 OFFCURVE",
"103 303 OFFCURVE",
"95 310 CURVE",
"86 318 OFFCURVE",
"73 288 OFFCURVE",
"62 284 CURVE",
"54 279 OFFCURVE",
"36 274 OFFCURVE",
"31 285 CURVE"
);
},
{
closed = 1;
nodes = (
"372 80 OFFCURVE",
"371 100 OFFCURVE",
"375 108 CURVE",
"382 122 OFFCURVE",
"423 136 OFFCURVE",
"419 165 CURVE",
"415 194 OFFCURVE",
"346 282 OFFCURVE",
"351 289 CURVE",
"357 296 OFFCURVE",
"419 220 OFFCURVE",
"441 208 CURVE",
"462 197 OFFCURVE",
"498 208 OFFCURVE",
"513 203 CURVE",
"524 200 OFFCURVE",
"534 188 OFFCURVE",
"534 177 CURVE",
"535 140 OFFCURVE",
"473 82 OFFCURVE",
"458 81 CURVE",
"432 80 OFFCURVE",
"372 80 OFFCURVE",
"372 80 CURVE"
);
}
);
width = 840;
}
);
unicode = 304F;
},
{
glyphname = "gu-hira";
lastChange = "2020-05-01 00:20:12 +0000";
layers = (
{
layerId = "1305C52C-0BD1-483E-A343-C05F3AFF2931";
paths = (
{
closed = 1;
nodes = (
"193 448 OFFCURVE",
"229 468 OFFCURVE",
"229 489 CURVE",
"229 525 OFFCURVE",
"193 544 OFFCURVE",
"193 563 CURVE",
"194 588 OFFCURVE",
"228 626 OFFCURVE",
"267 628 CURVE",
"282 628 OFFCURVE",
"297 618 OFFCURVE",
"300 605 CURVE",
"307 581 OFFCURVE",
"304 540 OFFCURVE",
"294 540 CURVE",
"284 540 OFFCURVE",
"275 579 OFFCURVE",
"247 580 CURVE",
"237 580 OFFCURVE",
"228 566 OFFCURVE",
"227 555 CURVE",
"227 525 OFFCURVE",
"278 503 OFFCURVE",
"278 481 CURVE",
"278 446 OFFCURVE",
"204 433 OFFCURVE",
"199 440 CURVE"
);
},
{
closed = 1;
nodes = (
"30 263 OFFCURVE",
"54 345 OFFCURVE",
"84 382 CURVE",
"98 399 OFFCURVE",
"125 410 OFFCURVE",
"141 410 CURVE",
"160 410 OFFCURVE",
"184 406 OFFCURVE",
"184 390 CURVE",
"184 369 OFFCURVE",
"142 344 OFFCURVE",
"140 286 CURVE",
"139 254 OFFCURVE",
"156 193 OFFCURVE",
"190 196 CURVE",
"250 200 OFFCURVE",
"190 422 OFFCURVE",
"336 416 CURVE",
"417 414 OFFCURVE",
"588 169 OFFCURVE",
"588 169 CURVE",
"588 169 OFFCURVE",
"575 288 OFFCURVE",
"575 344 CURVE",
"574 398 OFFCURVE",
"586 453 OFFCURVE",
"584 489 CURVE",
"582 506 OFFCURVE",
"556 528 OFFCURVE",
"557 551 CURVE",
"559 581 OFFCURVE",
"602 641 OFFCURVE",
"627 640 CURVE",
"646 640 OFFCURVE",
"664 614 OFFCURVE",
"663 594 CURVE",
"662 571 OFFCURVE",
"628 535 OFFCURVE",
"621 503 CURVE",
"611 460 OFFCURVE",
"603 397 OFFCURVE",
"603 342 CURVE",
"604 206 OFFCURVE",
"625 152 OFFCURVE",
"648 102 CURVE",
"663 71 OFFCURVE",
"702 42 OFFCURVE",
"702 18 CURVE",
"702 -2 OFFCURVE",
"675 -34 OFFCURVE",
"660 -35 CURVE",
"644 -35 OFFCURVE",
"615 -15 OFFCURVE",
"614 -2 CURVE",
"613 14 OFFCURVE",
"627 28 OFFCURVE",
"623 41 CURVE",
"612 76 OFFCURVE",
"545 161 OFFCURVE",
"500 216 CURVE",
"456 271 OFFCURVE",
"389 348 OFFCURVE",
"341 348 CURVE",
"213 350 OFFCURVE",
"284 169 OFFCURVE",
"191 168 CURVE",
"110 166 OFFCURVE",
"88 295 OFFCURVE",
"88 295 CURVE",
"88 295 OFFCURVE",
"72 278 OFFCURVE",
"62 273 CURVE",
"53 267 OFFCURVE",
"30 263 OFFCURVE",
"30 263 CURVE"
);
},
{
closed = 1;
nodes = (
"308 109 OFFCURVE",
"381 135 OFFCURVE",
"369 160 CURVE",
"354 189 OFFCURVE",
"308 266 OFFCURVE",
"308 266 CURVE",
"308 266 OFFCURVE",
"355 222 OFFCURVE",
"375 203 CURVE",
"394 185 OFFCURVE",
"446 200 OFFCURVE",
"456 185 CURVE",
"467 168 OFFCURVE",
"441 121 OFFCURVE",
"420 105 CURVE",
"398 89 OFFCURVE",
"334 77 OFFCURVE",
"325 88 CURVE"
);
}
);
width = 732;
}
);
unicode = 3050;
},
{
glyphname = "ke-hira";
lastChange = "2020-05-01 00:20:24 +0000";
layers = (
{
layerId = "1305C52C-0BD1-483E-A343-C05F3AFF2931";
paths = (
{
closed = 1;
nodes = (
"330 362 OFFCURVE",
"354 528 OFFCURVE",
"379 569 CURVE",
"400 604 OFFCURVE",
"420 613 OFFCURVE",
"455 612 CURVE",
"495 611 OFFCURVE",
"516 586 OFFCURVE",
"529 554 CURVE",
"547 512 OFFCURVE",
"538 469 OFFCURVE",
"600 382 CURVE",
"629 340 OFFCURVE",
"677 303 OFFCURVE",
"720 286 CURVE",
"795 257 OFFCURVE",
"885 301 OFFCURVE",
"888 291 CURVE",
"893 278 OFFCURVE",
"784 255 OFFCURVE",
"707 263 CURVE",
"642 269 OFFCURVE",
"602 300 OFFCURVE",
"545 359 CURVE",
"490 415 OFFCURVE",
"463 510 OFFCURVE",
"442 508 CURVE",
"387 504 OFFCURVE",
"379 392 OFFCURVE",
"316 339 CURVE",
"299 326 OFFCURVE",
"273 319 OFFCURVE",
"251 319 CURVE",
"211 318 OFFCURVE",
"123 321 OFFCURVE",
"93 322 CURVE",
"73 323 OFFCURVE",
"56 306 OFFCURVE",
"56 287 CURVE",
"56 256 OFFCURVE",
"102 222 OFFCURVE",
"125 218 CURVE",
"143 215 OFFCURVE",
"165 213 OFFCURVE",
"177 214 CURVE",
"187 215 OFFCURVE",
"193 222 OFFCURVE",
"208 221 CURVE",
"221 221 OFFCURVE",
"235 210 OFFCURVE",
"235 198 CURVE",
"235 182 OFFCURVE",
"206 139 OFFCURVE",
"186 133 CURVE",
"167 128 OFFCURVE",
"138 126 OFFCURVE",
"134 133 CURVE",
"129 142 OFFCURVE",
"147 150 OFFCURVE",
"146 158 CURVE",
"145 170 OFFCURVE",
"33 208 OFFCURVE",
"30 279 CURVE",
"28 327 OFFCURVE",
"72 350 OFFCURVE",
"94 351 CURVE",
"127 352 OFFCURVE",
"211 345 OFFCURVE",
"249 350 CURVE"
);
},
{
closed = 1;
nodes = (
"238 151 OFFCURVE",
"274 226 OFFCURVE",
"309 243 CURVE",
"322 249 OFFCURVE",
"345 245 OFFCURVE",
"354 239 CURVE",
"363 232 OFFCURVE",
"361 211 OFFCURVE",
"359 199 CURVE",
"356 183 OFFCURVE",
"337 169 OFFCURVE",
"337 142 CURVE",
"337 123 OFFCURVE",
"353 87 OFFCURVE",
"396 91 CURVE",
"454 95 OFFCURVE",
"422 162 OFFCURVE",
"457 189 CURVE",
"479 207 OFFCURVE",
"518 204 OFFCURVE",
"541 201 CURVE",
"612 192 OFFCURVE",
"708 69 OFFCURVE",
"687 52 CURVE",
"678 46 OFFCURVE",
"620 143 OFFCURVE",
"533 139 CURVE",
"447 135 OFFCURVE",
"453 63 OFFCURVE",
"387 57 CURVE",
"359 54 OFFCURVE",
"322 68 OFFCURVE",
"309 87 CURVE",
"296 105 OFFCURVE",
"292 136 OFFCURVE",
"281 144 CURVE",
"271 152 OFFCURVE",
"260 125 OFFCURVE",
"252 135 CURVE"
);
},
{
closed = 1;
nodes = (
"457 13 OFFCURVE",
"478 24 OFFCURVE",
"481 37 CURVE",
"487 59 OFFCURVE",
"459 79 OFFCURVE",
"465 83 CURVE",
"473 88 OFFCURVE",
"486 76 OFFCURVE",
"496 75 CURVE",
"511 73 OFFCURVE",
"532 77 OFFCURVE",
"542 62 CURVE",
"549 53 OFFCURVE",
"537 26 OFFCURVE",
"525 15 CURVE",
"512 5 OFFCURVE",
"472 -5 OFFCURVE",
"466 2 CURVE"
);
}
);
width = 918;
}
);
unicode = 3051;
},
{
glyphname = "ge-hira";
lastChange = "2020-05-01 00:20:36 +0000";
layers = (
{
layerId = "1305C52C-0BD1-483E-A343-C05F3AFF2931";
paths = (
{
closed = 1;
nodes = (
"453 14 OFFCURVE",
"486 29 OFFCURVE",
"486 42 CURVE",
"486 55 OFFCURVE",
"465 81 OFFCURVE",
"465 81 CURVE",
"465 81 OFFCURVE",
"486 71 OFFCURVE",
"496 71 CURVE",
"510 70 OFFCURVE",
"533 72 OFFCURVE",
"540 63 CURVE",
"546 54 OFFCURVE",
"538 28 OFFCURVE",
"524 18 CURVE",
"510 8 OFFCURVE",
"461 -2 OFFCURVE",
"457 6 CURVE"
);
},
{
closed = 1;
nodes = (
"249 131 OFFCURVE",
"258 190 OFFCURVE",
"282 218 CURVE",
"300 239 OFFCURVE",
"345 250 OFFCURVE",
"355 237 CURVE",
"369 218 OFFCURVE",
"337 169 OFFCURVE",
"337 144 CURVE",
"338 118 OFFCURVE",
"364 88 OFFCURVE",
"391 88 CURVE",
"460 89 OFFCURVE",
"418 210 OFFCURVE",
"504 208 CURVE",
"627 204 OFFCURVE",
"691 52 OFFCURVE",
"691 52 CURVE",
"691 52 OFFCURVE",
"593 139 OFFCURVE",
"543 138 CURVE",
"460 138 OFFCURVE",
"436 54 OFFCURVE",
"388 53 CURVE",
"289 50 OFFCURVE",
"281 156 OFFCURVE",
"281 156 CURVE",
"249 131 LINE"
);
},
{
closed = 1;
nodes = (
"123 142 OFFCURVE",
"150 152 OFFCURVE",
"144 161 CURVE",
"137 173 OFFCURVE",
"101 186 OFFCURVE",
"83 201 CURVE",
"51 227 OFFCURVE",
"29 260 OFFCURVE",
"30 288 CURVE",
"31 317 OFFCURVE",
"66 353 OFFCURVE",
"143 351 CURVE",
"321 346 OFFCURVE",
"308 379 OFFCURVE",
"343 477 CURVE",
"369 547 OFFCURVE",
"392 613 OFFCURVE",
"451 613 CURVE",
"521 613 OFFCURVE",
"542 526 OFFCURVE",
"566 437 CURVE",
"578 394 OFFCURVE",
"652 291 OFFCURVE",
"737 285 CURVE",
"786 282 OFFCURVE",
"888 294 OFFCURVE",
"888 294 CURVE",
"888 294 OFFCURVE",
"782 256 OFFCURVE",
"729 258 CURVE",
"544 264 OFFCURVE",
"484 510 OFFCURVE",
"442 510 CURVE",
"363 510 OFFCURVE",
"424 306 OFFCURVE",
"158 322 CURVE",
"124 324 OFFCURVE",
"60 334 OFFCURVE",
"60 289 CURVE",
"60 247 OFFCURVE",
"117 213 OFFCURVE",
"148 214 CURVE",
"175 215 OFFCURVE",
"224 227 OFFCURVE",
"230 209 CURVE",
"247 155 OFFCURVE",
"139 117 OFFCURVE",
"129 133 CURVE"
);
},
{
closed = 1;
nodes = (
"178 409 OFFCURVE",
"218 434 OFFCURVE",
"218 456 CURVE",
"217 480 OFFCURVE",
"186 506 OFFCURVE",
"186 534 CURVE",
"186 560 OFFCURVE",
"223 592 OFFCURVE",
"248 594 CURVE",
"268 596 OFFCURVE",
"297 572 OFFCURVE",
"298 553 CURVE",
"298 535 OFFCURVE",
"289 508 OFFCURVE",
"280 507 CURVE",
"271 506 OFFCURVE",
"256 548 OFFCURVE",
"242 549 CURVE",
"232 549 OFFCURVE",
"216 538 OFFCURVE",
"216 523 CURVE",
"217 504 OFFCURVE",
"269 467 OFFCURVE",
"269 445 CURVE",
"269 424 OFFCURVE",
"191 392 OFFCURVE",
"184 400 CURVE"
);
}
);
width = 918;
}
);
unicode = 3052;
},
{
glyphname = "ko-hira";
lastChange = "2020-05-01 00:20:50 +0000";
layers = (
{
layerId = "1305C52C-0BD1-483E-A343-C05F3AFF2931";
paths = (
{
closed = 1;
nodes = (
"23 225 OFFCURVE",
"57 290 OFFCURVE",
"64 309 CURVE",
"67 317 OFFCURVE",
"69 337 OFFCURVE",
"76 348 CURVE",
"85 364 OFFCURVE",
"102 391 OFFCURVE",
"115 400 CURVE",
"125 407 OFFCURVE",
"148 407 OFFCURVE",
"161 396 CURVE",
"171 386 OFFCURVE",
"179 352 OFFCURVE",
"179 352 CURVE",
"179 352 OFFCURVE",
"181 319 OFFCURVE",
"187 302 CURVE",
"197 278 OFFCURVE",
"218 215 OFFCURVE",
"250 215 CURVE",
"275 215 OFFCURVE",
"271 250 OFFCURVE",
"267 268 CURVE",
"262 289 OFFCURVE",
"242 326 OFFCURVE",
"243 348 CURVE",
"244 383 OFFCURVE",
"271 424 OFFCURVE",
"294 429 CURVE",
"314 432 OFFCURVE",
"332 432 OFFCURVE",
"349 425 CURVE",
"397 402 OFFCURVE",
"416 310 OFFCURVE",
"453 265 CURVE",
"489 223 OFFCURVE",
"565 150 OFFCURVE",
"575 155 CURVE",
"582 160 OFFCURVE",
"519 224 OFFCURVE",
"521 264 CURVE",
"525 359 OFFCURVE",
"668 425 OFFCURVE",
"700 483 CURVE",
"721 520 OFFCURVE",
"714 576 OFFCURVE",
"707 615 CURVE",
"698 666 OFFCURVE",
"635 698 OFFCURVE",
"646 714 CURVE",
"658 729 OFFCURVE",
"803 613 OFFCURVE",
"800 501 CURVE",
"800 332 OFFCURVE",
"575 359 OFFCURVE",
"564 254 CURVE",
"560 219 OFFCURVE",
"590 183 OFFCURVE",
"619 162 CURVE",
"655 135 OFFCURVE",
"769 117 OFFCURVE",
"785 92 CURVE",
"797 72 OFFCURVE",
"743 45 OFFCURVE",
"725 47 CURVE",
"662 56 OFFCURVE",
"562 125 OFFCURVE",
"482 195 CURVE",
"396 272 OFFCURVE",
"355 348 OFFCURVE",
"324 349 CURVE",
"303 350 OFFCURVE",
"293 332 OFFCURVE",
"291 317 CURVE",
"289 293 OFFCURVE",
"295 233 OFFCURVE",
"288 211 CURVE",
"282 194 OFFCURVE",
"256 180 OFFCURVE",
"239 181 CURVE",
"202 184 OFFCURVE",
"132 288 OFFCURVE",
"118 289 CURVE",
"92 290 OFFCURVE",
"40 218 OFFCURVE",
"32 221 CURVE"
);
},
{
closed = 1;
nodes = (
"322 88 OFFCURVE",
"357 103 OFFCURVE",
"361 117 CURVE",
"364 128 OFFCURVE",
"363 149 OFFCURVE",
"358 162 CURVE",
"351 179 OFFCURVE",
"319 224 OFFCURVE",
"328 232 CURVE",
"339 242 OFFCURVE",
"374 183 OFFCURVE",
"398 174 CURVE",
"422 165 OFFCURVE",
"452 171 OFFCURVE",
"465 164 CURVE",
"476 159 OFFCURVE",
"477 135 OFFCURVE",
"471 125 CURVE",
"461 108 OFFCURVE",
"430 79 OFFCURVE",
"410 73 CURVE",
"393 68 OFFCURVE",
"377 61 OFFCURVE",
"368 68 CURVE",
"365 71 OFFCURVE",
"358 76 OFFCURVE",
"354 78 CURVE",
"348 80 OFFCURVE",
"326 77 OFFCURVE",
"324 82 CURVE"
);
}
);
width = 830;
}
);
unicode = 3053;
},
{
glyphname = "go-hira";
lastChange = "2020-05-01 00:21:07 +0000";
layers = (
{
layerId = "1305C52C-0BD1-483E-A343-C05F3AFF2931";
paths = (
{
closed = 1;
nodes = (
"30 229 OFFCURVE",
"67 336 OFFCURVE",
"84 365 CURVE",
"94 381 OFFCURVE",
"111 400 OFFCURVE",
"131 400 CURVE",
"176 399 OFFCURVE",
"168 230 OFFCURVE",
"235 232 CURVE",
"251 232 OFFCURVE",
"252 245 OFFCURVE",
"252 257 CURVE",
"250 279 OFFCURVE",
"224 324 OFFCURVE",
"226 353 CURVE",
"228 380 OFFCURVE",
"258 426 OFFCURVE",
"290 427 CURVE",
"345 429 OFFCURVE",
"381 325 OFFCURVE",
"414 279 CURVE",
"456 221 OFFCURVE",
"522 180 OFFCURVE",
"522 180 CURVE",
"522 180 OFFCURVE",
"486 239 OFFCURVE",
"485 271 CURVE",
"484 386 OFFCURVE",
"660 394 OFFCURVE",
"662 530 CURVE",
"662 643 OFFCURVE",
"599 686 OFFCURVE",
"599 686 CURVE",
"599 686 OFFCURVE",
"746 584 OFFCURVE",
"743 479 CURVE",
"740 365 OFFCURVE",
"523 342 OFFCURVE",
"524 264 CURVE",
"525 152 OFFCURVE",
"694 147 OFFCURVE",
"726 113 CURVE",
"743 96 OFFCURVE",
"685 80 OFFCURVE",
"663 79 CURVE",
"601 75 OFFCURVE",
"425 217 OFFCURVE",
"351 306 CURVE",
"325 337 OFFCURVE",
"308 352 OFFCURVE",
"294 351 CURVE",
"254 349 OFFCURVE",
"272 300 OFFCURVE",
"272 272 CURVE",
"272 244 OFFCURVE",
"255 201 OFFCURVE",
"222 202 CURVE",
"178 203 OFFCURVE",
"135 293 OFFCURVE",
"108 294 CURVE",
"75 294 OFFCURVE",
"30 229 OFFCURVE",
"30 229 CURVE"
);
},
{
closed = 1;
nodes = (
"309 121 OFFCURVE",
"345 128 OFFCURVE",
"343 144 CURVE",
"342 166 OFFCURVE",
"304 241 OFFCURVE",
"304 241 CURVE",
"304 241 OFFCURVE",
"354 197 OFFCURVE",
"377 187 CURVE",
"396 179 OFFCURVE",
"436 189 OFFCURVE",
"441 177 CURVE",
"447 165 OFFCURVE",
"427 122 OFFCURVE",
"407 111 CURVE",
"386 99 OFFCURVE",
"319 89 OFFCURVE",
"313 108 CURVE"
);
},
{
closed = 1;
nodes = (
"409 415 OFFCURVE",
"440 433 OFFCURVE",
"441 450 CURVE",
"441 479 OFFCURVE",
"410 502 OFFCURVE",
"410 525 CURVE",
"411 549 OFFCURVE",
"442 581 OFFCURVE",
"466 580 CURVE",
"488 579 OFFCURVE",
"515 553 OFFCURVE",
"515 539 CURVE",
"516 522 OFFCURVE",
"510 500 OFFCURVE",
"499 500 CURVE",
"488 500 OFFCURVE",
"483 534 OFFCURVE",
"463 534 CURVE",
"450 535 OFFCURVE",
"440 530 OFFCURVE",
"440 516 CURVE",
"440 488 OFFCURVE",
"489 462 OFFCURVE",
"490 446 CURVE",
"490 422 OFFCURVE",
"415 399 OFFCURVE",
"412 407 CURVE"
);
}
);
width = 773;
}
);
unicode = 3054;
},
{
glyphname = "sa-hira";
lastChange = "2020-05-01 00:21:53 +0000";
layers = (
{
layerId = "1305C52C-0BD1-483E-A343-C05F3AFF2931";
paths = (
{
closed = 1;
nodes = (
"26 433 OFFCURVE",
"30 480 OFFCURVE",
"42 497 CURVE",
"56 520 OFFCURVE",
"103 548 OFFCURVE",
"124 550 CURVE",
"144 553 OFFCURVE",
"169 526 OFFCURVE",
"173 511 CURVE",
"177 496 OFFCURVE",
"145 476 OFFCURVE",
"148 455 CURVE",
"153 420 OFFCURVE",
"197 344 OFFCURVE",
"240 285 CURVE",
"276 235 OFFCURVE",
"357 73 OFFCURVE",
"343 63 CURVE",
"328 53 OFFCURVE",
"314 126 OFFCURVE",
"266 196 CURVE",
"236 239 OFFCURVE",
"190 287 OFFCURVE",
"159 328 CURVE",
"131 365 OFFCURVE",
"103 420 OFFCURVE",
"80 433 CURVE",
"61 442 OFFCURVE",
"43 419 OFFCURVE",
"34 426 CURVE"
);
},
{
closed = 1;
nodes = (
"260 308 OFFCURVE",
"335 268 OFFCURVE",
"339 274 CURVE",
"343 282 OFFCURVE",
"314 322 OFFCURVE",
"300 344 CURVE",
"292 356 OFFCURVE",
"261 385 OFFCURVE",
"257 402 CURVE",
"254 417 OFFCURVE",
"265 434 OFFCURVE",
"272 440 CURVE",
"278 446 OFFCURVE",
"299 439 OFFCURVE",
"305 436 CURVE",
"314 430 OFFCURVE",
"367 335 OFFCURVE",
"425 340 CURVE",
"472 344 OFFCURVE",
"472 460 OFFCURVE",
"530 486 CURVE",
"546 493 OFFCURVE",
"572 492 OFFCURVE",
"587 483 CURVE",
"654 444 OFFCURVE",
"607 384 OFFCURVE",
"661 278 CURVE",
"673 253 OFFCURVE",
"700 216 OFFCURVE",
"758 184 CURVE",
"783 171 OFFCURVE",
"833 179 OFFCURVE",
"843 180 CURVE",
"861 182 OFFCURVE",
"894 189 OFFCURVE",
"896 181 CURVE",
"902 164 OFFCURVE",
"799 146 OFFCURVE",
"744 154 CURVE",
"670 166 OFFCURVE",
"620 241 OFFCURVE",
"595 281 CURVE",
"573 318 OFFCURVE",
"559 391 OFFCURVE",
"534 393 CURVE",
"490 396 OFFCURVE",
"480 307 OFFCURVE",
"444 306 CURVE",
"387 305 OFFCURVE",
"314 368 OFFCURVE",
"314 368 CURVE",
"314 368 OFFCURVE",
"355 311 OFFCURVE",
"378 290 CURVE",
"398 271 OFFCURVE",
"441 272 OFFCURVE",
"447 247 CURVE",
"451 228 OFFCURVE",
"432 211 OFFCURVE",
"407 198 CURVE",
"392 191 OFFCURVE",
"363 187 OFFCURVE",
"356 193 CURVE",
"347 200 OFFCURVE",
"355 211 OFFCURVE",
"350 221 CURVE",
"344 234 OFFCURVE",
"325 248 OFFCURVE",
"310 259 CURVE",
"293 271 OFFCURVE",
"250 286 OFFCURVE",
"255 297 CURVE"
);
}
);
width = 926;
}
);
unicode = 3055;
},
{
glyphname = "za-hira";
lastChange = "2020-05-01 00:22:04 +0000";
layers = (
{
layerId = "1305C52C-0BD1-483E-A343-C05F3AFF2931";
paths = (
{
closed = 1;
nodes = (
"26 390 OFFCURVE",
"33 432 OFFCURVE",
"46 452 CURVE",
"62 474 OFFCURVE",
"109 509 OFFCURVE",
"130 509 CURVE",
"151 509 OFFCURVE",
"169 482 OFFCURVE",
"170 467 CURVE",
"171 452 OFFCURVE",
"143 427 OFFCURVE",
"148 411 CURVE",
"164 357 OFFCURVE",
"194 299 OFFCURVE",
"231 252 CURVE",
"303 158 OFFCURVE",
"345 15 OFFCURVE",
"345 15 CURVE",
"345 15 OFFCURVE",
"298 93 OFFCURVE",
"276 131 CURVE",
"246 182 OFFCURVE",
"186 250 OFFCURVE",
"150 292 CURVE",
"113 335 OFFCURVE",
"93 397 OFFCURVE",
"77 398 CURVE",
"62 398 OFFCURVE",
"42 371 OFFCURVE",
"33 382 CURVE"
);
},
{
closed = 1;
nodes = (
"344 413 OFFCURVE",
"386 447 OFFCURVE",
"385 464 CURVE",
"384 485 OFFCURVE",
"348 514 OFFCURVE",
"349 537 CURVE",
"349 561 OFFCURVE",
"382 593 OFFCURVE",
"414 591 CURVE",
"435 591 OFFCURVE",
"460 561 OFFCURVE",
"460 546 CURVE",
"459 533 OFFCURVE",
"455 511 OFFCURVE",
"446 512 CURVE",
"437 513 OFFCURVE",
"423 550 OFFCURVE",
"405 550 CURVE",
"394 549 OFFCURVE",
"379 539 OFFCURVE",
"379 526 CURVE",
"379 489 OFFCURVE",
"435 470 OFFCURVE",
"436 450 CURVE",
"436 430 OFFCURVE",
"363 396 OFFCURVE",
"350 407 CURVE"
);
},
{
closed = 1;
nodes = (
"186 292 OFFCURVE",
"213 295 OFFCURVE",
"226 288 CURVE",
"242 280 OFFCURVE",
"254 260 OFFCURVE",
"280 244 CURVE",
"322 218 OFFCURVE",
"349 211 OFFCURVE",
"349 211 CURVE",
"349 211 OFFCURVE",
"329 259 OFFCURVE",
"313 284 CURVE",
"298 310 OFFCURVE",
"258 345 OFFCURVE",
"256 365 CURVE",
"254 383 OFFCURVE",
"269 400 OFFCURVE",
"285 400 CURVE",
"310 400 OFFCURVE",
"358 299 OFFCURVE",
"423 296 CURVE",
"475 294 OFFCURVE",
"476 446 OFFCURVE",
"564 447 CURVE",
"606 447 OFFCURVE",
"627 369 OFFCURVE",
"630 326 CURVE",
"635 268 OFFCURVE",
"700 149 OFFCURVE",
"799 137 CURVE",
"835 132 OFFCURVE",
"897 133 OFFCURVE",
"897 133 CURVE",
"897 133 OFFCURVE",
"769 91 OFFCURVE",
"709 119 CURVE",
"600 170 OFFCURVE",
"566 351 OFFCURVE",
"535 351 CURVE",
"484 352 OFFCURVE",
"465 265 OFFCURVE",
"432 265 CURVE",
"396 265 OFFCURVE",
"310 328 OFFCURVE",
"310 328 CURVE",
"310 328 OFFCURVE",
"351 261 OFFCURVE",
"374 239 CURVE",
"394 221 OFFCURVE",
"446 218 OFFCURVE",
"447 200 CURVE",
"449 162 OFFCURVE",
"371 138 OFFCURVE",
"357 146 CURVE",
"350 150 OFFCURVE",
"363 165 OFFCURVE",
"357 171 CURVE",
"339 192 OFFCURVE",
"226 250 OFFCURVE",
"226 250 CURVE",
"186 292 LINE"
);
}
);
width = 927;
}
);
unicode = 3056;
},
{
glyphname = "si-hira";
lastChange = "2020-05-01 00:22:16 +0000";
layers = (
{
layerId = "1305C52C-0BD1-483E-A343-C05F3AFF2931";
paths = (
{
closed = 1;
nodes = (
"237 99 OFFCURVE",
"255 124 OFFCURVE",
"260 139 CURVE",
"264 154 OFFCURVE",
"264 177 OFFCURVE",
"271 190 CURVE",
"277 202 OFFCURVE",
"291 216 OFFCURVE",
"302 216 CURVE",
"319 216 OFFCURVE",
"322 179 OFFCURVE",
"333 163 CURVE",
"347 143 OFFCURVE",
"408 92 OFFCURVE",
"402 85 CURVE",
"395 77 OFFCURVE",
"322 128 OFFCURVE",
"310 127 CURVE",
"297 126 OFFCURVE",
"261 88 OFFCURVE",
"244 96 CURVE"
);
},
{
closed = 1;
nodes = (
"418 67 OFFCURVE",
"437 69 OFFCURVE",
"437 81 CURVE",
"438 98 OFFCURVE",
"410 155 OFFCURVE",
"411 173 CURVE",
"412 188 OFFCURVE",
"418 199 OFFCURVE",
"429 198 CURVE",
"448 197 OFFCURVE",
"493 145 OFFCURVE",
"521 146 CURVE",
"548 146 OFFCURVE",
"563 199 OFFCURVE",
"600 199 CURVE",
"617 199 OFFCURVE",
"632 187 OFFCURVE",
"633 163 CURVE",
"635 146 OFFCURVE",
"614 129 OFFCURVE",
"616 102 CURVE",
"622 4 OFFCURVE",
"744 1 OFFCURVE",
"745 -12 CURVE",
"745 -25 OFFCURVE",
"674 -17 OFFCURVE",
"620 24 CURVE",
"575 59 OFFCURVE",
"577 121 OFFCURVE",
"570 129 CURVE",
"566 135 OFFCURVE",
"547 109 OFFCURVE",
"532 108 CURVE",
"514 107 OFFCURVE",
"469 141 OFFCURVE",
"460 130 CURVE",
"449 117 OFFCURVE",
"508 88 OFFCURVE",
"508 71 CURVE",
"509 54 OFFCURVE",
"470 30 OFFCURVE",
"460 30 CURVE",
"445 30 OFFCURVE",
"419 39 OFFCURVE",
"418 53 CURVE"
);
},
{
closed = 1;
nodes = (
"20 192 OFFCURVE",
"41 254 OFFCURVE",
"51 282 CURVE",
"60 307 OFFCURVE",
"81 337 OFFCURVE",
"95 346 CURVE",
"106 354 OFFCURVE",
"126 349 OFFCURVE",
"134 342 CURVE",
"143 335 OFFCURVE",
"140 317 OFFCURVE",
"148 307 CURVE",
"154 299 OFFCURVE",
"166 294 OFFCURVE",
"176 294 CURVE",
"282 291 OFFCURVE",
"665 284 OFFCURVE",
"778 285 CURVE",
"794 286 OFFCURVE",
"817 316 OFFCURVE",
"848 316 CURVE",
"866 316 OFFCURVE",
"875 294 OFFCURVE",
"871 280 CURVE",
"861 236 OFFCURVE",
"821 233 OFFCURVE",
"800 234 CURVE",
"781 234 OFFCURVE",
"761 250 OFFCURVE",
"752 251 CURVE",
"717 251 OFFCURVE",
"283 254 OFFCURVE",
"179 252 CURVE",
"158 252 OFFCURVE",
"127 240 OFFCURVE",
"105 229 CURVE",
"80 217 OFFCURVE",
"46 175 OFFCURVE",
"35 182 CURVE"
);
},
{
closed = 1;
nodes = (
"243 455 OFFCURVE",
"268 488 OFFCURVE",
"288 500 CURVE",
"326 524 OFFCURVE",
"368 536 OFFCURVE",
"389 517 CURVE",
"407 499 OFFCURVE",
"362 476 OFFCURVE",
"370 451 CURVE",
"381 418 OFFCURVE",
"437 385 OFFCURVE",
"482 387 CURVE",
"591 392 OFFCURVE",
"648 517 OFFCURVE",
"659 570 CURVE",
"663 594 OFFCURVE",
"657 634 OFFCURVE",
"669 634 CURVE",
"679 634 OFFCURVE",
"684 542 OFFCURVE",
"675 516 CURVE",
"643 424 OFFCURVE",
"609 369 OFFCURVE",
"474 338 CURVE",
"379 317 OFFCURVE",
"284 431 OFFCURVE",
"269 437 CURVE",
"261 440 OFFCURVE",
"255 435 OFFCURVE",
"251 442 CURVE"
);
}
);
width = 902;
}
);
unicode = 3057;
},
{
glyphname = "zi-hira";
lastChange = "2020-05-01 00:22:26 +0000";
layers = (
{
layerId = "1305C52C-0BD1-483E-A343-C05F3AFF2931";
paths = (
{
closed = 1;
nodes = (
"30 180 OFFCURVE",
"38 252 OFFCURVE",
"49 282 CURVE",
"61 312 OFFCURVE",
"90 350 OFFCURVE",
"116 348 CURVE",
"133 347 OFFCURVE",
"137 291 OFFCURVE",
"155 291 CURVE",
"260 288 OFFCURVE",
"646 285 OFFCURVE",
"760 284 CURVE",
"784 284 OFFCURVE",
"790 311 OFFCURVE",
"832 312 CURVE",
"853 313 OFFCURVE",
"865 300 OFFCURVE",
"865 286 CURVE",
"866 261 OFFCURVE",
"822 231 OFFCURVE",
"797 231 CURVE",
"785 231 OFFCURVE",
"767 254 OFFCURVE",
"748 254 CURVE",
"641 254 OFFCURVE",
"263 255 OFFCURVE",
"151 253 CURVE",
"127 252 OFFCURVE",
"105 235 OFFCURVE",
"85 222 CURVE",
"65 211 OFFCURVE",
"30 180 OFFCURVE",
"30 180 CURVE"
);
},
{
closed = 1;
nodes = (
"233 100 OFFCURVE",
"250 116 OFFCURVE",
"254 127 CURVE",
"260 141 OFFCURVE",
"261 161 OFFCURVE",
"269 176 CURVE",
"275 189 OFFCURVE",
"286 206 OFFCURVE",
"299 206 CURVE",
"312 207 OFFCURVE",
"329 176 OFFCURVE",
"338 164 CURVE",
"344 156 OFFCURVE",
"344 144 OFFCURVE",
"349 136 CURVE",
"356 124 OFFCURVE",
"388 91 OFFCURVE",
"388 91 CURVE",
"388 91 OFFCURVE",
"368 94 OFFCURVE",
"358 98 CURVE",
"345 102 OFFCURVE",
"323 122 OFFCURVE",
"308 121 CURVE",
"293 120 OFFCURVE",
"283 99 OFFCURVE",
"271 94 CURVE",
"260 91 OFFCURVE",
"238 89 OFFCURVE",
"235 94 CURVE"
);
},
{
closed = 1;
nodes = (
"420 59 OFFCURVE",
"443 68 OFFCURVE",
"443 80 CURVE",
"443 98 OFFCURVE",
"411 149 OFFCURVE",
"411 167 CURVE",
"411 179 OFFCURVE",
"418 199 OFFCURVE",
"429 196 CURVE",
"447 191 OFFCURVE",
"490 139 OFFCURVE",
"518 139 CURVE",
"545 140 OFFCURVE",
"560 197 OFFCURVE",
"595 197 CURVE",
"612 197 OFFCURVE",
"627 178 OFFCURVE",
"627 164 CURVE",
"627 151 OFFCURVE",
"605 134 OFFCURVE",
"605 118 CURVE",
"603 2 OFFCURVE",
"746 -17 OFFCURVE",
"746 -17 CURVE",
"746 -17 OFFCURVE",
"694 -36 OFFCURVE",
"617 30 CURVE",
"567 73 OFFCURVE",
"583 132 OFFCURVE",
"567 134 CURVE",
"552 135 OFFCURVE",
"537 114 OFFCURVE",
"522 114 CURVE",
"503 115 OFFCURVE",
"449 145 OFFCURVE",
"449 145 CURVE",
"449 145 OFFCURVE",
"446 126 OFFCURVE",
"458 114 CURVE",
"468 103 OFFCURVE",
"500 86 OFFCURVE",
"500 72 CURVE",
"499 58 OFFCURVE",
"470 40 OFFCURVE",
"457 37 CURVE",
"444 33 OFFCURVE",
"419 43 OFFCURVE",
"420 51 CURVE"
);
},
{
closed = 1;
nodes = (
"139 411 OFFCURVE",
"170 438 OFFCURVE",
"169 458 CURVE",
"168 480 OFFCURVE",
"137 511 OFFCURVE",
"138 537 CURVE",
"139 563 OFFCURVE",
"179 595 OFFCURVE",
"203 595 CURVE",
"237 594 OFFCURVE",
"251 568 OFFCURVE",
"252 547 CURVE",
"253 534 OFFCURVE",
"246 509 OFFCURVE",
"236 509 CURVE",
"223 509 OFFCURVE",
"209 553 OFFCURVE",
"194 553 CURVE",
"182 553 OFFCURVE",
"167 540 OFFCURVE",
"167 524 CURVE",
"167 506 OFFCURVE",
"227 473 OFFCURVE",
"227 452 CURVE",
"226 427 OFFCURVE",
"151 395 OFFCURVE",
"145 403 CURVE"
);
},
{
closed = 1;
nodes = (
"247 460 OFFCURVE",
"276 497 OFFCURVE",
"298 509 CURVE",
"320 522 OFFCURVE",
"375 535 OFFCURVE",
"383 524 CURVE",
"398 503 OFFCURVE",
"364 479 OFFCURVE",
"364 460 CURVE",
"365 427 OFFCURVE",
"415 387 OFFCURVE",
"475 386 CURVE",
"566 384 OFFCURVE",
"624 471 OFFCURVE",
"649 544 CURVE",
"665 595 OFFCURVE",
"661 641 OFFCURVE",
"661 641 CURVE",
"661 641 OFFCURVE",
"690 603 OFFCURVE",
"672 525 CURVE",
"655 450 OFFCURVE",
"573 350 OFFCURVE",
"469 340 CURVE",
"399 333 OFFCURVE",
"307 406 OFFCURVE",
"283 434 CURVE",
"274 444 OFFCURVE",
"255 443 OFFCURVE",
"251 451 CURVE"
);
}
);
width = 895;
}
);
unicode = 3058;
},
{
glyphname = "su-hira";
lastChange = "2020-05-01 00:22:54 +0000";
layers = (
{
layerId = "1305C52C-0BD1-483E-A343-C05F3AFF2931";
paths = (
{
closed = 1;
nodes = (
"27 201 OFFCURVE",
"28 248 OFFCURVE",
"39 269 CURVE",
"52 293 OFFCURVE",
"92 338 OFFCURVE",
"113 344 CURVE",
"128 349 OFFCURVE",
"146 335 OFFCURVE",
"150 324 CURVE",
"156 311 OFFCURVE",
"147 301 OFFCURVE",
"150 287 CURVE",
"153 270 OFFCURVE",
"172 245 OFFCURVE",
"176 230 CURVE",
"178 221 OFFCURVE",
"179 203 OFFCURVE",
"168 200 CURVE",
"154 196 OFFCURVE",
"107 238 OFFCURVE",
"84 239 CURVE",
"53 240 OFFCURVE",
"57 192 OFFCURVE",
"36 198 CURVE"
);
},
{
closed = 1;
nodes = (
"181 370 OFFCURVE",
"198 415 OFFCURVE",
"222 413 CURVE",
"258 410 OFFCURVE",
"284 277 OFFCURVE",
"338 279 CURVE",
"385 280 OFFCURVE",
"366 410 OFFCURVE",
"455 408 CURVE",
"532 406 OFFCURVE",
"597 236 OFFCURVE",
"597 236 CURVE",
"597 236 OFFCURVE",
"659 261 OFFCURVE",
"653 295 CURVE",
"649 321 OFFCURVE",
"613 386 OFFCURVE",
"575 445 CURVE",
"529 519 OFFCURVE",
"479 587 OFFCURVE",
"483 590 CURVE",
"495 598 OFFCURVE",
"551 546 OFFCURVE",
"600 478 CURVE",
"639 424 OFFCURVE",
"645 381 OFFCURVE",
"702 337 CURVE",
"718 325 OFFCURVE",
"748 330 OFFCURVE",
"754 295 CURVE",
"757 277 OFFCURVE",
"704 237 OFFCURVE",
"681 231 CURVE",
"669 227 OFFCURVE",
"606 216 OFFCURVE",
"606 216 CURVE",
"606 216 OFFCURVE",
"644 144 OFFCURVE",
"672 114 CURVE",
"699 84 OFFCURVE",
"726 46 OFFCURVE",
"773 40 CURVE",
"836 32 OFFCURVE",
"877 48 OFFCURVE",
"881 39 CURVE",
"886 30 OFFCURVE",
"826 12 OFFCURVE",
"800 12 CURVE",
"732 9 OFFCURVE",
"684 45 OFFCURVE",
"640 83 CURVE",
"581 134 OFFCURVE",
"503 319 OFFCURVE",
"443 320 CURVE",
"400 320 OFFCURVE",
"376 245 OFFCURVE",
"343 242 CURVE",
"309 239 OFFCURVE",
"238 307 OFFCURVE",
"238 307 CURVE",
"238 307 OFFCURVE",
"254 269 OFFCURVE",
"292 207 CURVE",
"299 197 OFFCURVE",
"326 196 OFFCURVE",
"329 177 CURVE",
"331 163 OFFCURVE",
"307 131 OFFCURVE",
"292 120 CURVE",
"279 111 OFFCURVE",
"249 111 OFFCURVE",
"243 121 CURVE",
"237 131 OFFCURVE",
"264 132 OFFCURVE",
"255 180 CURVE",
"249 214 OFFCURVE",
"216 292 OFFCURVE",
"200 315 CURVE",
"196 322 OFFCURVE",
"185 323 OFFCURVE",
"181 329 CURVE",
"177 334 OFFCURVE",
"173 345 OFFCURVE",
"176 354 CURVE"
);
}
);
width = 911;
}
);
unicode = 3059;
},
{
glyphname = "zu-hira";
lastChange = "2020-05-01 00:23:07 +0000";
layers = (
{
layerId = "1305C52C-0BD1-483E-A343-C05F3AFF2931";
paths = (
{
closed = 1;
nodes = (
"575 203 OFFCURVE",
"650 260 OFFCURVE",
"649 286 CURVE",
"647 327 OFFCURVE",
"484 578 OFFCURVE",
"484 578 CURVE",
"484 578 OFFCURVE",
"527 568 OFFCURVE",
"603 450 CURVE",
"626 415 OFFCURVE",
"672 348 OFFCURVE",
"694 327 CURVE",
"708 313 OFFCURVE",
"746 309 OFFCURVE",
"747 293 CURVE",
"748 275 OFFCURVE",
"719 245 OFFCURVE",
"686 226 CURVE",
"667 215 OFFCURVE",
"575 203 OFFCURVE",
"575 203 CURVE"
);
},
{
closed = 1;
nodes = (
"24 200 OFFCURVE",
"46 258 OFFCURVE",
"67 286 CURVE",
"80 303 OFFCURVE",
"114 330 OFFCURVE",
"126 329 CURVE",
"146 328 OFFCURVE",
"137 290 OFFCURVE",
"141 275 CURVE",
"148 252 OFFCURVE",
"176 205 OFFCURVE",
"165 196 CURVE",
"157 189 OFFCURVE",
"111 236 OFFCURVE",
"87 235 CURVE",
"57 234 OFFCURVE",
"37 185 OFFCURVE",
"31 192 CURVE"
);
},
{
closed = 1;
nodes = (
"237 112 OFFCURVE",
"259 137 OFFCURVE",
"258 154 CURVE",
"253 215 OFFCURVE",
"181 314 OFFCURVE",
"182 356 CURVE",
"183 382 OFFCURVE",
"212 401 OFFCURVE",
"222 401 CURVE",
"232 400 OFFCURVE",
"235 359 OFFCURVE",
"245 346 CURVE",
"263 322 OFFCURVE",
"301 261 OFFCURVE",
"331 262 CURVE",
"386 263 OFFCURVE",
"371 400 OFFCURVE",
"447 395 CURVE",
"539 388 OFFCURVE",
"564 259 OFFCURVE",
"610 181 CURVE",
"654 107 OFFCURVE",
"724 28 OFFCURVE",
"800 22 CURVE",
"831 20 OFFCURVE",
"894 39 OFFCURVE",
"894 39 CURVE",
"894 39 OFFCURVE",
"850 -1 OFFCURVE",
"781 -2 CURVE",
"727 -3 OFFCURVE",
"641 65 OFFCURVE",
"597 126 CURVE",
"551 190 OFFCURVE",
"475 318 OFFCURVE",
"440 320 CURVE",
"394 321 OFFCURVE",
"377 232 OFFCURVE",
"329 234 CURVE",
"296 236 OFFCURVE",
"235 305 OFFCURVE",
"235 305 CURVE",
"235 305 OFFCURVE",
"256 237 OFFCURVE",
"286 197 CURVE",
"295 185 OFFCURVE",
"323 183 OFFCURVE",
"324 168 CURVE",
"324 153 OFFCURVE",
"306 124 OFFCURVE",
"292 114 CURVE",
"279 104 OFFCURVE",
"247 97 OFFCURVE",
"242 105 CURVE"
);
},
{
closed = 1;
nodes = (
"272 427 OFFCURVE",
"306 452 OFFCURVE",
"305 471 CURVE",
"303 513 OFFCURVE",
"278 525 OFFCURVE",
"278 549 CURVE",
"279 580 OFFCURVE",
"311 610 OFFCURVE",
"342 609 CURVE",
"361 608 OFFCURVE",
"385 582 OFFCURVE",
"385 566 CURVE",
"385 549 OFFCURVE",
"381 527 OFFCURVE",
"372 527 CURVE",
"364 526 OFFCURVE",
"354 563 OFFCURVE",
"331 563 CURVE",
"320 563 OFFCURVE",
"307 552 OFFCURVE",
"307 541 CURVE",
"308 502 OFFCURVE",
"359 483 OFFCURVE",
"359 464 CURVE",
"359 443 OFFCURVE",
"285 414 OFFCURVE",
"279 420 CURVE"
);
}
);
width = 924;
}
);
unicode = 305A;
},
{
glyphname = "se-hira";
lastChange = "2020-05-01 00:23:28 +0000";
layers = (
{
layerId = "1305C52C-0BD1-483E-A343-C05F3AFF2931";
paths = (
{
closed = 1;
nodes = (
"268 83 OFFCURVE",
"320 72 OFFCURVE",
"320 99 CURVE",
"319 121 OFFCURVE",
"282 181 OFFCURVE",
"277 205 CURVE",
"273 222 OFFCURVE",
"281 239 OFFCURVE",
"294 240 CURVE",
"315 242 OFFCURVE",
"364 166 OFFCURVE",
"413 170 CURVE",
"464 173 OFFCURVE",
"461 247 OFFCURVE",
"530 248 CURVE",
"552 249 OFFCURVE",
"574 221 OFFCURVE",
"576 206 CURVE",
"579 188 OFFCURVE",
"572 171 OFFCURVE",
"572 155 CURVE",
"572 45 OFFCURVE",
"700 32 OFFCURVE",
"702 18 CURVE",
"704 4 OFFCURVE",
"622 3 OFFCURVE",
"558 73 CURVE",
"518 118 OFFCURVE",
"540 162 OFFCURVE",
"504 176 CURVE",
"488 183 OFFCURVE",
"451 138 OFFCURVE",
"424 136 CURVE",
"398 133 OFFCURVE",
"344 163 OFFCURVE",
"344 163 CURVE",
"344 163 OFFCURVE",
"353 143 OFFCURVE",
"360 134 CURVE",
"369 123 OFFCURVE",
"403 108 OFFCURVE",
"403 95 CURVE",
"403 70 OFFCURVE",
"376 35 OFFCURVE",
"350 35 CURVE",
"328 36 OFFCURVE",
"278 55 OFFCURVE",
"273 70 CURVE"
);
},
{
closed = 1;
nodes = (
"342 276 OFFCURVE",
"386 326 OFFCURVE",
"410 340 CURVE",
"423 348 OFFCURVE",
"449 353 OFFCURVE",
"455 342 CURVE",
"471 316 OFFCURVE",
"434 233 OFFCURVE",
"424 235 CURVE",
"410 238 OFFCURVE",
"420 265 OFFCURVE",
"403 272 CURVE",
"390 277 OFFCURVE",
"354 256 OFFCURVE",
"347 267 CURVE"
);
},
{
closed = 1;
nodes = (
"118 137 OFFCURVE",
"146 150 OFFCURVE",
"140 158 CURVE",
"131 170 OFFCURVE",
"35 200 OFFCURVE",
"30 282 CURVE",
"28 315 OFFCURVE",
"74 349 OFFCURVE",
"87 348 CURVE",
"128 348 OFFCURVE",
"194 348 OFFCURVE",
"243 347 CURVE",
"310 347 OFFCURVE",
"342 455 OFFCURVE",
"361 521 CURVE",
"380 589 OFFCURVE",
"407 606 OFFCURVE",
"452 605 CURVE",
"491 604 OFFCURVE",
"530 579 OFFCURVE",
"539 518 CURVE",
"547 458 OFFCURVE",
"589 391 OFFCURVE",
"629 349 CURVE",
"683 291 OFFCURVE",
"731 279 OFFCURVE",
"786 278 CURVE",
"816 277 OFFCURVE",
"876 291 OFFCURVE",
"879 284 CURVE",
"882 278 OFFCURVE",
"792 253 OFFCURVE",
"748 254 CURVE",
"672 256 OFFCURVE",
"612 280 OFFCURVE",
"554 340 CURVE",
"489 406 OFFCURVE",
"464 504 OFFCURVE",
"435 503 CURVE",
"399 501 OFFCURVE",
"380 405 OFFCURVE",
"339 362 CURVE",
"322 345 OFFCURVE",
"266 317 OFFCURVE",
"234 317 CURVE",
"192 317 OFFCURVE",
"116 321 OFFCURVE",
"85 321 CURVE",
"71 321 OFFCURVE",
"50 304 OFFCURVE",
"52 279 CURVE",
"54 251 OFFCURVE",
"100 216 OFFCURVE",
"150 215 CURVE",
"176 214 OFFCURVE",
"209 216 OFFCURVE",
"222 208 CURVE",
"232 202 OFFCURVE",
"228 186 OFFCURVE",
"223 173 CURVE",
"218 162 OFFCURVE",
"205 144 OFFCURVE",
"188 134 CURVE",
"172 126 OFFCURVE",
"137 122 OFFCURVE",
"126 131 CURVE"
);
}
);
width = 909;
}
);
unicode = 305B;
},
{
glyphname = "ze-hira";
lastChange = "2020-05-01 00:23:39 +0000";
layers = (
{
layerId = "1305C52C-0BD1-483E-A343-C05F3AFF2931";
paths = (
{
closed = 1;
nodes = (
"285 76 OFFCURVE",
"327 75 OFFCURVE",
"326 101 CURVE",
"326 124 OFFCURVE",
"277 189 OFFCURVE",
"277 213 CURVE",
"277 225 OFFCURVE",
"285 241 OFFCURVE",
"296 241 CURVE",
"313 242 OFFCURVE",
"361 160 OFFCURVE",
"409 162 CURVE",
"458 164 OFFCURVE",
"479 249 OFFCURVE",
"522 248 CURVE",
"546 248 OFFCURVE",
"569 215 OFFCURVE",
"570 198 CURVE",
"572 182 OFFCURVE",
"562 168 OFFCURVE",
"566 150 CURVE",
"595 2 OFFCURVE",
"720 25 OFFCURVE",
"720 25 CURVE",
"720 25 OFFCURVE",
"651 -16 OFFCURVE",
"560 73 CURVE",
"532 101 OFFCURVE",
"533 177 OFFCURVE",
"502 177 CURVE",
"477 176 OFFCURVE",
"447 142 OFFCURVE",
"419 141 CURVE",
"391 140 OFFCURVE",
"334 173 OFFCURVE",
"334 173 CURVE",
"334 173 OFFCURVE",
"346 136 OFFCURVE",
"373 116 CURVE",
"382 109 OFFCURVE",
"400 104 OFFCURVE",
"400 93 CURVE",
"401 79 OFFCURVE",
"367 40 OFFCURVE",
"347 40 CURVE",
"324 40 OFFCURVE",
"285 56 OFFCURVE",
"285 67 CURVE"
);
},
{
closed = 1;
nodes = (
"345 279 OFFCURVE",
"362 290 OFFCURVE",
"377 310 CURVE",
"392 329 OFFCURVE",
"399 354 OFFCURVE",
"431 354 CURVE",
"445 354 OFFCURVE",
"458 337 OFFCURVE",
"459 323 CURVE",
"460 305 OFFCURVE",
"440 245 OFFCURVE",
"427 244 CURVE",
"415 244 OFFCURVE",
"415 270 OFFCURVE",
"401 275 CURVE",
"377 283 OFFCURVE",
"356 258 OFFCURVE",
"349 271 CURVE"
);
},
{
closed = 1;
nodes = (
"123 140 OFFCURVE",
"141 147 OFFCURVE",
"141 156 CURVE",
"140 168 OFFCURVE",
"95 180 OFFCURVE",
"77 197 CURVE",
"56 216 OFFCURVE",
"30 256 OFFCURVE",
"30 284 CURVE",
"29 313 OFFCURVE",
"37 348 OFFCURVE",
"138 346 CURVE",
"291 344 OFFCURVE",
"272 355 OFFCURVE",
"297 378 CURVE",
"348 424 OFFCURVE",
"343 620 OFFCURVE",
"447 615 CURVE",
"531 612 OFFCURVE",
"528 514 OFFCURVE",
"565 427 CURVE",
"594 362 OFFCURVE",
"658 282 OFFCURVE",
"766 278 CURVE",
"805 277 OFFCURVE",
"881 294 OFFCURVE",
"881 294 CURVE",
"881 294 OFFCURVE",
"780 254 OFFCURVE",
"727 256 CURVE",
"547 260 OFFCURVE",
"461 513 OFFCURVE",
"434 513 CURVE",
"404 513 OFFCURVE",
"393 475 OFFCURVE",
"376 434 CURVE",
"352 379 OFFCURVE",
"316 315 OFFCURVE",
"205 319 CURVE",
"131 321 OFFCURVE",
"49 328 OFFCURVE",
"49 294 CURVE",
"49 274 OFFCURVE",
"70 211 OFFCURVE",
"151 212 CURVE",
"175 212 OFFCURVE",
"214 225 OFFCURVE",
"221 206 CURVE",
"231 183 OFFCURVE",
"202 152 OFFCURVE",
"187 140 CURVE",
"173 129 OFFCURVE",
"130 127 OFFCURVE",
"126 133 CURVE"
);
},
{
closed = 1;
nodes = (
"171 434 OFFCURVE",
"207 459 OFFCURVE",
"207 479 CURVE",
"206 509 OFFCURVE",
"177 536 OFFCURVE",
"176 560 CURVE",
"176 587 OFFCURVE",
"218 616 OFFCURVE",
"241 615 CURVE",
"260 615 OFFCURVE",
"288 597 OFFCURVE",
"288 565 CURVE",
"289 548 OFFCURVE",
"284 527 OFFCURVE",
"275 528 CURVE",
"266 529 OFFCURVE",
"247 572 OFFCURVE",
"235 572 CURVE",
"223 571 OFFCURVE",
"207 560 OFFCURVE",
"207 545 CURVE",
"206 515 OFFCURVE",
"262 489 OFFCURVE",
"261 470 CURVE",
"260 449 OFFCURVE",
"184 417 OFFCURVE",
"178 425 CURVE"
);
}
);
width = 911;
}
);
unicode = 305C;
},
{
glyphname = "so-hira";
lastChange = "2020-05-01 00:23:47 +0000";
layers = (
{
layerId = "1305C52C-0BD1-483E-A343-C05F3AFF2931";
paths = (
{
closed = 1;
nodes = (
"27 292 OFFCURVE",
"29 320 OFFCURVE",
"34 336 CURVE",
"40 354 OFFCURVE",
"56 387 OFFCURVE",
"70 389 CURVE",
"113 396 OFFCURVE",
"122 361 OFFCURVE",
"131 353 CURVE",
"161 329 OFFCURVE",
"227 233 OFFCURVE",
"251 233 CURVE",
"273 233 OFFCURVE",
"246 298 OFFCURVE",
"300 333 CURVE",
"331 354 OFFCURVE",
"379 373 OFFCURVE",
"421 374 CURVE",
"469 375 OFFCURVE",
"531 358 OFFCURVE",
"579 358 CURVE",
"680 357 OFFCURVE",
"806 417 OFFCURVE",
"808 522 CURVE",
"809 614 OFFCURVE",
"747 675 OFFCURVE",
"757 681 CURVE",
"766 686 OFFCURVE",
"866 584 OFFCURVE",
"870 543 CURVE",
"887 370 OFFCURVE",
"769 303 OFFCURVE",
"633 294 CURVE",
"563 289 OFFCURVE",
"480 321 OFFCURVE",
"424 322 CURVE",
"355 323 OFFCURVE",
"297 303 OFFCURVE",
"296 233 CURVE",
"295 176 OFFCURVE",
"381 187 OFFCURVE",
"372 134 CURVE",
"366 103 OFFCURVE",
"320 127 OFFCURVE",
"297 142 CURVE",
"280 154 OFFCURVE",
"277 180 OFFCURVE",
"211 232 CURVE",
"179 258 OFFCURVE",
"131 296 OFFCURVE",
"104 298 CURVE",
"77 300 OFFCURVE",
"65 271 OFFCURVE",
"39 285 CURVE"
);
},
{
closed = 1;
nodes = (
"368 64 OFFCURVE",
"419 53 OFFCURVE",
"418 83 CURVE",
"417 105 OFFCURVE",
"376 164 OFFCURVE",
"375 187 CURVE",
"374 208 OFFCURVE",
"385 223 OFFCURVE",
"400 223 CURVE",
"408 223 OFFCURVE",
"460 141 OFFCURVE",
"504 144 CURVE",
"532 146 OFFCURVE",
"547 229 OFFCURVE",
"606 229 CURVE",
"629 229 OFFCURVE",
"648 192 OFFCURVE",
"648 175 CURVE",
"648 103 OFFCURVE",
"650 81 OFFCURVE",
"709 39 CURVE",
"768 -3 OFFCURVE",
"796 12 OFFCURVE",
"798 -1 CURVE",
"800 -15 OFFCURVE",
"732 -12 OFFCURVE",
"653 47 CURVE",
"620 71 OFFCURVE",
"605 149 OFFCURVE",
"587 151 CURVE",
"546 154 OFFCURVE",
"540 115 OFFCURVE",
"516 113 CURVE",
"493 112 OFFCURVE",
"448 145 OFFCURVE",
"444 138 CURVE",
"432 118 OFFCURVE",
"492 91 OFFCURVE",
"492 69 CURVE",
"492 48 OFFCURVE",
"459 18 OFFCURVE",
"438 18 CURVE",
"415 18 OFFCURVE",
"368 36 OFFCURVE",
"368 50 CURVE"
);
}
);
width = 902;
}
);
unicode = 305D;
},
{
glyphname = "zo-hira";
lastChange = "2020-05-01 00:24:00 +0000";
layers = (
{
layerId = "1305C52C-0BD1-483E-A343-C05F3AFF2931";
paths = (
{
closed = 1;
nodes = (
"378 36 LINE",
"379 46 OFFCURVE",
"423 47 OFFCURVE",
"421 72 CURVE",
"419 95 OFFCURVE",
"376 158 OFFCURVE",
"376 180 CURVE",
"376 194 OFFCURVE",
"381 204 OFFCURVE",
"393 204 CURVE",
"413 205 OFFCURVE",
"442 127 OFFCURVE",
"505 128 CURVE",
"543 129 OFFCURVE",
"548 220 OFFCURVE",
"607 219 CURVE",
"636 219 OFFCURVE",
"645 177 OFFCURVE",
"646 156 CURVE",
"650 8 OFFCURVE",
"787 -15 OFFCURVE",
"787 -15 CURVE",
"787 -15 OFFCURVE",
"698 -18 OFFCURVE",
"645 43 CURVE",
"618 74 OFFCURVE",
"601 143 OFFCURVE",
"582 143 CURVE",
"555 143 OFFCURVE",
"538 103 OFFCURVE",
"514 102 CURVE",
"489 101 OFFCURVE",
"433 135 OFFCURVE",
"433 135 CURVE",
"433 135 OFFCURVE",
"446 103 OFFCURVE",
"461 88 CURVE",
"469 79 OFFCURVE",
"490 74 OFFCURVE",
"490 64 CURVE",
"490 42 OFFCURVE",
"462 3 OFFCURVE",
"442 2 CURVE",
"423 2 OFFCURVE",
"376 24 OFFCURVE",
"378 36 CURVE"
);
},
{
closed = 1;
nodes = (
"31 276 LINE",
"26 290 OFFCURVE",
"42 330 OFFCURVE",
"52 348 CURVE",
"61 365 OFFCURVE",
"72 386 OFFCURVE",
"91 384 CURVE",
"118 380 OFFCURVE",
"116 341 OFFCURVE",
"185 279 CURVE",
"211 257 OFFCURVE",
"266 218 OFFCURVE",
"266 218 CURVE",
"266 218 OFFCURVE",
"258 287 OFFCURVE",
"296 321 CURVE",
"325 346 OFFCURVE",
"367 374 OFFCURVE",
"486 358 CURVE",
"753 322 OFFCURVE",
"799 462 OFFCURVE",
"803 484 CURVE",
"821 587 OFFCURVE",
"755 676 OFFCURVE",
"755 676 CURVE",
"755 676 OFFCURVE",
"871 579 OFFCURVE",
"869 491 CURVE",
"866 374 OFFCURVE",
"759 281 OFFCURVE",
"652 285 CURVE",
"574 287 OFFCURVE",
"475 312 OFFCURVE",
"418 314 CURVE",
"327 317 OFFCURVE",
"301 269 OFFCURVE",
"296 239 CURVE",
"287 178 OFFCURVE",
"363 153 OFFCURVE",
"364 131 CURVE",
"364 123 OFFCURVE",
"351 116 OFFCURVE",
"343 116 CURVE",
"302 114 OFFCURVE",
"276 166 OFFCURVE",
"276 166 CURVE",
"276 166 OFFCURVE",
"227 212 OFFCURVE",
"200 233 CURVE",
"172 255 OFFCURVE",
"128 295 OFFCURVE",
"107 296 CURVE",
"81 296 OFFCURVE",
"83 280 OFFCURVE",
"70 277 CURVE",
"58 274 OFFCURVE",
"35 265 OFFCURVE",
"31 276 CURVE"
);
},
{
closed = 1;
nodes = (
"201 338 LINE",
"197 346 OFFCURVE",
"230 366 OFFCURVE",
"230 388 CURVE",
"231 409 OFFCURVE",
"199 443 OFFCURVE",
"199 467 CURVE",
"200 493 OFFCURVE",
"238 531 OFFCURVE",
"269 532 CURVE",
"291 532 OFFCURVE",
"313 494 OFFCURVE",
"314 478 CURVE",
"314 463 OFFCURVE",
"305 440 OFFCURVE",
"295 440 CURVE",
"282 440 OFFCURVE",
"270 480 OFFCURVE",
"256 480 CURVE",
"246 480 OFFCURVE",
"232 472 OFFCURVE",
"233 457 CURVE",
"233 421 OFFCURVE",
"287 400 OFFCURVE",
"287 379 CURVE",
"287 351 OFFCURVE",
"205 329 OFFCURVE",
"201 338 CURVE"
);
}
);
width = 899;
}
);
unicode = 305E;
},
{
glyphname = "ta-hira";
lastChange = "2020-05-01 00:24:11 +0000";
layers = (
{
layerId = "1305C52C-0BD1-483E-A343-C05F3AFF2931";
paths = (
{
closed = 1;
nodes = (
"19 236 OFFCURVE",
"85 343 OFFCURVE",
"107 367 CURVE",
"119 381 OFFCURVE",
"140 384 OFFCURVE",
"151 380 CURVE",
"171 373 OFFCURVE",
"162 347 OFFCURVE",
"174 340 CURVE",
"191 329 OFFCURVE",
"245 321 OFFCURVE",
"273 320 CURVE",
"328 318 OFFCURVE",
"518 314 OFFCURVE",
"518 314 CURVE",
"518 314 OFFCURVE",
"464 390 OFFCURVE",
"436 421 CURVE",
"394 469 OFFCURVE",
"368 479 OFFCURVE",
"341 489 CURVE",
"313 500 OFFCURVE",
"287 471 OFFCURVE",
"276 481 CURVE",
"262 493 OFFCURVE",
"282 544 OFFCURVE",
"296 566 CURVE",
"309 585 OFFCURVE",
"340 603 OFFCURVE",
"358 602 CURVE",
"408 598 OFFCURVE",
"396 558 OFFCURVE",
"405 537 CURVE",
"419 507 OFFCURVE",
"445 476 OFFCURVE",
"473 445 CURVE",
"521 391 OFFCURVE",
"553 315 OFFCURVE",
"553 315 CURVE",
"553 315 OFFCURVE",
"764 316 OFFCURVE",
"814 315 CURVE",
"821 315 OFFCURVE",
"831 326 OFFCURVE",
"845 325 CURVE",
"849 325 OFFCURVE",
"887 327 OFFCURVE",
"888 317 CURVE",
"890 306 OFFCURVE",
"871 277 OFFCURVE",
"858 268 CURVE",
"846 259 OFFCURVE",
"821 261 OFFCURVE",
"809 262 CURVE",
"799 263 OFFCURVE",
"792 277 OFFCURVE",
"783 277 CURVE",
"741 278 OFFCURVE",
"564 283 OFFCURVE",
"564 283 CURVE",
"564 283 OFFCURVE",
"582 243 OFFCURVE",
"589 224 CURVE",
"596 204 OFFCURVE",
"615 159 OFFCURVE",
"606 159 CURVE",
"599 158 OFFCURVE",
"586 191 OFFCURVE",
"569 223 CURVE",
"554 252 OFFCURVE",
"533 283 OFFCURVE",
"533 283 CURVE",
"479 283 LINE",
"479 283 OFFCURVE",
"482 268 OFFCURVE",
"485 265 CURVE",
"490 260 OFFCURVE",
"491 254 OFFCURVE",
"492 241 CURVE",
"496 209 OFFCURVE",
"489 173 OFFCURVE",
"503 168 CURVE",
"530 157 OFFCURVE",
"549 157 OFFCURVE",
"609 115 CURVE",
"643 91 OFFCURVE",
"709 38 OFFCURVE",
"708 34 CURVE",
"706 29 OFFCURVE",
"633 78 OFFCURVE",
"602 94 CURVE",
"575 108 OFFCURVE",
"509 133 OFFCURVE",
"509 133 CURVE",
"509 133 OFFCURVE",
"527 88 OFFCURVE",
"535 72 CURVE",
"543 53 OFFCURVE",
"566 33 OFFCURVE",
"568 21 CURVE",
"570 11 OFFCURVE",
"552 4 OFFCURVE",
"542 5 CURVE",
"510 6 OFFCURVE",
"506 23 OFFCURVE",
"495 29 CURVE",
"467 43 OFFCURVE",
"378 84 OFFCURVE",
"378 91 CURVE",
"379 98 OFFCURVE",
"423 88 OFFCURVE",
"442 85 CURVE",
"457 82 OFFCURVE",
"485 70 OFFCURVE",
"485 70 CURVE",
"442 141 LINE",
"442 141 OFFCURVE",
"393 141 OFFCURVE",
"364 136 CURVE",
"336 132 OFFCURVE",
"299 93 OFFCURVE",
"281 88 CURVE",
"263 84 OFFCURVE",
"239 90 OFFCURVE",
"239 106 CURVE",
"239 125 OFFCURVE",
"267 185 OFFCURVE",
"284 203 CURVE",
"296 216 OFFCURVE",
"324 211 OFFCURVE",
"335 208 CURVE",
"340 207 OFFCURVE",
"345 191 OFFCURVE",
"351 191 CURVE",
"365 190 OFFCURVE",
"422 191 OFFCURVE",
"422 191 CURVE",
"422 191 OFFCURVE",
"410 216 OFFCURVE",
"413 235 CURVE",
"415 252 OFFCURVE",
"452 283 OFFCURVE",
"452 283 CURVE",
"452 283 OFFCURVE",
"246 282 OFFCURVE",
"177 279 CURVE",
"138 278 OFFCURVE",
"135 265 OFFCURVE",
"111 250 CURVE",
"94 238 OFFCURVE",
"70 237 OFFCURVE",
"60 218 CURVE",
"56 210 OFFCURVE",
"37 210 OFFCURVE",
"32 218 CURVE"
);
}
);
width = 918;
}
);
unicode = 305F;
},
{
glyphname = "da-hira";
lastChange = "2020-05-01 00:24:22 +0000";
layers = (
{
layerId = "1305C52C-0BD1-483E-A343-C05F3AFF2931";
paths = (
{
closed = 1;
nodes = (
"384 93 LINE",
"384 93 OFFCURVE",
"428 82 OFFCURVE",
"446 77 CURVE",
"463 73 OFFCURVE",
"496 65 OFFCURVE",
"496 65 CURVE",
"496 65 OFFCURVE",
"481 101 OFFCURVE",
"468 121 CURVE",
"454 146 OFFCURVE",
"411 186 OFFCURVE",
"410 213 CURVE",
"410 240 OFFCURVE",
"435 283 OFFCURVE",
"461 283 CURVE",
"476 283 OFFCURVE",
"491 253 OFFCURVE",
"492 242 CURVE",
"492 230 OFFCURVE",
"486 212 OFFCURVE",
"486 201 CURVE",
"487 175 OFFCURVE",
"527 80 OFFCURVE",
"544 55 CURVE",
"551 46 OFFCURVE",
"564 36 OFFCURVE",
"564 28 CURVE",
"565 19 OFFCURVE",
"554 4 OFFCURVE",
"544 4 CURVE",
"516 3 OFFCURVE",
"513 25 OFFCURVE",
"497 33 CURVE",
"479 43 OFFCURVE",
"384 93 OFFCURVE",
"384 93 CURVE"
);
},
{
closed = 1;
nodes = (
"254 97 LINE",
"239 119 OFFCURVE",
"263 157 OFFCURVE",
"272 176 CURVE",
"280 192 OFFCURVE",
"297 212 OFFCURVE",
"312 212 CURVE",
"325 212 OFFCURVE",
"336 195 OFFCURVE",
"351 193 CURVE",
"386 188 OFFCURVE",
"483 175 OFFCURVE",
"536 153 CURVE",
"593 128 OFFCURVE",
"695 44 OFFCURVE",
"695 44 CURVE",
"695 44 OFFCURVE",
"564 120 OFFCURVE",
"508 134 CURVE",
"463 146 OFFCURVE",
"402 146 OFFCURVE",
"366 144 CURVE",
"342 143 OFFCURVE",
"310 104 OFFCURVE",
"292 96 CURVE",
"282 91 OFFCURVE",
"260 88 OFFCURVE",
"254 97 CURVE"
);
},
{
closed = 1;
nodes = (
"30 225 LINE",
"27 230 OFFCURVE",
"42 244 OFFCURVE",
"47 254 CURVE",
"56 273 OFFCURVE",
"75 316 OFFCURVE",
"90 337 CURVE",
"102 354 OFFCURVE",
"126 379 OFFCURVE",
"140 378 CURVE",
"153 378 OFFCURVE",
"161 353 OFFCURVE",
"174 344 CURVE",
"196 327 OFFCURVE",
"235 318 OFFCURVE",
"279 317 CURVE",
"385 316 OFFCURVE",
"713 315 OFFCURVE",
"808 317 CURVE",
"821 318 OFFCURVE",
"833 328 OFFCURVE",
"847 329 CURVE",
"861 330 OFFCURVE",
"892 330 OFFCURVE",
"891 318 CURVE",
"891 307 OFFCURVE",
"858 269 OFFCURVE",
"828 268 CURVE",
"811 267 OFFCURVE",
"787 281 OFFCURVE",
"769 282 CURVE",
"667 285 OFFCURVE",
"317 288 OFFCURVE",
"211 287 CURVE",
"119 286 OFFCURVE",
"94 237 OFFCURVE",
"65 225 CURVE",
"56 221 OFFCURVE",
"32 220 OFFCURVE",
"30 225 CURVE"
);
},
{
closed = 1;
nodes = (
"269 483 LINE",
"263 495 OFFCURVE",
"289 546 OFFCURVE",
"309 572 CURVE",
"324 591 OFFCURVE",
"347 606 OFFCURVE",
"365 604 CURVE",
"392 602 OFFCURVE",
"395 555 OFFCURVE",
"409 530 CURVE",
"439 479 OFFCURVE",
"481 438 OFFCURVE",
"511 386 CURVE",
"590 251 OFFCURVE",
"597 171 OFFCURVE",
"597 171 CURVE",
"597 171 OFFCURVE",
"533 297 OFFCURVE",
"488 355 CURVE",
"445 412 OFFCURVE",
"368 495 OFFCURVE",
"323 496 CURVE",
"304 497 OFFCURVE",
"276 473 OFFCURVE",
"269 483 CURVE"
);
},
{
closed = 1;
nodes = (
"151 418 LINE",
"145 427 OFFCURVE",
"180 447 OFFCURVE",
"179 465 CURVE",
"178 486 OFFCURVE",
"146 523 OFFCURVE",
"146 548 CURVE",
"146 575 OFFCURVE",
"193 606 OFFCURVE",
"218 605 CURVE",
"237 605 OFFCURVE",
"260 580 OFFCURVE",
"260 565 CURVE",
"260 548 OFFCURVE",
"254 520 OFFCURVE",
"245 520 CURVE",
"234 521 OFFCURVE",
"215 559 OFFCURVE",
"202 559 CURVE",
"191 559 OFFCURVE",
"179 547 OFFCURVE",
"179 534 CURVE",
"180 508 OFFCURVE",
"232 471 OFFCURVE",
"232 459 CURVE",
"232 431 OFFCURVE",
"155 410 OFFCURVE",
"151 418 CURVE"
);
}
);
width = 921;
}
);
unicode = 3060;
},
{
glyphname = "ti-hira";
lastChange = "2020-05-01 00:24:33 +0000";
layers = (
{
layerId = "1305C52C-0BD1-483E-A343-C05F3AFF2931";
paths = (
{
closed = 1;
nodes = (
"725 -45 OFFCURVE",
"685 23 OFFCURVE",
"656 50 CURVE SMOOTH",
"575 126 OFFCURVE",
"489 129 OFFCURVE",
"489 129 CURVE SMOOTH",
"489 129 OFFCURVE",
"503 94 OFFCURVE",
"511 79 CURVE",
"518 68 OFFCURVE",
"533 62 OFFCURVE",
"538 50 CURVE SMOOTH",
"544 35 OFFCURVE",
"552 5 OFFCURVE",
"541 -3 CURVE",
"502 -34 OFFCURVE",
"422 24 OFFCURVE",
"383 44 CURVE SMOOTH",
"352 60 OFFCURVE",
"289 110 OFFCURVE",
"289 110 CURVE SMOOTH",
"289 110 OFFCURVE",
"231 100 OFFCURVE",
"225 115 CURVE",
"214 151 OFFCURVE",
"241 157 OFFCURVE",
"250 181 CURVE",
"259 201 OFFCURVE",
"281 233 OFFCURVE",
"297 232 CURVE",
"321 229 OFFCURVE",
"331 197 OFFCURVE",
"351 195 CURVE SMOOTH",
"371 193 OFFCURVE",
"410 191 OFFCURVE",
"410 191 CURVE",
"373 260 LINE",
"373 260 OFFCURVE",
"282 260 OFFCURVE",
"237 267 CURVE SMOOTH",
"194 274 OFFCURVE",
"149 289 OFFCURVE",
"116 296 CURVE SMOOTH",
"81 303 OFFCURVE",
"52 271 OFFCURVE",
"37 281 CURVE SMOOTH",
"4 303 OFFCURVE",
"92 397 OFFCURVE",
"119 417 CURVE SMOOTH",
"134 428 OFFCURVE",
"165 426 OFFCURVE",
"174 418 CURVE SMOOTH",
"183 410 OFFCURVE",
"168 362 OFFCURVE",
"178 346 CURVE",
"191 328 OFFCURVE",
"224 314 OFFCURVE",
"251 307 CURVE SMOOTH",
"280 300 OFFCURVE",
"350 301 OFFCURVE",
"350 301 CURVE SMOOTH",
"350 301 OFFCURVE",
"317 361 OFFCURVE",
"298 372 CURVE SMOOTH",
"281 382 OFFCURVE",
"246 343 OFFCURVE",
"231 366 CURVE",
"221 380 OFFCURVE",
"277 453 OFFCURVE",
"296 473 CURVE SMOOTH",
"308 486 OFFCURVE",
"345 488 OFFCURVE",
"365 479 CURVE SMOOTH",
"384 470 OFFCURVE",
"387 441 OFFCURVE",
"382 431 CURVE SMOOTH",
"375 417 OFFCURVE",
"360 407 OFFCURVE",
"367 390 CURVE",
"374 371 OFFCURVE",
"402 310 OFFCURVE",
"402 310 CURVE SMOOTH",
"402 310 OFFCURVE",
"502 295 OFFCURVE",
"596 386 CURVE SMOOTH",
"630 419 OFFCURVE",
"688 513 OFFCURVE",
"698 559 CURVE SMOOTH",
"705 590 OFFCURVE",
"704 647 OFFCURVE",
"704 647 CURVE SMOOTH",
"704 647 OFFCURVE",
"736 611 OFFCURVE",
"742 593 CURVE SMOOTH",
"750 570 OFFCURVE",
"752 534 OFFCURVE",
"746 501 CURVE SMOOTH",
"737 449 OFFCURVE",
"668 378 OFFCURVE",
"617 337 CURVE SMOOTH",
"542 277 OFFCURVE",
"426 267 OFFCURVE",
"426 267 CURVE",
"464 180 LINE",
"464 180 OFFCURVE",
"553 174 OFFCURVE",
"626 129 CURVE SMOOTH",
"673 100 OFFCURVE",
"726 49 OFFCURVE",
"732 1 CURVE SMOOTH",
"734 -14 OFFCURVE",
"725 -45 OFFCURVE",
"725 -45 CURVE SMOOTH"
);
},
{
closed = 1;
nodes = (
"475 62 OFFCURVE",
"431 143 OFFCURVE",
"431 143 CURVE SMOOTH",
"431 143 OFFCURVE",
"367 145 OFFCURVE",
"339 143 CURVE SMOOTH",
"326 142 OFFCURVE",
"307 139 OFFCURVE",
"306 127 CURVE",
"304 113 OFFCURVE",
"451 32 OFFCURVE",
"464 47 CURVE"
);
}
);
width = 779;
}
);
unicode = 3061;
},
{
glyphname = "di-hira";
lastChange = "2020-05-01 00:24:51 +0000";
layers = (
{
layerId = "1305C52C-0BD1-483E-A343-C05F3AFF2931";
paths = (
{
closed = 1;
nodes = (
"264 139 LINE",
"264 139 OFFCURVE",
"365 93 OFFCURVE",
"393 77 CURVE",
"413 66 OFFCURVE",
"461 41 OFFCURVE",
"461 64 CURVE",
"462 89 OFFCURVE",
"424 177 OFFCURVE",
"396 230 CURVE",
"367 284 OFFCURVE",
"318 363 OFFCURVE",
"293 382 CURVE",
"280 392 OFFCURVE",
"256 363 OFFCURVE",
"245 363 CURVE",
"236 363 OFFCURVE",
"226 370 OFFCURVE",
"229 378 CURVE",
"240 402 OFFCURVE",
"286 471 OFFCURVE",
"311 487 CURVE",
"327 497 OFFCURVE",
"370 490 OFFCURVE",
"379 477 CURVE",
"387 463 OFFCURVE",
"356 412 OFFCURVE",
"362 392 CURVE",
"372 353 OFFCURVE",
"482 141 OFFCURVE",
"512 83 CURVE",
"519 71 OFFCURVE",
"536 60 OFFCURVE",
"541 47 CURVE",
"545 33 OFFCURVE",
"542 11 OFFCURVE",
"535 2 CURVE",
"502 -44 OFFCURVE",
"264 139 OFFCURVE",
"264 139 CURVE"
);
},
{
closed = 1;
nodes = (
"230 126 LINE",
"224 145 OFFCURVE",
"266 220 OFFCURVE",
"289 235 CURVE",
"305 244 OFFCURVE",
"322 208 OFFCURVE",
"347 204 CURVE",
"392 197 OFFCURVE",
"511 192 OFFCURVE",
"574 160 CURVE",
"639 127 OFFCURVE",
"730 62 OFFCURVE",
"738 4 CURVE",
"741 -21 OFFCURVE",
"724 -37 OFFCURVE",
"724 -37 CURVE",
"724 -37 OFFCURVE",
"688 40 OFFCURVE",
"627 85 CURVE",
"540 149 OFFCURVE",
"416 153 OFFCURVE",
"357 158 CURVE",
"328 161 OFFCURVE",
"294 122 OFFCURVE",
"273 117 CURVE",
"259 113 OFFCURVE",
"235 109 OFFCURVE",
"230 126 CURVE"
);
},
{
closed = 1;
nodes = (
"31 293 LINE",
"28 302 OFFCURVE",
"35 327 OFFCURVE",
"44 340 CURVE",
"59 363 OFFCURVE",
"100 421 OFFCURVE",
"123 433 CURVE",
"132 439 OFFCURVE",
"160 430 OFFCURVE",
"171 416 CURVE",
"183 400 OFFCURVE",
"166 362 OFFCURVE",
"181 349 CURVE",
"239 300 OFFCURVE",
"313 313 OFFCURVE",
"380 311 CURVE",
"606 304 OFFCURVE",
"688 530 OFFCURVE",
"699 574 CURVE",
"706 598 OFFCURVE",
"703 651 OFFCURVE",
"703 651 CURVE",
"703 651 OFFCURVE",
"762 632 OFFCURVE",
"745 527 CURVE",
"715 350 OFFCURVE",
"512 283 OFFCURVE",
"404 275 CURVE",
"215 261 OFFCURVE",
"174 293 OFFCURVE",
"126 306 CURVE",
"89 316 OFFCURVE",
"82 293 OFFCURVE",
"67 291 CURVE",
"55 289 OFFCURVE",
"35 285 OFFCURVE",
"31 293 CURVE"
);
},
{
closed = 1;
nodes = (
"171 443 LINE",
"171 457 OFFCURVE",
"200 471 OFFCURVE",
"200 490 CURVE",
"199 510 OFFCURVE",
"171 547 OFFCURVE",
"167 571 CURVE",
"163 601 OFFCURVE",
"200 629 OFFCURVE",
"235 627 CURVE",
"253 626 OFFCURVE",
"279 601 OFFCURVE",
"280 587 CURVE",
"282 572 OFFCURVE",
"276 544 OFFCURVE",
"267 545 CURVE",
"248 547 OFFCURVE",
"233 582 OFFCURVE",
"222 582 CURVE",
"209 582 OFFCURVE",
"198 567 OFFCURVE",
"198 558 CURVE",
"199 540 OFFCURVE",
"254 496 OFFCURVE",
"252 477 CURVE",
"249 451 OFFCURVE",
"172 433 OFFCURVE",
"171 443 CURVE"
);
}
);
width = 778;
}
);
unicode = 3062;
},
{
glyphname = "tu-hira";
lastChange = "2020-05-01 00:25:03 +0000";
layers = (
{
layerId = "1305C52C-0BD1-483E-A343-C05F3AFF2931";
paths = (
{
closed = 1;
nodes = (
"482 43 OFFCURVE",
"443 72 OFFCURVE",
"414 96 CURVE SMOOTH",
"362 139 OFFCURVE",
"252 255 OFFCURVE",
"205 302 CURVE SMOOTH",
"178 329 OFFCURVE",
"128 359 OFFCURVE",
"102 358 CURVE SMOOTH",
"78 357 OFFCURVE",
"41 331 OFFCURVE",
"31 343 CURVE",
"24 354 OFFCURVE",
"59 411 OFFCURVE",
"81 426 CURVE SMOOTH",
"103 441 OFFCURVE",
"149 441 OFFCURVE",
"170 429 CURVE SMOOTH",
"222 399 OFFCURVE",
"259 314 OFFCURVE",
"282 307 CURVE SMOOTH",
"292 304 OFFCURVE",
"299 341 OFFCURVE",
"328 343 CURVE SMOOTH",
"358 345 OFFCURVE",
"352 322 OFFCURVE",
"375 322 CURVE SMOOTH",
"395 322 OFFCURVE",
"437 322 OFFCURVE",
"437 321 CURVE SMOOTH",
"437 321 OFFCURVE",
"415 375 OFFCURVE",
"421 436 CURVE SMOOTH",
"430 529 OFFCURVE",
"494 562 OFFCURVE",
"518 562 CURVE SMOOTH",
"578 562 OFFCURVE",
"608 491 OFFCURVE",
"608 454 CURVE SMOOTH",
"608 407 OFFCURVE",
"598 368 OFFCURVE",
"588 369 CURVE SMOOTH",
"573 370 OFFCURVE",
"580 466 OFFCURVE",
"524 467 CURVE SMOOTH",
"477 468 OFFCURVE",
"458 426 OFFCURVE",
"460 380 CURVE SMOOTH",
"461 359 OFFCURVE",
"474 322 OFFCURVE",
"474 322 CURVE SMOOTH",
"474 322 OFFCURVE",
"702 326 OFFCURVE",
"766 326 CURVE SMOOTH",
"794 326 OFFCURVE",
"823 348 OFFCURVE",
"848 348 CURVE SMOOTH",
"868 348 OFFCURVE",
"893 325 OFFCURVE",
"894 311 CURVE",
"894 282 OFFCURVE",
"846 265 OFFCURVE",
"823 265 CURVE SMOOTH",
"809 265 OFFCURVE",
"790 278 OFFCURVE",
"775 278 CURVE",
"719 280 OFFCURVE",
"488 281 OFFCURVE",
"488 281 CURVE SMOOTH",
"488 281 OFFCURVE",
"512 245 OFFCURVE",
"526 231 CURVE",
"551 208 OFFCURVE",
"619 167 OFFCURVE",
"619 114 CURVE SMOOTH",
"619 69 OFFCURVE",
"592 43 OFFCURVE",
"516 43 CURVE SMOOTH"
);
},
{
closed = 1;
nodes = (
"504 82 OFFCURVE",
"554 94 OFFCURVE",
"555 127 CURVE SMOOTH",
"556 151 OFFCURVE",
"512 182 OFFCURVE",
"491 205 CURVE SMOOTH",
"468 231 OFFCURVE",
"445 281 OFFCURVE",
"445 282 CURVE SMOOTH",
"445 282 OFFCURVE",
"320 281 OFFCURVE",
"314 266 CURVE",
"305 246 OFFCURVE",
"403 141 OFFCURVE",
"461 107 CURVE SMOOTH"
);
}
);
width = 924;
}
);
unicode = 3064;
},
{
glyphname = "tusmall-hira";
lastChange = "2020-04-30 23:38:00 +0000";
layers = (
{
layerId = "1305C52C-0BD1-483E-A343-C05F3AFF2931";
paths = (
{
closed = 1;
nodes = (
"167 299 OFFCURVE",
"104 384 OFFCURVE",
"71 402 CURVE SMOOTH",
"60 408 OFFCURVE",
"32 395 OFFCURVE",
"30 404 CURVE SMOOTH",
"28 412 OFFCURVE",
"45 445 OFFCURVE",
"53 457 CURVE SMOOTH",
"59 466 OFFCURVE",
"75 472 OFFCURVE",
"84 472 CURVE SMOOTH",
"99 472 OFFCURVE",
"106 443 OFFCURVE",
"106 427 CURVE SMOOTH",
"106 384 OFFCURVE",
"173 330 OFFCURVE",
"203 330 CURVE SMOOTH",
"209 330 OFFCURVE",
"220 335 OFFCURVE",
"220 339 CURVE SMOOTH",
"220 343 OFFCURVE",
"208 350 OFFCURVE",
"203 356 CURVE SMOOTH",
"187 375 OFFCURVE",
"147 419 OFFCURVE",
"147 453 CURVE SMOOTH",
"147 495 OFFCURVE",
"171 554 OFFCURVE",
"237 554 CURVE SMOOTH",
"295 554 OFFCURVE",
"320 461 OFFCURVE",
"320 461 CURVE",
"320 461 OFFCURVE",
"411 463 OFFCURVE",
"437 463 CURVE SMOOTH",
"447 463 OFFCURVE",
"460 470 OFFCURVE",
"471 470 CURVE SMOOTH",
"483 470 OFFCURVE",
"514 462 OFFCURVE",
"514 454 CURVE SMOOTH",
"514 446 OFFCURVE",
"479 426 OFFCURVE",
"463 426 CURVE SMOOTH",
"449 426 OFFCURVE",
"431 437 OFFCURVE",
"418 437 CURVE SMOOTH",
"394 437 OFFCURVE",
"324 438 OFFCURVE",
"324 438 CURVE",
"324 438 OFFCURVE",
"332 379 OFFCURVE",
"278 380 CURVE SMOOTH",
"230 381 OFFCURVE",
"218 417 OFFCURVE",
"218 431 CURVE SMOOTH",
"218 463 OFFCURVE",
"282 462 OFFCURVE",
"282 462 CURVE",
"282 462 OFFCURVE",
"263 517 OFFCURVE",
"231 515 CURVE SMOOTH",
"212 514 OFFCURVE",
"167 493 OFFCURVE",
"168 437 CURVE SMOOTH",
"169 393 OFFCURVE",
"216 377 OFFCURVE",
"239 371 CURVE SMOOTH",
"257 366 OFFCURVE",
"281 341 OFFCURVE",
"281 329 CURVE SMOOTH",
"281 318 OFFCURVE",
"248 304 OFFCURVE",
"231 303 CURVE SMOOTH"
);
},
{
closed = 1;
nodes = (
"298 417 OFFCURVE",
"288 438 OFFCURVE",
"288 438 CURVE",
"288 438 OFFCURVE",
"266 438 OFFCURVE",
"259 437 CURVE SMOOTH",
"254 436 OFFCURVE",
"249 433 OFFCURVE",
"249 427 CURVE SMOOTH",
"249 419 OFFCURVE",
"261 417 OFFCURVE",
"267 417 CURVE SMOOTH"
);
}
);
width = 544;
}
);
unicode = 3063;
},
{
glyphname = "du-hira";
lastChange = "2020-05-01 00:25:24 +0000";
layers = (
{
layerId = "1305C52C-0BD1-483E-A343-C05F3AFF2931";
paths = (
{
closed = 1;
nodes = (
"294 237 LINE",
"283 243 OFFCURVE",
"307 276 OFFCURVE",
"317 288 CURVE",
"326 299 OFFCURVE",
"338 309 OFFCURVE",
"348 310 CURVE",
"358 310 OFFCURVE",
"373 289 OFFCURVE",
"383 288 CURVE",
"461 286 OFFCURVE",
"734 291 OFFCURVE",
"814 296 CURVE",
"831 297 OFFCURVE",
"844 316 OFFCURVE",
"869 316 CURVE",
"884 316 OFFCURVE",
"905 300 OFFCURVE",
"905 287 CURVE",
"904 274 OFFCURVE",
"882 242 OFFCURVE",
"850 242 CURVE",
"829 242 OFFCURVE",
"841 249 OFFCURVE",
"796 250 CURVE",
"650 253 OFFCURVE",
"461 253 OFFCURVE",
"377 251 CURVE",
"349 250 OFFCURVE",
"304 231 OFFCURVE",
"294 237 CURVE"
);
},
{
closed = 1;
nodes = (
"314 405 LINE",
"310 409 OFFCURVE",
"346 439 OFFCURVE",
"347 461 CURVE",
"348 483 OFFCURVE",
"315 510 OFFCURVE",
"316 542 CURVE",
"317 574 OFFCURVE",
"353 592 OFFCURVE",
"382 593 CURVE",
"405 593 OFFCURVE",
"428 566 OFFCURVE",
"429 548 CURVE",
"430 533 OFFCURVE",
"423 507 OFFCURVE",
"414 507 CURVE",
"405 507 OFFCURVE",
"380 548 OFFCURVE",
"370 548 CURVE",
"357 548 OFFCURVE",
"349 533 OFFCURVE",
"349 523 CURVE",
"349 497 OFFCURVE",
"404 469 OFFCURVE",
"404 448 CURVE",
"404 425 OFFCURVE",
"321 398 OFFCURVE",
"314 405 CURVE"
);
},
{
closed = 1;
nodes = (
"30 309 LINE",
"30 309 OFFCURVE",
"45 371 OFFCURVE",
"62 391 CURVE",
"79 410 OFFCURVE",
"107 429 OFFCURVE",
"133 425 CURVE",
"201 416 OFFCURVE",
"264 307 OFFCURVE",
"310 243 CURVE",
"362 170 OFFCURVE",
"467 61 OFFCURVE",
"535 66 CURVE",
"552 67 OFFCURVE",
"574 77 OFFCURVE",
"573 94 CURVE",
"572 125 OFFCURVE",
"494 188 OFFCURVE",
"469 242 CURVE",
"390 412 OFFCURVE",
"477 530 OFFCURVE",
"529 530 CURVE",
"571 531 OFFCURVE",
"620 477 OFFCURVE",
"623 439 CURVE",
"627 407 OFFCURVE",
"603 346 OFFCURVE",
"603 346 CURVE",
"603 346 OFFCURVE",
"580 436 OFFCURVE",
"551 438 CURVE",
"525 439 OFFCURVE",
"479 428 OFFCURVE",
"476 347 CURVE",
"474 282 OFFCURVE",
"525 196 OFFCURVE",
"579 173 CURVE",
"610 160 OFFCURVE",
"641 118 OFFCURVE",
"639 84 CURVE",
"636 53 OFFCURVE",
"593 14 OFFCURVE",
"559 16 CURVE",
"446 23 OFFCURVE",
"386 109 OFFCURVE",
"316 182 CURVE",
"257 243 OFFCURVE",
"157 323 OFFCURVE",
"104 328 CURVE",
"79 330 OFFCURVE",
"30 309 OFFCURVE",
"30 309 CURVE"
);
}
);
width = 935;
}
);
unicode = 3065;
},
{
glyphname = "te-hira";
lastChange = "2020-05-01 00:25:44 +0000";
layers = (
{
layerId = "1305C52C-0BD1-483E-A343-C05F3AFF2931";
paths = (
{
closed = 1;
nodes = (
"121 141 OFFCURVE",
"145 151 OFFCURVE",
"138 160 CURVE",
"125 177 OFFCURVE",
"90 184 OFFCURVE",
"66 209 CURVE",
"48 228 OFFCURVE",
"29 259 OFFCURVE",
"30 283 CURVE",
"30 327 OFFCURVE",
"78 351 OFFCURVE",
"91 351 CURVE",
"129 351 OFFCURVE",
"199 348 OFFCURVE",
"240 350 CURVE",
"264 350 OFFCURVE",
"307 380 OFFCURVE",
"328 428 CURVE",
"345 468 OFFCURVE",
"352 513 OFFCURVE",
"372 557 CURVE",
"385 584 OFFCURVE",
"416 617 OFFCURVE",
"457 615 CURVE",
"507 613 OFFCURVE",
"522 571 OFFCURVE",
"532 536 CURVE",
"549 483 OFFCURVE",
"576 421 OFFCURVE",
"619 363 CURVE",
"714 233 OFFCURVE",
"880 304 OFFCURVE",
"885 294 CURVE",
"890 283 OFFCURVE",
"752 212 OFFCURVE",
"603 304 CURVE",
"502 367 OFFCURVE",
"464 506 OFFCURVE",
"440 504 CURVE",
"401 502 OFFCURVE",
"371 402 OFFCURVE",
"343 366 CURVE",
"320 338 OFFCURVE",
"278 318 OFFCURVE",
"240 318 CURVE",
"194 318 OFFCURVE",
"121 322 OFFCURVE",
"90 323 CURVE",
"78 323 OFFCURVE",
"59 307 OFFCURVE",
"60 278 CURVE",
"61 241 OFFCURVE",
"121 216 OFFCURVE",
"150 215 CURVE",
"169 215 OFFCURVE",
"185 222 OFFCURVE",
"200 221 CURVE",
"217 221 OFFCURVE",
"234 206 OFFCURVE",
"234 194 CURVE",
"235 179 OFFCURVE",
"192 133 OFFCURVE",
"181 131 CURVE",
"163 129 OFFCURVE",
"131 127 OFFCURVE",
"127 133 CURVE"
);
},
{
closed = 1;
nodes = (
"223 103 OFFCURVE",
"256 196 OFFCURVE",
"303 198 CURVE",
"318 199 OFFCURVE",
"326 177 OFFCURVE",
"341 177 CURVE",
"358 177 OFFCURVE",
"403 180 OFFCURVE",
"403 180 CURVE",
"403 180 OFFCURVE",
"392 240 OFFCURVE",
"431 267 CURVE",
"464 290 OFFCURVE",
"484 246 OFFCURVE",
"483 227 CURVE",
"482 206 OFFCURVE",
"483 176 OFFCURVE",
"493 164 CURVE",
"507 146 OFFCURVE",
"552 137 OFFCURVE",
"604 101 CURVE",
"638 77 OFFCURVE",
"703 20 OFFCURVE",
"699 13 CURVE",
"694 5 OFFCURVE",
"633 54 OFFCURVE",
"600 71 CURVE",
"570 87 OFFCURVE",
"510 119 OFFCURVE",
"504 115 CURVE",
"498 111 OFFCURVE",
"515 71 OFFCURVE",
"525 52 CURVE",
"535 35 OFFCURVE",
"563 16 OFFCURVE",
"563 6 CURVE",
"563 -5 OFFCURVE",
"543 -12 OFFCURVE",
"532 -12 CURVE",
"501 -12 OFFCURVE",
"499 8 OFFCURVE",
"479 17 CURVE",
"448 31 OFFCURVE",
"360 72 OFFCURVE",
"363 80 CURVE",
"369 96 OFFCURVE",
"480 48 OFFCURVE",
"485 56 CURVE",
"488 61 OFFCURVE",
"473 74 OFFCURVE",
"461 89 CURVE",
"450 106 OFFCURVE",
"430 126 OFFCURVE",
"430 126 CURVE",
"430 126 OFFCURVE",
"378 124 OFFCURVE",
"351 123 CURVE",
"334 122 OFFCURVE",
"306 88 OFFCURVE",
"286 78 CURVE",
"270 71 OFFCURVE",
"240 69 OFFCURVE",
"234 81 CURVE"
);
}
);
width = 915;
}
);
unicode = 3066;
},
{
glyphname = "de-hira";
lastChange = "2020-05-01 00:25:56 +0000";
layers = (
{
layerId = "1305C52C-0BD1-483E-A343-C05F3AFF2931";
paths = (
{
closed = 1;
nodes = (
"356 82 LINE",
"356 82 OFFCURVE",
"416 67 OFFCURVE",
"438 61 CURVE",
"457 57 OFFCURVE",
"492 47 OFFCURVE",
"492 47 CURVE",
"492 47 OFFCURVE",
"471 84 OFFCURVE",
"455 106 CURVE",
"440 127 OFFCURVE",
"395 155 OFFCURVE",
"396 181 CURVE",
"396 206 OFFCURVE",
"419 269 OFFCURVE",
"452 267 CURVE",
"492 265 OFFCURVE",
"468 158 OFFCURVE",
"491 104 CURVE",
"509 61 OFFCURVE",
"555 25 OFFCURVE",
"555 2 CURVE",
"554 -12 OFFCURVE",
"529 -19 OFFCURVE",
"513 -10 CURVE",
"497 -2 OFFCURVE",
"493 12 OFFCURVE",
"482 19 CURVE",
"469 28 OFFCURVE",
"449 37 OFFCURVE",
"434 45 CURVE",
"413 56 OFFCURVE",
"356 82 OFFCURVE",
"356 82 CURVE"
);
},
{
closed = 1;
nodes = (
"233 88 LINE",
"233 106 OFFCURVE",
"256 160 OFFCURVE",
"268 178 CURVE",
"276 189 OFFCURVE",
"292 197 OFFCURVE",
"305 197 CURVE",
"317 197 OFFCURVE",
"331 180 OFFCURVE",
"345 177 CURVE",
"381 170 OFFCURVE",
"472 159 OFFCURVE",
"524 137 CURVE",
"591 109 OFFCURVE",
"695 13 OFFCURVE",
"695 13 CURVE",
"695 13 OFFCURVE",
"574 97 OFFCURVE",
"515 115 CURVE",
"461 131 OFFCURVE",
"401 128 OFFCURVE",
"357 124 CURVE",
"323 121 OFFCURVE",
"289 74 OFFCURVE",
"258 73 CURVE",
"249 73 OFFCURVE",
"234 75 OFFCURVE",
"233 88 CURVE"
);
},
{
closed = 1;
nodes = (
"126 135 LINE",
"118 138 OFFCURVE",
"149 149 OFFCURVE",
"144 157 CURVE",
"128 182 OFFCURVE",
"32 210 OFFCURVE",
"30 287 CURVE",
"30 317 OFFCURVE",
"59 350 OFFCURVE",
"96 351 CURVE",
"131 351 OFFCURVE",
"190 349 OFFCURVE",
"236 349 CURVE",
"362 352 OFFCURVE",
"338 616 OFFCURVE",
"450 616 CURVE",
"536 616 OFFCURVE",
"526 514 OFFCURVE",
"571 423 CURVE",
"605 353 OFFCURVE",
"674 285 OFFCURVE",
"758 281 CURVE",
"798 280 OFFCURVE",
"879 295 OFFCURVE",
"879 295 CURVE",
"879 295 OFFCURVE",
"787 260 OFFCURVE",
"740 260 CURVE",
"535 258 OFFCURVE",
"471 508 OFFCURVE",
"441 507 CURVE",
"381 504 OFFCURVE",
"376 320 OFFCURVE",
"241 319 CURVE",
"186 319 OFFCURVE",
"126 323 OFFCURVE",
"93 323 CURVE",
"76 323 OFFCURVE",
"51 304 OFFCURVE",
"52 288 CURVE",
"57 251 OFFCURVE",
"102 214 OFFCURVE",
"148 213 CURVE",
"162 213 OFFCURVE",
"182 223 OFFCURVE",
"194 222 CURVE",
"208 222 OFFCURVE",
"231 207 OFFCURVE",
"231 192 CURVE",
"229 149 OFFCURVE",
"152 124 OFFCURVE",
"126 135 CURVE"
);
},
{
closed = 1;
nodes = (
"190 429 LINE",
"185 438 OFFCURVE",
"224 462 OFFCURVE",
"223 484 CURVE",
"223 506 OFFCURVE",
"190 537 OFFCURVE",
"192 562 CURVE",
"194 591 OFFCURVE",
"238 625 OFFCURVE",
"258 625 CURVE",
"281 624 OFFCURVE",
"306 599 OFFCURVE",
"307 572 CURVE",
"307 554 OFFCURVE",
"300 530 OFFCURVE",
"291 530 CURVE",
"282 530 OFFCURVE",
"261 571 OFFCURVE",
"250 571 CURVE",
"239 571 OFFCURVE",
"224 557 OFFCURVE",
"225 546 CURVE",
"226 520 OFFCURVE",
"281 490 OFFCURVE",
"281 472 CURVE",
"280 449 OFFCURVE",
"194 420 OFFCURVE",
"190 429 CURVE"
);
}
);
width = 909;
}
);
unicode = 3067;
},
{
glyphname = "to-hira";
lastChange = "2020-05-01 00:26:04 +0000";
layers = (
{
layerId = "1305C52C-0BD1-483E-A343-C05F3AFF2931";
paths = (
{
closed = 1;
nodes = (
"17 301 OFFCURVE",
"60 392 OFFCURVE",
"86 390 CURVE",
"104 389 OFFCURVE",
"146 333 OFFCURVE",
"191 285 CURVE",
"222 253 OFFCURVE",
"238 227 OFFCURVE",
"252 228 CURVE",
"264 228 OFFCURVE",
"241 281 OFFCURVE",
"284 316 CURVE",
"332 354 OFFCURVE",
"365 372 OFFCURVE",
"449 371 CURVE",
"491 370 OFFCURVE",
"558 358 OFFCURVE",
"603 360 CURVE",
"663 364 OFFCURVE",
"745 406 OFFCURVE",
"780 446 CURVE",
"856 534 OFFCURVE",
"742 675 OFFCURVE",
"747 682 CURVE",
"761 699 OFFCURVE",
"863 576 OFFCURVE",
"869 540 CURVE",
"892 396 OFFCURVE",
"788 304 OFFCURVE",
"682 287 CURVE",
"599 274 OFFCURVE",
"453 318 OFFCURVE",
"411 317 CURVE",
"364 317 OFFCURVE",
"294 292 OFFCURVE",
"297 232 CURVE",
"299 168 OFFCURVE",
"367 200 OFFCURVE",
"369 136 CURVE",
"370 111 OFFCURVE",
"338 114 OFFCURVE",
"310 128 CURVE",
"290 139 OFFCURVE",
"269 176 OFFCURVE",
"245 196 CURVE",
"210 224 OFFCURVE",
"126 300 OFFCURVE",
"103 299 CURVE",
"91 298 OFFCURVE",
"87 284 OFFCURVE",
"75 280 CURVE",
"64 277 OFFCURVE",
"42 272 OFFCURVE",
"33 284 CURVE"
);
},
{
closed = 1;
nodes = (
"367 67 OFFCURVE",
"426 166 OFFCURVE",
"440 168 CURVE",
"480 171 OFFCURVE",
"479 147 OFFCURVE",
"504 147 CURVE",
"522 147 OFFCURVE",
"563 146 OFFCURVE",
"563 146 CURVE",
"563 146 OFFCURVE",
"541 190 OFFCURVE",
"567 224 CURVE",
"579 239 OFFCURVE",
"608 242 OFFCURVE",
"618 235 CURVE",
"647 216 OFFCURVE",
"623 160 OFFCURVE",
"635 139 CURVE",
"651 111 OFFCURVE",
"696 106 OFFCURVE",
"749 68 CURVE",
"803 30 OFFCURVE",
"851 -10 OFFCURVE",
"849 -16 CURVE",
"846 -22 OFFCURVE",
"782 22 OFFCURVE",
"749 41 CURVE",
"718 58 OFFCURVE",
"657 92 OFFCURVE",
"652 84 CURVE",
"649 79 OFFCURVE",
"658 51 OFFCURVE",
"672 29 CURVE",
"687 6 OFFCURVE",
"709 -10 OFFCURVE",
"710 -21 CURVE",
"710 -33 OFFCURVE",
"693 -44 OFFCURVE",
"682 -43 CURVE",
"650 -39 OFFCURVE",
"643 -19 OFFCURVE",
"626 -11 CURVE",
"599 3 OFFCURVE",
"516 35 OFFCURVE",
"516 42 CURVE",
"516 52 OFFCURVE",
"560 47 OFFCURVE",
"578 41 CURVE",
"595 35 OFFCURVE",
"626 17 OFFCURVE",
"630 24 CURVE",
"636 36 OFFCURVE",
"582 94 OFFCURVE",
"582 94 CURVE",
"582 94 OFFCURVE",
"530 92 OFFCURVE",
"503 90 CURVE",
"479 89 OFFCURVE",
"460 62 OFFCURVE",
"443 50 CURVE",
"429 40 OFFCURVE",
"400 36 OFFCURVE",
"388 47 CURVE"
);
}
);
width = 902;
}
);
unicode = 3068;
},
{
glyphname = "do-hira";
lastChange = "2020-05-01 00:26:15 +0000";
layers = (
{
layerId = "1305C52C-0BD1-483E-A343-C05F3AFF2931";
paths = (
{
closed = 1;
nodes = (
"515 53 LINE",
"515 53 OFFCURVE",
"565 40 OFFCURVE",
"585 35 CURVE",
"603 30 OFFCURVE",
"637 22 OFFCURVE",
"637 22 CURVE",
"637 22 OFFCURVE",
"626 57 OFFCURVE",
"605 87 CURVE",
"589 110 OFFCURVE",
"553 146 OFFCURVE",
"552 171 CURVE",
"551 197 OFFCURVE",
"580 239 OFFCURVE",
"599 239 CURVE",
"617 239 OFFCURVE",
"632 212 OFFCURVE",
"632 195 CURVE",
"630 162 OFFCURVE",
"641 116 OFFCURVE",
"651 80 CURVE",
"669 13 OFFCURVE",
"705 -2 OFFCURVE",
"706 -22 CURVE",
"706 -32 OFFCURVE",
"691 -44 OFFCURVE",
"680 -42 CURVE",
"653 -38 OFFCURVE",
"650 -19 OFFCURVE",
"632 -10 CURVE",
"615 -1 OFFCURVE",
"595 11 OFFCURVE",
"579 20 CURVE",
"559 31 OFFCURVE",
"515 53 OFFCURVE",
"515 53 CURVE"
);
},
{
closed = 1;
nodes = (
"387 52 LINE",
"383 66 OFFCURVE",
"398 111 OFFCURVE",
"409 130 CURVE",
"418 147 OFFCURVE",
"437 170 OFFCURVE",
"452 170 CURVE",
"467 169 OFFCURVE",
"480 154 OFFCURVE",
"496 150 CURVE",
"529 142 OFFCURVE",
"623 129 OFFCURVE",
"683 105 CURVE",
"763 74 OFFCURVE",
"842 -11 OFFCURVE",
"842 -11 CURVE",
"842 -11 OFFCURVE",
"721 68 OFFCURVE",
"665 86 CURVE",
"615 103 OFFCURVE",
"549 103 OFFCURVE",
"510 100 CURVE",
"479 97 OFFCURVE",
"453 58 OFFCURVE",
"433 50 CURVE",
"419 45 OFFCURVE",
"391 38 OFFCURVE",
"387 52 CURVE"
);
},
{
closed = 1;
nodes = (
"31 286 LINE",
"26 297 OFFCURVE",
"38 332 OFFCURVE",
"48 350 CURVE",
"57 366 OFFCURVE",
"71 384 OFFCURVE",
"89 384 CURVE",
"120 384 OFFCURVE",
"156 314 OFFCURVE",
"183 288 CURVE",
"211 262 OFFCURVE",
"257 225 OFFCURVE",
"257 225 CURVE",
"257 225 OFFCURVE",
"242 358 OFFCURVE",
"422 369 CURVE",
"473 373 OFFCURVE",
"543 363 OFFCURVE",
"600 357 CURVE",
"668 350 OFFCURVE",
"805 432 OFFCURVE",
"808 505 CURVE",
"811 589 OFFCURVE",
"749 686 OFFCURVE",
"749 686 CURVE",
"749 686 OFFCURVE",
"881 597 OFFCURVE",
"875 490 CURVE",
"869 382 OFFCURVE",
"769 277 OFFCURVE",
"600 292 CURVE",
"537 298 OFFCURVE",
"461 320 OFFCURVE",
"413 321 CURVE",
"367 322 OFFCURVE",
"299 301 OFFCURVE",
"297 239 CURVE",
"296 186 OFFCURVE",
"354 169 OFFCURVE",
"369 153 CURVE",
"380 141 OFFCURVE",
"362 120 OFFCURVE",
"343 123 CURVE",
"290 131 OFFCURVE",
"281 173 OFFCURVE",
"257 193 CURVE",
"233 213 OFFCURVE",
"213 230 OFFCURVE",
"191 248 CURVE",
"165 267 OFFCURVE",
"126 298 OFFCURVE",
"107 299 CURVE",
"93 300 OFFCURVE",
"87 290 OFFCURVE",
"77 287 CURVE",
"65 284 OFFCURVE",
"36 276 OFFCURVE",
"31 286 CURVE"
);
},
{
closed = 1;
nodes = (
"263 404 LINE",
"253 405 OFFCURVE",
"282 434 OFFCURVE",
"282 451 CURVE",
"282 488 OFFCURVE",
"255 507 OFFCURVE",
"255 532 CURVE",
"255 563 OFFCURVE",
"297 592 OFFCURVE",
"317 590 CURVE",
"341 588 OFFCURVE",
"364 572 OFFCURVE",
"365 547 CURVE",
"366 532 OFFCURVE",
"359 501 OFFCURVE",
"350 501 CURVE",
"340 500 OFFCURVE",
"330 544 OFFCURVE",
"308 544 CURVE",
"297 544 OFFCURVE",
"283 532 OFFCURVE",
"283 521 CURVE",
"284 490 OFFCURVE",
"341 467 OFFCURVE",
"342 446 CURVE",
"342 417 OFFCURVE",
"273 403 OFFCURVE",
"263 404 CURVE"
);
}
);
width = 905;
}
);
unicode = 3069;
},
{
glyphname = "na-hira";
lastChange = "2020-05-01 00:26:32 +0000";
layers = (
{
layerId = "1305C52C-0BD1-483E-A343-C05F3AFF2931";
paths = (
{
closed = 1;
nodes = (
"24 274 OFFCURVE",
"46 340 OFFCURVE",
"62 359 CURVE",
"75 376 OFFCURVE",
"110 418 OFFCURVE",
"130 414 CURVE",
"165 408 OFFCURVE",
"146 354 OFFCURVE",
"157 335 CURVE",
"184 285 OFFCURVE",
"213 260 OFFCURVE",
"247 222 CURVE",
"281 185 OFFCURVE",
"351 113 OFFCURVE",
"357 120 CURVE",
"363 128 OFFCURVE",
"288 210 OFFCURVE",
"268 275 CURVE",
"245 350 OFFCURVE",
"240 421 OFFCURVE",
"256 460 CURVE",
"281 523 OFFCURVE",
"335 570 OFFCURVE",
"415 568 CURVE",
"462 567 OFFCURVE",
"537 535 OFFCURVE",
"586 489 CURVE",
"610 466 OFFCURVE",
"676 381 OFFCURVE",
"672 251 CURVE",
"672 221 OFFCURVE",
"628 154 OFFCURVE",
"622 159 CURVE",
"613 166 OFFCURVE",
"613 276 OFFCURVE",
"606 311 CURVE",
"593 373 OFFCURVE",
"503 516 OFFCURVE",
"388 513 CURVE",
"328 512 OFFCURVE",
"278 481 OFFCURVE",
"280 388 CURVE",
"281 307 OFFCURVE",
"321 255 OFFCURVE",
"354 208 CURVE",
"384 164 OFFCURVE",
"450 108 OFFCURVE",
"484 105 CURVE",
"504 103 OFFCURVE",
"536 96 OFFCURVE",
"536 65 CURVE",
"536 48 OFFCURVE",
"506 32 OFFCURVE",
"460 36 CURVE",
"416 39 OFFCURVE",
"328 96 OFFCURVE",
"297 122 CURVE",
"200 200 OFFCURVE",
"113 299 OFFCURVE",
"88 291 CURVE",
"68 285 OFFCURVE",
"39 259 OFFCURVE",
"32 266 CURVE"
);
},
{
closed = 1;
nodes = (
"409 244 OFFCURVE",
"441 262 OFFCURVE",
"441 274 CURVE",
"441 296 OFFCURVE",
"376 342 OFFCURVE",
"380 358 CURVE",
"384 371 OFFCURVE",
"421 359 OFFCURVE",
"431 348 CURVE",
"444 335 OFFCURVE",
"465 325 OFFCURVE",
"482 319 CURVE",
"500 313 OFFCURVE",
"519 309 OFFCURVE",
"520 294 CURVE",
"522 278 OFFCURVE",
"469 242 OFFCURVE",
"451 232 CURVE",
"442 227 OFFCURVE",
"418 227 OFFCURVE",
"414 234 CURVE"
);
}
);
width = 702;
}
);
unicode = 306A;
},
{
glyphname = "ni-hira";
lastChange = "2020-05-01 00:26:43 +0000";
layers = (
{
layerId = "1305C52C-0BD1-483E-A343-C05F3AFF2931";
paths = (
{
closed = 1;
nodes = (
"471 25 OFFCURVE",
"477 51 OFFCURVE",
"478 59 CURVE",
"479 65 OFFCURVE",
"488 67 OFFCURVE",
"488 72 CURVE",
"489 81 OFFCURVE",
"450 110 OFFCURVE",
"456 117 CURVE",
"461 122 OFFCURVE",
"536 93 OFFCURVE",
"537 65 CURVE",
"537 59 OFFCURVE",
"496 13 OFFCURVE",
"480 20 CURVE"
);
},
{
closed = 1;
nodes = (
"25 179 OFFCURVE",
"30 224 OFFCURVE",
"37 243 CURVE",
"46 271 OFFCURVE",
"77 328 OFFCURVE",
"99 338 CURVE",
"114 344 OFFCURVE",
"130 341 OFFCURVE",
"139 335 CURVE",
"147 328 OFFCURVE",
"143 309 OFFCURVE",
"149 301 CURVE",
"155 293 OFFCURVE",
"167 284 OFFCURVE",
"177 284 CURVE",
"278 284 OFFCURVE",
"740 283 OFFCURVE",
"759 284 CURVE",
"792 285 OFFCURVE",
"821 311 OFFCURVE",
"840 310 CURVE",
"858 309 OFFCURVE",
"870 300 OFFCURVE",
"871 288 CURVE",
"872 272 OFFCURVE",
"838 230 OFFCURVE",
"812 230 CURVE",
"784 229 OFFCURVE",
"769 245 OFFCURVE",
"751 245 CURVE",
"648 245 OFFCURVE",
"289 250 OFFCURVE",
"177 248 CURVE",
"149 248 OFFCURVE",
"119 236 OFFCURVE",
"97 221 CURVE",
"78 207 OFFCURVE",
"46 174 OFFCURVE",
"36 176 CURVE"
);
},
{
closed = 1;
nodes = (
"244 474 OFFCURVE",
"317 524 OFFCURVE",
"359 525 CURVE",
"372 526 OFFCURVE",
"392 522 OFFCURVE",
"392 509 CURVE",
"393 494 OFFCURVE",
"368 471 OFFCURVE",
"370 451 CURVE",
"371 426 OFFCURVE",
"423 376 OFFCURVE",
"474 379 CURVE",
"577 385 OFFCURVE",
"631 481 OFFCURVE",
"648 532 CURVE",
"667 590 OFFCURVE",
"657 639 OFFCURVE",
"668 639 CURVE",
"686 640 OFFCURVE",
"686 510 OFFCURVE",
"624 415 CURVE",
"591 366 OFFCURVE",
"524 334 OFFCURVE",
"465 337 CURVE",
"384 341 OFFCURVE",
"306 390 OFFCURVE",
"280 430 CURVE",
"273 441 OFFCURVE",
"260 436 OFFCURVE",
"257 443 CURVE"
);
},
{
closed = 1;
nodes = (
"385 -14 OFFCURVE",
"387 -6 OFFCURVE",
"382 5 CURVE",
"371 32 OFFCURVE",
"296 56 OFFCURVE",
"297 124 CURVE",
"297 169 OFFCURVE",
"337 216 OFFCURVE",
"382 217 CURVE",
"430 217 OFFCURVE",
"518 183 OFFCURVE",
"565 142 CURVE",
"648 69 OFFCURVE",
"662 -32 OFFCURVE",
"654 -33 CURVE",
"648 -35 OFFCURVE",
"603 58 OFFCURVE",
"546 107 CURVE",
"473 170 OFFCURVE",
"423 176 OFFCURVE",
"388 177 CURVE",
"366 177 OFFCURVE",
"333 165 OFFCURVE",
"334 133 CURVE",
"335 105 OFFCURVE",
"365 89 OFFCURVE",
"385 87 CURVE",
"405 85 OFFCURVE",
"429 85 OFFCURVE",
"440 77 CURVE",
"452 69 OFFCURVE",
"453 54 OFFCURVE",
"452 41 CURVE",
"450 23 OFFCURVE",
"434 -7 OFFCURVE",
"421 -14 CURVE",
"413 -18 OFFCURVE",
"395 -22 OFFCURVE",
"391 -19 CURVE"
);
}
);
width = 901;
}
);
unicode = 306B;
},
{
glyphname = "nu-hira";
lastChange = "2020-05-01 00:26:54 +0000";
layers = (
{
layerId = "1305C52C-0BD1-483E-A343-C05F3AFF2931";
paths = (
{
closed = 1;
nodes = (
"461 33 OFFCURVE",
"463 59 OFFCURVE",
"465 69 CURVE",
"466 76 OFFCURVE",
"477 83 OFFCURVE",
"475 92 CURVE",
"474 102 OFFCURVE",
"439 129 OFFCURVE",
"447 136 CURVE",
"451 139 OFFCURVE",
"527 101 OFFCURVE",
"527 83 CURVE",
"528 74 OFFCURVE",
"490 28 OFFCURVE",
"472 31 CURVE"
);
},
{
closed = 1;
nodes = (
"26 238 OFFCURVE",
"36 247 OFFCURVE",
"42 256 CURVE",
"49 269 OFFCURVE",
"52 295 OFFCURVE",
"67 321 CURVE",
"89 358 OFFCURVE",
"115 374 OFFCURVE",
"139 373 CURVE",
"153 372 OFFCURVE",
"162 356 OFFCURVE",
"164 344 CURVE",
"167 327 OFFCURVE",
"155 301 OFFCURVE",
"181 300 CURVE",
"239 297 OFFCURVE",
"525 299 OFFCURVE",
"525 299 CURVE",
"525 299 OFFCURVE",
"480 443 OFFCURVE",
"465 495 CURVE",
"457 525 OFFCURVE",
"433 613 OFFCURVE",
"438 614 CURVE",
"446 616 OFFCURVE",
"476 533 OFFCURVE",
"488 502 CURVE",
"509 449 OFFCURVE",
"558 298 OFFCURVE",
"558 298 CURVE",
"558 298 OFFCURVE",
"684 298 OFFCURVE",
"730 298 CURVE",
"760 298 OFFCURVE",
"796 321 OFFCURVE",
"819 320 CURVE",
"838 319 OFFCURVE",
"868 313 OFFCURVE",
"868 291 CURVE",
"868 279 OFFCURVE",
"830 247 OFFCURVE",
"810 246 CURVE",
"802 246 OFFCURVE",
"759 255 OFFCURVE",
"740 255 CURVE",
"702 256 OFFCURVE",
"572 257 OFFCURVE",
"572 257 CURVE",
"572 257 OFFCURVE",
"612 138 OFFCURVE",
"625 104 CURVE",
"629 93 OFFCURVE",
"657 84 OFFCURVE",
"662 63 CURVE",
"665 49 OFFCURVE",
"631 11 OFFCURVE",
"615 11 CURVE",
"604 11 OFFCURVE",
"583 4 OFFCURVE",
"582 14 CURVE",
"581 31 OFFCURVE",
"587 66 OFFCURVE",
"577 85 CURVE",
"566 107 OFFCURVE",
"538 126 OFFCURVE",
"515 144 CURVE",
"494 160 OFFCURVE",
"451 189 OFFCURVE",
"392 191 CURVE",
"359 192 OFFCURVE",
"329 179 OFFCURVE",
"328 156 CURVE",
"327 136 OFFCURVE",
"345 110 OFFCURVE",
"367 101 CURVE",
"384 95 OFFCURVE",
"406 104 OFFCURVE",
"430 93 CURVE",
"437 89 OFFCURVE",
"444 48 OFFCURVE",
"435 32 CURVE",
"421 6 OFFCURVE",
"391 -10 OFFCURVE",
"382 -6 CURVE",
"375 -3 OFFCURVE",
"379 14 OFFCURVE",
"375 20 CURVE",
"358 45 OFFCURVE",
"284 81 OFFCURVE",
"284 145 CURVE",
"284 184 OFFCURVE",
"315 233 OFFCURVE",
"391 231 CURVE",
"443 230 OFFCURVE",
"492 198 OFFCURVE",
"503 190 CURVE",
"523 176 OFFCURVE",
"569 128 OFFCURVE",
"563 143 CURVE",
"557 160 OFFCURVE",
"535 258 OFFCURVE",
"535 258 CURVE",
"535 258 OFFCURVE",
"273 260 OFFCURVE",
"199 259 CURVE",
"164 258 OFFCURVE",
"129 254 OFFCURVE",
"107 247 CURVE",
"88 242 OFFCURVE",
"81 233 OFFCURVE",
"71 233 CURVE",
"59 233 OFFCURVE",
"37 225 OFFCURVE",
"32 231 CURVE"
);
}
);
width = 898;
}
);
unicode = 306C;
},
{
glyphname = "ne-hira";
lastChange = "2020-05-01 00:27:06 +0000";
layers = (
{
layerId = "1305C52C-0BD1-483E-A343-C05F3AFF2931";
paths = (
{
closed = 1;
nodes = (
"17 113 OFFCURVE",
"54 181 OFFCURVE",
"68 202 CURVE",
"78 219 OFFCURVE",
"102 233 OFFCURVE",
"117 233 CURVE",
"140 233 OFFCURVE",
"143 189 OFFCURVE",
"159 188 CURVE",
"188 186 OFFCURVE",
"281 186 OFFCURVE",
"281 186 CURVE",
"281 186 OFFCURVE",
"188 276 OFFCURVE",
"178 333 CURVE",
"164 406 OFFCURVE",
"193 457 OFFCURVE",
"229 478 CURVE",
"291 515 OFFCURVE",
"372 508 OFFCURVE",
"431 484 CURVE",
"490 461 OFFCURVE",
"544 391 OFFCURVE",
"581 338 CURVE",
"611 293 OFFCURVE",
"640 239 OFFCURVE",
"689 215 CURVE",
"828 146 OFFCURVE",
"881 196 OFFCURVE",
"886 187 CURVE",
"889 178 OFFCURVE",
"797 131 OFFCURVE",
"705 161 CURVE",
"624 189 OFFCURVE",
"570 246 OFFCURVE",
"543 280 CURVE",
"477 368 OFFCURVE",
"407 448 OFFCURVE",
"322 448 CURVE",
"249 449 OFFCURVE",
"226 399 OFFCURVE",
"227 347 CURVE",
"228 281 OFFCURVE",
"294 198 OFFCURVE",
"340 197 CURVE",
"380 197 OFFCURVE",
"430 196 OFFCURVE",
"450 196 CURVE",
"480 195 OFFCURVE",
"439 141 OFFCURVE",
"414 140 CURVE",
"395 139 OFFCURVE",
"389 141 OFFCURVE",
"377 141 CURVE",
"359 141 OFFCURVE",
"344 157 OFFCURVE",
"325 158 CURVE",
"288 159 OFFCURVE",
"195 159 OFFCURVE",
"148 158 CURVE",
"108 158 OFFCURVE",
"57 90 OFFCURVE",
"35 103 CURVE"
);
},
{
closed = 1;
nodes = (
"299 285 OFFCURVE",
"336 301 OFFCURVE",
"335 318 CURVE",
"334 341 OFFCURVE",
"288 375 OFFCURVE",
"293 383 CURVE",
"300 392 OFFCURVE",
"338 367 OFFCURVE",
"357 357 CURVE",
"373 348 OFFCURVE",
"428 356 OFFCURVE",
"437 331 CURVE",
"441 318 OFFCURVE",
"409 296 OFFCURVE",
"390 286 CURVE",
"369 276 OFFCURVE",
"318 262 OFFCURVE",
"311 270 CURVE"
);
}
);
width = 916;
}
);
unicode = 306D;
},
{
glyphname = "no-hira";
lastChange = "2020-04-30 23:36:57 +0000";
layers = (
{
layerId = "1305C52C-0BD1-483E-A343-C05F3AFF2931";
paths = (
{
closed = 1;
nodes = (
"276 60 OFFCURVE",
"310 77 OFFCURVE",
"309 97 CURVE",
"308 121 OFFCURVE",
"254 194 OFFCURVE",
"262 202 CURVE",
"270 212 OFFCURVE",
"296 178 OFFCURVE",
"316 172 CURVE",
"335 167 OFFCURVE",
"368 176 OFFCURVE",
"382 167 CURVE",
"397 158 OFFCURVE",
"402 127 OFFCURVE",
"395 111 CURVE",
"355 16 OFFCURVE",
"290 34 OFFCURVE",
"285 44 CURVE"
);
},
{
closed = 1;
nodes = (
"115 50 OFFCURVE",
"29 175 OFFCURVE",
"30 242 CURVE",
"32 328 OFFCURVE",
"89 382 OFFCURVE",
"174 383 CURVE",
"319 384 OFFCURVE",
"434 193 OFFCURVE",
"441 193 CURVE",
"449 194 OFFCURVE",
"487 281 OFFCURVE",
"513 321 CURVE",
"546 372 OFFCURVE",
"596 418 OFFCURVE",
"605 517 CURVE",
"617 636 OFFCURVE",
"566 736 OFFCURVE",
"578 741 CURVE",
"590 745 OFFCURVE",
"679 585 OFFCURVE",
"677 494 CURVE",
"675 399 OFFCURVE",
"626 350 OFFCURVE",
"579 299 CURVE",
"535 251 OFFCURVE",
"476 189 OFFCURVE",
"475 135 CURVE",
"474 71 OFFCURVE",
"559 32 OFFCURVE",
"561 8 CURVE",
"564 -31 OFFCURVE",
"495 -42 OFFCURVE",
"481 -41 CURVE",
"468 -40 OFFCURVE",
"477 -4 OFFCURVE",
"476 14 CURVE",
"475 37 OFFCURVE",
"449 65 OFFCURVE",
"444 94 CURVE",
"439 118 OFFCURVE",
"435 170 OFFCURVE",
"435 170 CURVE",
"435 170 OFFCURVE",
"339 318 OFFCURVE",
"212 322 CURVE",
"156 324 OFFCURVE",
"76 290 OFFCURVE",
"76 235 CURVE",
"75 182 OFFCURVE",
"102 148 OFFCURVE",
"138 148 CURVE",
"155 149 OFFCURVE",
"172 164 OFFCURVE",
"187 164 CURVE",
"204 164 OFFCURVE",
"219 142 OFFCURVE",
"220 128 CURVE",
"222 109 OFFCURVE",
"195 50 OFFCURVE",
"162 50 CURVE"
);
}
);
width = 707;
}
);
unicode = 306E;
},
{
glyphname = "ha-hira";
lastChange = "2020-05-01 00:27:27 +0000";
layers = (
{
layerId = "1305C52C-0BD1-483E-A343-C05F3AFF2931";
paths = (
{
closed = 1;
nodes = (
"845 38 OFFCURVE",
"819 163 OFFCURVE",
"783 223 CURVE SMOOTH",
"725 320 OFFCURVE",
"665 328 OFFCURVE",
"665 328 CURVE SMOOTH",
"665 328 OFFCURVE",
"671 292 OFFCURVE",
"649 268 CURVE SMOOTH",
"571 183 OFFCURVE",
"480 274 OFFCURVE",
"466 289 CURVE SMOOTH",
"441 316 OFFCURVE",
"416 360 OFFCURVE",
"419 385 CURVE SMOOTH",
"425 434 OFFCURVE",
"455 444 OFFCURVE",
"455 444 CURVE SMOOTH",
"455 444 OFFCURVE",
"455 458 OFFCURVE",
"447 459 CURVE SMOOTH",
"429 461 OFFCURVE",
"395 412 OFFCURVE",
"365 397 CURVE SMOOTH",
"318 374 OFFCURVE",
"262 370 OFFCURVE",
"262 370 CURVE SMOOTH",
"262 370 OFFCURVE",
"313 299 OFFCURVE",
"329 263 CURVE SMOOTH",
"347 222 OFFCURVE",
"385 129 OFFCURVE",
"368 128 CURVE SMOOTH",
"353 127 OFFCURVE",
"309 238 OFFCURVE",
"235 325 CURVE SMOOTH",
"198 369 OFFCURVE",
"149 432 OFFCURVE",
"114 451 CURVE SMOOTH",
"101 458 OFFCURVE",
"48 450 OFFCURVE",
"34 453 CURVE SMOOTH",
"29 454 OFFCURVE",
"29 466 OFFCURVE",
"33 470 CURVE SMOOTH",
"36 473 OFFCURVE",
"52 475 OFFCURVE",
"56 478 CURVE SMOOTH",
"75 492 OFFCURVE",
"117 550 OFFCURVE",
"141 562 CURVE SMOOTH",
"153 568 OFFCURVE",
"178 563 OFFCURVE",
"186 555 CURVE SMOOTH",
"204 537 OFFCURVE",
"179 504 OFFCURVE",
"185 484 CURVE SMOOTH",
"193 457 OFFCURVE",
"240 401 OFFCURVE",
"240 401 CURVE SMOOTH",
"240 401 OFFCURVE",
"290 392 OFFCURVE",
"327 418 CURVE SMOOTH",
"337 425 OFFCURVE",
"367 450 OFFCURVE",
"378 482 CURVE SMOOTH",
"384 500 OFFCURVE",
"373 534 OFFCURVE",
"380 546 CURVE SMOOTH",
"386 557 OFFCURVE",
"410 563 OFFCURVE",
"420 557 CURVE SMOOTH",
"434 549 OFFCURVE",
"439 504 OFFCURVE",
"462 489 CURVE SMOOTH",
"495 467 OFFCURVE",
"636 428 OFFCURVE",
"708 379 CURVE SMOOTH",
"746 353 OFFCURVE",
"798 274 OFFCURVE",
"819 235 CURVE SMOOTH",
"858 163 OFFCURVE",
"857 42 OFFCURVE",
"851 40 CURVE SMOOTH"
);
},
{
closed = 1;
nodes = (
"552 286 OFFCURVE",
"588 282 OFFCURVE",
"599 300 CURVE SMOOTH",
"606 311 OFFCURVE",
"602 329 OFFCURVE",
"596 340 CURVE SMOOTH",
"579 371 OFFCURVE",
"559 374 OFFCURVE",
"537 381 CURVE SMOOTH",
"519 387 OFFCURVE",
"476 396 OFFCURVE",
"465 375 CURVE SMOOTH",
"460 365 OFFCURVE",
"464 348 OFFCURVE",
"472 336 CURVE SMOOTH",
"482 321 OFFCURVE",
"505 301 OFFCURVE",
"530 293 CURVE SMOOTH"
);
}
);
width = 884;
}
);
unicode = 306F;
},
{
glyphname = "ba-hira";
lastChange = "2020-05-01 00:27:38 +0000";
layers = (
{
layerId = "1305C52C-0BD1-483E-A343-C05F3AFF2931";
paths = (
{
closed = 1;
nodes = (
"843 -3 OFFCURVE",
"827 91 OFFCURVE",
"774 183 CURVE SMOOTH",
"734 252 OFFCURVE",
"658 297 OFFCURVE",
"658 297 CURVE",
"658 297 OFFCURVE",
"651 247 OFFCURVE",
"638 227 CURVE SMOOTH",
"624 206 OFFCURVE",
"576 195 OFFCURVE",
"542 201 CURVE SMOOTH",
"484 211 OFFCURVE",
"419 289 OFFCURVE",
"417 324 CURVE SMOOTH",
"412 404 OFFCURVE",
"468 400 OFFCURVE",
"468 400 CURVE",
"432 423 LINE",
"432 423 OFFCURVE",
"386 389 OFFCURVE",
"363 372 CURVE SMOOTH",
"333 350 OFFCURVE",
"227 322 OFFCURVE",
"227 322 CURVE",
"210 349 LINE",
"210 349 LINE",
"210 349 OFFCURVE",
"270 356 OFFCURVE",
"300 371 CURVE SMOOTH",
"330 386 OFFCURVE",
"381 416 OFFCURVE",
"379 459 CURVE SMOOTH",
"378 480 OFFCURVE",
"386 516 OFFCURVE",
"404 515 CURVE SMOOTH",
"433 513 OFFCURVE",
"430 459 OFFCURVE",
"449 447 CURVE SMOOTH",
"485 424 OFFCURVE",
"593 398 OFFCURVE",
"644 374 CURVE SMOOTH",
"905 251 OFFCURVE",
"843 -3 OFFCURVE",
"843 -3 CURVE"
);
},
{
closed = 1;
nodes = (
"362 96 OFFCURVE",
"291 221 OFFCURVE",
"235 288 CURVE SMOOTH",
"196 335 OFFCURVE",
"138 395 OFFCURVE",
"109 416 CURVE SMOOTH",
"91 429 OFFCURVE",
"24 402 OFFCURVE",
"30 418 CURVE",
"30 418 LINE",
"34 430 OFFCURVE",
"70 461 OFFCURVE",
"93 480 CURVE SMOOTH",
"115 499 OFFCURVE",
"149 528 OFFCURVE",
"166 526 CURVE SMOOTH",
"180 524 OFFCURVE",
"191 505 OFFCURVE",
"191 493 CURVE SMOOTH",
"191 481 OFFCURVE",
"172 456 OFFCURVE",
"177 443 CURVE SMOOTH",
"188 414 OFFCURVE",
"233 360 OFFCURVE",
"264 318 CURVE SMOOTH",
"343 212 OFFCURVE",
"362 96 OFFCURVE",
"362 96 CURVE"
);
},
{
closed = 1;
nodes = (
"578 244 OFFCURVE",
"600 257 OFFCURVE",
"602 274 CURVE SMOOTH",
"605 298 OFFCURVE",
"570 347 OFFCURVE",
"508 352 CURVE SMOOTH",
"473 355 OFFCURVE",
"453 338 OFFCURVE",
"452 315 CURVE SMOOTH",
"451 295 OFFCURVE",
"493 244 OFFCURVE",
"561 244 CURVE SMOOTH"
);
},
{
closed = 1;
nodes = (
"232 417 LINE",
"223 418 OFFCURVE",
"262 448 OFFCURVE",
"262 468 CURVE SMOOTH",
"262 490 OFFCURVE",
"230 525 OFFCURVE",
"231 549 CURVE SMOOTH",
"233 589 OFFCURVE",
"271 608 OFFCURVE",
"300 607 CURVE SMOOTH",
"324 606 OFFCURVE",
"339 580 OFFCURVE",
"340 564 CURVE SMOOTH",
"341 549 OFFCURVE",
"337 521 OFFCURVE",
"328 521 CURVE SMOOTH",
"318 521 OFFCURVE",
"296 565 OFFCURVE",
"284 565 CURVE SMOOTH",
"273 565 OFFCURVE",
"261 552 OFFCURVE",
"262 535 CURVE SMOOTH",
"264 505 OFFCURVE",
"318 481 OFFCURVE",
"318 459 CURVE SMOOTH",
"318 435 OFFCURVE",
"241 415 OFFCURVE",
"232 417 CURVE"
);
}
);
width = 879;
}
);
unicode = 3070;
},
{
glyphname = "pa-hira";
lastChange = "2020-05-01 00:27:53 +0000";
layers = (
{
layerId = "1305C52C-0BD1-483E-A343-C05F3AFF2931";
paths = (
{
closed = 1;
nodes = (
"844 -27 OFFCURVE",
"834 66 OFFCURVE",
"797 129 CURVE SMOOTH",
"723 254 OFFCURVE",
"654 271 OFFCURVE",
"654 271 CURVE",
"654 271 OFFCURVE",
"652 227 OFFCURVE",
"639 206 CURVE SMOOTH",
"627 187 OFFCURVE",
"592 176 OFFCURVE",
"567 177 CURVE SMOOTH",
"509 179 OFFCURVE",
"422 270 OFFCURVE",
"422 321 CURVE SMOOTH",
"422 347 OFFCURVE",
"466 386 OFFCURVE",
"466 386 CURVE",
"436 402 LINE",
"436 402 OFFCURVE",
"380 353 OFFCURVE",
"349 337 CURVE SMOOTH",
"299 311 OFFCURVE",
"225 305 OFFCURVE",
"225 305 CURVE",
"211 332 LINE",
"211 332 LINE",
"211 332 OFFCURVE",
"305 343 OFFCURVE",
"332 367 CURVE SMOOTH",
"393 422 OFFCURVE",
"379 445 OFFCURVE",
"381 470 CURVE SMOOTH",
"382 482 OFFCURVE",
"396 496 OFFCURVE",
"407 496 CURVE SMOOTH",
"436 496 OFFCURVE",
"433 446 OFFCURVE",
"448 435 CURVE SMOOTH",
"494 401 OFFCURVE",
"546 394 OFFCURVE",
"603 371 CURVE SMOOTH",
"732 319 OFFCURVE",
"773 264 OFFCURVE",
"813 197 CURVE SMOOTH",
"859 121 OFFCURVE",
"844 -27 OFFCURVE",
"844 -27 CURVE"
);
},
{
closed = 1;
nodes = (
"361 76 OFFCURVE",
"304 184 OFFCURVE",
"247 253 CURVE SMOOTH",
"203 306 OFFCURVE",
"136 374 OFFCURVE",
"104 398 CURVE SMOOTH",
"88 410 OFFCURVE",
"34 384 OFFCURVE",
"30 393 CURVE",
"30 393 LINE",
"25 403 OFFCURVE",
"76 447 OFFCURVE",
"100 466 CURVE SMOOTH",
"121 483 OFFCURVE",
"157 518 OFFCURVE",
"173 510 CURVE SMOOTH",
"200 497 OFFCURVE",
"176 444 OFFCURVE",
"186 422 CURVE SMOOTH",
"202 386 OFFCURVE",
"257 310 OFFCURVE",
"285 268 CURVE SMOOTH",
"379 127 OFFCURVE",
"361 76 OFFCURVE",
"361 76 CURVE"
);
},
{
closed = 1;
nodes = (
"578 228 OFFCURVE",
"601 232 OFFCURVE",
"601 257 CURVE SMOOTH",
"601 304 OFFCURVE",
"539 328 OFFCURVE",
"505 330 CURVE SMOOTH",
"485 331 OFFCURVE",
"465 322 OFFCURVE",
"465 299 CURVE SMOOTH",
"465 280 OFFCURVE",
"503 233 OFFCURVE",
"562 229 CURVE SMOOTH"
);
},
{
closed = 1;
nodes = (
"292 462 LINE",
"240 460 OFFCURVE",
"212 518 OFFCURVE",
"213 554 CURVE SMOOTH",
"214 583 OFFCURVE",
"224 631 OFFCURVE",
"284 633 CURVE SMOOTH",
"319 634 OFFCURVE",
"362 597 OFFCURVE",
"362 566 CURVE SMOOTH",
"362 555 OFFCURVE",
"360 530 OFFCURVE",
"354 529 CURVE SMOOTH",
"349 528 OFFCURVE",
"333 545 OFFCURVE",
"329 556 CURVE SMOOTH",
"323 572 OFFCURVE",
"294 594 OFFCURVE",
"281 594 CURVE SMOOTH",
"254 594 OFFCURVE",
"243 575 OFFCURVE",
"243 548 CURVE SMOOTH",
"243 532 OFFCURVE",
"255 498 OFFCURVE",
"272 498 CURVE SMOOTH",
"289 498 OFFCURVE",
"294 519 OFFCURVE",
"307 524 CURVE SMOOTH",
"319 529 OFFCURVE",
"338 536 OFFCURVE",
"347 523 CURVE SMOOTH",
"353 514 OFFCURVE",
"312 463 OFFCURVE",
"292 462 CURVE"
);
}
);
width = 876;
}
);
unicode = 3071;
},
{
glyphname = "hi-hira";
lastChange = "2020-05-01 00:28:10 +0000";
layers = (
{
layerId = "1305C52C-0BD1-483E-A343-C05F3AFF2931";
paths = (
{
closed = 1;
nodes = (
"779 -102 OFFCURVE",
"774 -68 OFFCURVE",
"765 -57 CURVE SMOOTH",
"699 23 OFFCURVE",
"686 35 OFFCURVE",
"579 83 CURVE SMOOTH",
"472 131 OFFCURVE",
"383 132 OFFCURVE",
"383 132 CURVE SMOOTH",
"383 132 OFFCURVE",
"401 112 OFFCURVE",
"400 95 CURVE",
"400 81 OFFCURVE",
"360 65 OFFCURVE",
"339 66 CURVE",
"306 66 OFFCURVE",
"247 121 OFFCURVE",
"244 150 CURVE SMOOTH",
"240 192 OFFCURVE",
"314 197 OFFCURVE",
"314 197 CURVE SMOOTH",
"314 197 OFFCURVE",
"271 254 OFFCURVE",
"245 276 CURVE SMOOTH",
"214 302 OFFCURVE",
"167 340 OFFCURVE",
"145 342 CURVE",
"117 346 OFFCURVE",
"37 329 OFFCURVE",
"31 346 CURVE SMOOTH",
"25 362 OFFCURVE",
"57 401 OFFCURVE",
"78 420 CURVE SMOOTH",
"100 440 OFFCURVE",
"153 474 OFFCURVE",
"164 464 CURVE",
"175 453 OFFCURVE",
"162 423 OFFCURVE",
"167 407 CURVE SMOOTH",
"175 381 OFFCURVE",
"224 341 OFFCURVE",
"263 299 CURVE SMOOTH",
"315 243 OFFCURVE",
"350 197 OFFCURVE",
"350 197 CURVE SMOOTH",
"350 197 OFFCURVE",
"492 183 OFFCURVE",
"609 124 CURVE SMOOTH",
"706 75 OFFCURVE",
"791 -26 OFFCURVE",
"795 -56 CURVE SMOOTH",
"797 -73 OFFCURVE",
"789 -101 OFFCURVE",
"784 -101 CURVE"
);
},
{
closed = 1;
nodes = (
"334 92 OFFCURVE",
"355 93 OFFCURVE",
"360 99 CURVE",
"370 110 OFFCURVE",
"349 136 OFFCURVE",
"349 136 CURVE SMOOTH",
"349 136 OFFCURVE",
"289 142 OFFCURVE",
"283 131 CURVE SMOOTH",
"279 124 OFFCURVE",
"309 102 OFFCURVE",
"322 97 CURVE SMOOTH"
);
},
{
closed = 1;
nodes = (
"366 234 OFFCURVE",
"413 269 OFFCURVE",
"413 283 CURVE",
"414 300 OFFCURVE",
"331 328 OFFCURVE",
"331 354 CURVE SMOOTH",
"331 386 OFFCURVE",
"388 438 OFFCURVE",
"431 439 CURVE SMOOTH",
"475 440 OFFCURVE",
"539 445 OFFCURVE",
"583 452 CURVE SMOOTH",
"660 464 OFFCURVE",
"753 537 OFFCURVE",
"758 593 CURVE SMOOTH",
"761 624 OFFCURVE",
"734 695 OFFCURVE",
"740 699 CURVE",
"748 703 OFFCURVE",
"797 619 OFFCURVE",
"797 580 CURVE SMOOTH",
"797 448 OFFCURVE",
"668 383 OFFCURVE",
"604 381 CURVE SMOOTH",
"536 379 OFFCURVE",
"460 379 OFFCURVE",
"421 379 CURVE SMOOTH",
"401 379 OFFCURVE",
"380 364 OFFCURVE",
"380 349 CURVE SMOOTH",
"380 312 OFFCURVE",
"503 315 OFFCURVE",
"507 274 CURVE SMOOTH",
"509 253 OFFCURVE",
"480 228 OFFCURVE",
"461 226 CURVE SMOOTH",
"433 223 OFFCURVE",
"423 224 OFFCURVE",
"409 222 CURVE",
"398 221 OFFCURVE",
"381 213 OFFCURVE",
"375 221 CURVE"
);
}
);
width = 827;
}
);
unicode = 3072;
},
{
glyphname = "bi-hira";
lastChange = "2020-05-01 00:28:23 +0000";
layers = (
{
layerId = "1305C52C-0BD1-483E-A343-C05F3AFF2931";
paths = (
{
closed = 1;
nodes = (
"721 -60 OFFCURVE",
"701 -8 OFFCURVE",
"647 35 CURVE SMOOTH",
"623 54 OFFCURVE",
"567 88 OFFCURVE",
"508 108 CURVE SMOOTH",
"432 134 OFFCURVE",
"350 145 OFFCURVE",
"350 145 CURVE",
"350 145 OFFCURVE",
"366 120 OFFCURVE",
"364 106 CURVE SMOOTH",
"362 94 OFFCURVE",
"333 81 OFFCURVE",
"315 82 CURVE SMOOTH",
"297 83 OFFCURVE",
"269 96 OFFCURVE",
"254 112 CURVE SMOOTH",
"240 127 OFFCURVE",
"229 156 OFFCURVE",
"231 172 CURVE SMOOTH",
"236 209 OFFCURVE",
"288 203 OFFCURVE",
"288 203 CURVE",
"288 203 OFFCURVE",
"252 256 OFFCURVE",
"214 286 CURVE SMOOTH",
"185 309 OFFCURVE",
"138 342 OFFCURVE",
"108 342 CURVE SMOOTH",
"93 342 OFFCURVE",
"76 334 OFFCURVE",
"63 334 CURVE SMOOTH",
"50 334 OFFCURVE",
"28 332 OFFCURVE",
"30 343 CURVE SMOOTH",
"32 355 OFFCURVE",
"56 391 OFFCURVE",
"74 409 CURVE SMOOTH",
"92 427 OFFCURVE",
"129 452 OFFCURVE",
"143 450 CURVE SMOOTH",
"157 448 OFFCURVE",
"149 401 OFFCURVE",
"159 386 CURVE SMOOTH",
"180 355 OFFCURVE",
"242 298 OFFCURVE",
"270 268 CURVE SMOOTH",
"289 247 OFFCURVE",
"326 201 OFFCURVE",
"326 201 CURVE",
"326 201 OFFCURVE",
"479 183 OFFCURVE",
"562 134 CURVE SMOOTH",
"771 11 OFFCURVE",
"721 -60 OFFCURVE",
"721 -60 CURVE"
);
},
{
closed = 1;
nodes = (
"306 110 OFFCURVE",
"324 109 OFFCURVE",
"329 115 CURVE SMOOTH",
"340 128 OFFCURVE",
"317 150 OFFCURVE",
"317 150 CURVE",
"317 150 OFFCURVE",
"278 154 OFFCURVE",
"268 152 CURVE SMOOTH",
"262 151 OFFCURVE",
"267 139 OFFCURVE",
"269 134 CURVE SMOOTH",
"272 127 OFFCURVE",
"285 116 OFFCURVE",
"296 113 CURVE SMOOTH"
);
},
{
closed = 1;
nodes = (
"351 224 LINE",
"351 252 OFFCURVE",
"387 260 OFFCURVE",
"387 280 CURVE SMOOTH",
"387 303 OFFCURVE",
"310 299 OFFCURVE",
"310 354 CURVE SMOOTH",
"310 435 OFFCURVE",
"412 429 OFFCURVE",
"465 431 CURVE SMOOTH",
"523 433 OFFCURVE",
"689 468 OFFCURVE",
"694 592 CURVE SMOOTH",
"695 615 OFFCURVE",
"672 665 OFFCURVE",
"672 665 CURVE",
"672 665 OFFCURVE",
"740 632 OFFCURVE",
"739 532 CURVE SMOOTH",
"738 432 OFFCURVE",
"600 366 OFFCURVE",
"535 365 CURVE SMOOTH",
"491 364 OFFCURVE",
"428 368 OFFCURVE",
"398 368 CURVE SMOOTH",
"382 368 OFFCURVE",
"348 358 OFFCURVE",
"349 342 CURVE SMOOTH",
"350 324 OFFCURVE",
"393 308 OFFCURVE",
"418 306 CURVE SMOOTH",
"438 304 OFFCURVE",
"469 285 OFFCURVE",
"470 274 CURVE SMOOTH",
"471 261 OFFCURVE",
"448 237 OFFCURVE",
"432 234 CURVE SMOOTH",
"414 231 OFFCURVE",
"393 231 OFFCURVE",
"380 230 CURVE SMOOTH",
"370 229 OFFCURVE",
"351 215 OFFCURVE",
"351 224 CURVE"
);
},
{
closed = 1;
nodes = (
"210 371 LINE",
"200 374 OFFCURVE",
"236 402 OFFCURVE",
"236 422 CURVE SMOOTH",
"236 443 OFFCURVE",
"206 475 OFFCURVE",
"207 500 CURVE SMOOTH",
"208 527 OFFCURVE",
"248 555 OFFCURVE",
"271 556 CURVE SMOOTH",
"295 557 OFFCURVE",
"321 539 OFFCURVE",
"322 522 CURVE SMOOTH",
"323 506 OFFCURVE",
"315 473 OFFCURVE",
"305 473 CURVE SMOOTH",
"295 473 OFFCURVE",
"277 511 OFFCURVE",
"266 511 CURVE SMOOTH",
"255 511 OFFCURVE",
"240 499 OFFCURVE",
"241 488 CURVE SMOOTH",
"244 455 OFFCURVE",
"298 431 OFFCURVE",
"296 412 CURVE SMOOTH",
"293 382 OFFCURVE",
"220 369 OFFCURVE",
"210 371 CURVE"
);
}
);
width = 749;
}
);
unicode = 3073;
},
{
glyphname = "pi-hira";
lastChange = "2020-05-01 00:28:34 +0000";
layers = (
{
layerId = "1305C52C-0BD1-483E-A343-C05F3AFF2931";
paths = (
{
closed = 1;
nodes = (
"721 -62 OFFCURVE",
"702 -9 OFFCURVE",
"647 34 CURVE SMOOTH",
"623 53 OFFCURVE",
"567 86 OFFCURVE",
"508 106 CURVE SMOOTH",
"433 131 OFFCURVE",
"350 144 OFFCURVE",
"350 144 CURVE",
"350 144 OFFCURVE",
"366 118 OFFCURVE",
"364 105 CURVE SMOOTH",
"362 93 OFFCURVE",
"334 79 OFFCURVE",
"315 80 CURVE SMOOTH",
"297 81 OFFCURVE",
"268 95 OFFCURVE",
"254 110 CURVE SMOOTH",
"240 125 OFFCURVE",
"229 155 OFFCURVE",
"231 171 CURVE SMOOTH",
"236 208 OFFCURVE",
"288 202 OFFCURVE",
"288 202 CURVE",
"288 202 OFFCURVE",
"252 254 OFFCURVE",
"214 284 CURVE SMOOTH",
"185 307 OFFCURVE",
"139 341 OFFCURVE",
"108 341 CURVE SMOOTH",
"93 341 OFFCURVE",
"76 333 OFFCURVE",
"63 333 CURVE SMOOTH",
"50 333 OFFCURVE",
"28 331 OFFCURVE",
"30 341 CURVE SMOOTH",
"32 353 OFFCURVE",
"56 389 OFFCURVE",
"75 407 CURVE SMOOTH",
"94 425 OFFCURVE",
"130 450 OFFCURVE",
"144 449 CURVE SMOOTH",
"158 448 OFFCURVE",
"149 400 OFFCURVE",
"159 385 CURVE SMOOTH",
"180 354 OFFCURVE",
"243 298 OFFCURVE",
"270 267 CURVE SMOOTH",
"289 245 OFFCURVE",
"326 200 OFFCURVE",
"326 200 CURVE",
"326 200 OFFCURVE",
"479 182 OFFCURVE",
"562 132 CURVE SMOOTH",
"769 7 OFFCURVE",
"721 -62 OFFCURVE",
"721 -62 CURVE"
);
},
{
closed = 1;
nodes = (
"307 107 OFFCURVE",
"324 108 OFFCURVE",
"329 113 CURVE SMOOTH",
"342 126 OFFCURVE",
"317 148 OFFCURVE",
"317 148 CURVE",
"317 148 OFFCURVE",
"278 153 OFFCURVE",
"268 150 CURVE SMOOTH",
"262 148 OFFCURVE",
"267 138 OFFCURVE",
"269 133 CURVE SMOOTH",
"272 126 OFFCURVE",
"286 115 OFFCURVE",
"296 111 CURVE SMOOTH"
);
},
{
closed = 1;
nodes = (
"351 222 LINE",
"351 251 OFFCURVE",
"387 259 OFFCURVE",
"387 279 CURVE SMOOTH",
"387 302 OFFCURVE",
"310 298 OFFCURVE",
"310 353 CURVE SMOOTH",
"310 433 OFFCURVE",
"412 428 OFFCURVE",
"465 429 CURVE SMOOTH",
"523 430 OFFCURVE",
"689 466 OFFCURVE",
"694 590 CURVE SMOOTH",
"695 614 OFFCURVE",
"672 664 OFFCURVE",
"672 664 CURVE",
"672 664 OFFCURVE",
"740 630 OFFCURVE",
"739 531 CURVE SMOOTH",
"738 430 OFFCURVE",
"600 364 OFFCURVE",
"535 363 CURVE SMOOTH",
"491 362 OFFCURVE",
"429 366 OFFCURVE",
"398 366 CURVE SMOOTH",
"382 366 OFFCURVE",
"348 356 OFFCURVE",
"349 340 CURVE SMOOTH",
"350 323 OFFCURVE",
"393 306 OFFCURVE",
"418 304 CURVE SMOOTH",
"438 302 OFFCURVE",
"469 284 OFFCURVE",
"470 272 CURVE SMOOTH",
"471 260 OFFCURVE",
"448 235 OFFCURVE",
"432 232 CURVE SMOOTH",
"414 229 OFFCURVE",
"394 229 OFFCURVE",
"380 228 CURVE SMOOTH",
"370 227 OFFCURVE",
"351 214 OFFCURVE",
"351 222 CURVE"
);
},
{
closed = 1;
nodes = (
"251 415 LINE",
"199 413 OFFCURVE",
"171 471 OFFCURVE",
"172 507 CURVE SMOOTH",
"173 536 OFFCURVE",
"183 584 OFFCURVE",
"243 586 CURVE SMOOTH",
"278 587 OFFCURVE",
"321 550 OFFCURVE",
"321 519 CURVE SMOOTH",
"321 508 OFFCURVE",
"319 483 OFFCURVE",
"313 482 CURVE SMOOTH",
"308 481 OFFCURVE",
"292 498 OFFCURVE",
"288 509 CURVE SMOOTH",
"282 525 OFFCURVE",
"253 547 OFFCURVE",
"240 547 CURVE SMOOTH",
"213 547 OFFCURVE",
"202 528 OFFCURVE",
"202 501 CURVE SMOOTH",
"202 485 OFFCURVE",
"214 451 OFFCURVE",
"231 451 CURVE SMOOTH",
"248 451 OFFCURVE",
"253 472 OFFCURVE",
"266 477 CURVE SMOOTH",
"278 482 OFFCURVE",
"297 489 OFFCURVE",
"306 476 CURVE SMOOTH",
"312 467 OFFCURVE",
"271 416 OFFCURVE",
"251 415 CURVE"
);
}
);
width = 769;
}
);
unicode = 3074;
},
{
glyphname = "hu-hira";
lastChange = "2020-05-01 00:28:45 +0000";
layers = (
{
layerId = "1305C52C-0BD1-483E-A343-C05F3AFF2931";
paths = (
{
closed = 1;
nodes = (
"634 -38 OFFCURVE",
"607 26 OFFCURVE",
"569 65 CURVE SMOOTH",
"498 138 OFFCURVE",
"444 148 OFFCURVE",
"444 148 CURVE SMOOTH",
"444 148 OFFCURVE",
"455 77 OFFCURVE",
"419 73 CURVE SMOOTH",
"379 69 OFFCURVE",
"340 92 OFFCURVE",
"310 111 CURVE SMOOTH",
"282 129 OFFCURVE",
"241 161 OFFCURVE",
"239 185 CURVE SMOOTH",
"237 206 OFFCURVE",
"275 232 OFFCURVE",
"297 233 CURVE SMOOTH",
"321 234 OFFCURVE",
"373 227 OFFCURVE",
"373 227 CURVE",
"344 266 LINE",
"344 266 OFFCURVE",
"262 268 OFFCURVE",
"220 268 CURVE SMOOTH",
"181 268 OFFCURVE",
"141 260 OFFCURVE",
"110 253 CURVE SMOOTH",
"87 248 OFFCURVE",
"40 219 OFFCURVE",
"32 228 CURVE SMOOTH",
"22 240 OFFCURVE",
"64 319 OFFCURVE",
"83 344 CURVE SMOOTH",
"94 359 OFFCURVE",
"118 380 OFFCURVE",
"139 380 CURVE SMOOTH",
"167 380 OFFCURVE",
"161 327 OFFCURVE",
"174 315 CURVE SMOOTH",
"192 299 OFFCURVE",
"323 301 OFFCURVE",
"323 301 CURVE SMOOTH",
"323 301 OFFCURVE",
"295 333 OFFCURVE",
"281 347 CURVE SMOOTH",
"268 360 OFFCURVE",
"240 383 OFFCURVE",
"226 383 CURVE SMOOTH",
"206 383 OFFCURVE",
"195 361 OFFCURVE",
"187 369 CURVE SMOOTH",
"181 375 OFFCURVE",
"191 427 OFFCURVE",
"204 444 CURVE SMOOTH",
"216 459 OFFCURVE",
"236 467 OFFCURVE",
"250 466 CURVE SMOOTH",
"266 465 OFFCURVE",
"270 433 OFFCURVE",
"278 421 CURVE SMOOTH",
"286 409 OFFCURVE",
"308 385 OFFCURVE",
"325 361 CURVE SMOOTH",
"346 331 OFFCURVE",
"364 300 OFFCURVE",
"364 300 CURVE",
"585 302 LINE",
"585 302 OFFCURVE",
"557 397 OFFCURVE",
"542 443 CURVE SMOOTH",
"523 502 OFFCURVE",
"467 640 OFFCURVE",
"480 643 CURVE SMOOTH",
"489 645 OFFCURVE",
"523 555 OFFCURVE",
"561 460 CURVE SMOOTH",
"593 380 OFFCURVE",
"629 303 OFFCURVE",
"629 303 CURVE SMOOTH",
"629 303 OFFCURVE",
"737 306 OFFCURVE",
"768 306 CURVE SMOOTH",
"783 306 OFFCURVE",
"800 328 OFFCURVE",
"818 329 CURVE SMOOTH",
"835 330 OFFCURVE",
"866 319 OFFCURVE",
"866 301 CURVE SMOOTH",
"866 287 OFFCURVE",
"829 254 OFFCURVE",
"810 253 CURVE SMOOTH",
"794 252 OFFCURVE",
"780 262 OFFCURVE",
"763 262 CURVE SMOOTH",
"736 262 OFFCURVE",
"643 267 OFFCURVE",
"643 267 CURVE SMOOTH",
"643 267 OFFCURVE",
"649 258 OFFCURVE",
"652 251 CURVE SMOOTH",
"655 244 OFFCURVE",
"685 241 OFFCURVE",
"684 225 CURVE SMOOTH",
"683 201 OFFCURVE",
"653 166 OFFCURVE",
"623 163 CURVE SMOOTH",
"600 161 OFFCURVE",
"559 178 OFFCURVE",
"559 190 CURVE SMOOTH",
"559 204 OFFCURVE",
"594 207 OFFCURVE",
"600 219 CURVE SMOOTH",
"606 232 OFFCURVE",
"595 265 OFFCURVE",
"595 265 CURVE",
"381 269 LINE",
"381 269 OFFCURVE",
"402 234 OFFCURVE",
"423 216 CURVE SMOOTH",
"444 198 OFFCURVE",
"500 175 OFFCURVE",
"555 128 CURVE SMOOTH",
"643 53 OFFCURVE",
"654 -30 OFFCURVE",
"642 -35 CURVE SMOOTH"
);
},
{
closed = 1;
nodes = (
"430 98 OFFCURVE",
"414 158 OFFCURVE",
"400 170 CURVE SMOOTH",
"386 182 OFFCURVE",
"358 185 OFFCURVE",
"334 185 CURVE SMOOTH",
"316 185 OFFCURVE",
"284 189 OFFCURVE",
"283 169 CURVE SMOOTH",
"282 150 OFFCURVE",
"368 95 OFFCURVE",
"407 97 CURVE SMOOTH"
);
}
);
width = 896;
}
);
unicode = 3075;
},
{
glyphname = "bu-hira";
lastChange = "2020-05-01 00:28:56 +0000";
layers = (
{
layerId = "1305C52C-0BD1-483E-A343-C05F3AFF2931";
paths = (
{
closed = 1;
nodes = (
"646 -35 OFFCURVE",
"588 50 OFFCURVE",
"553 79 CURVE SMOOTH",
"517 109 OFFCURVE",
"433 155 OFFCURVE",
"433 155 CURVE",
"433 155 OFFCURVE",
"456 100 OFFCURVE",
"444 87 CURVE SMOOTH",
"432 74 OFFCURVE",
"385 73 OFFCURVE",
"364 79 CURVE SMOOTH",
"329 89 OFFCURVE",
"240 153 OFFCURVE",
"239 181 CURVE SMOOTH",
"238 206 OFFCURVE",
"273 221 OFFCURVE",
"295 227 CURVE SMOOTH",
"316 233 OFFCURVE",
"375 221 OFFCURVE",
"375 221 CURVE",
"375 221 OFFCURVE",
"337 287 OFFCURVE",
"314 313 CURVE SMOOTH",
"290 340 OFFCURVE",
"241 384 OFFCURVE",
"225 384 CURVE SMOOTH",
"211 384 OFFCURVE",
"192 355 OFFCURVE",
"189 364 CURVE",
"189 364 LINE",
"185 372 OFFCURVE",
"191 418 OFFCURVE",
"202 434 CURVE SMOOTH",
"213 450 OFFCURVE",
"222 460 OFFCURVE",
"241 459 CURVE SMOOTH",
"267 458 OFFCURVE",
"265 430 OFFCURVE",
"285 408 CURVE SMOOTH",
"303 389 OFFCURVE",
"320 363 OFFCURVE",
"349 325 CURVE SMOOTH",
"371 296 OFFCURVE",
"417 215 OFFCURVE",
"417 215 CURVE",
"417 215 OFFCURVE",
"517 162 OFFCURVE",
"555 126 CURVE SMOOTH",
"653 34 OFFCURVE",
"646 -35 OFFCURVE",
"646 -35 CURVE"
);
},
{
closed = 1;
nodes = (
"433 121 OFFCURVE",
"398 172 OFFCURVE",
"398 172 CURVE",
"398 172 OFFCURVE",
"356 181 OFFCURVE",
"336 182 CURVE SMOOTH",
"315 183 OFFCURVE",
"280 186 OFFCURVE",
"280 165 CURVE SMOOTH",
"280 153 OFFCURVE",
"321 123 OFFCURVE",
"345 111 CURVE SMOOTH",
"367 100 OFFCURVE",
"410 90 OFFCURVE",
"418 101 CURVE SMOOTH"
);
},
{
closed = 1;
nodes = (
"616 160 OFFCURVE",
"571 173 OFFCURVE",
"567 183 CURVE",
"567 183 LINE",
"561 196 OFFCURVE",
"605 210 OFFCURVE",
"605 226 CURVE SMOOTH",
"605 261 OFFCURVE",
"576 339 OFFCURVE",
"559 396 CURVE SMOOTH",
"538 465 OFFCURVE",
"479 639 OFFCURVE",
"479 639 CURVE",
"479 639 OFFCURVE",
"536 514 OFFCURVE",
"566 450 CURVE SMOOTH",
"589 401 OFFCURVE",
"628 285 OFFCURVE",
"657 248 CURVE SMOOTH",
"665 238 OFFCURVE",
"689 236 OFFCURVE",
"692 224 CURVE SMOOTH",
"695 210 OFFCURVE",
"668 179 OFFCURVE",
"646 171 CURVE SMOOTH"
);
},
{
closed = 1;
nodes = (
"31 234 LINE",
"26 240 OFFCURVE",
"42 261 OFFCURVE",
"49 274 CURVE SMOOTH",
"58 291 OFFCURVE",
"67 319 OFFCURVE",
"82 337 CURVE SMOOTH",
"97 356 OFFCURVE",
"120 376 OFFCURVE",
"136 375 CURVE SMOOTH",
"151 374 OFFCURVE",
"166 355 OFFCURVE",
"169 342 CURVE SMOOTH",
"172 330 OFFCURVE",
"167 310 OFFCURVE",
"175 306 CURVE SMOOTH",
"191 298 OFFCURVE",
"242 300 OFFCURVE",
"276 299 CURVE SMOOTH",
"367 296 OFFCURVE",
"633 297 OFFCURVE",
"724 300 CURVE SMOOTH",
"758 301 OFFCURVE",
"796 328 OFFCURVE",
"820 328 CURVE SMOOTH",
"839 328 OFFCURVE",
"870 314 OFFCURVE",
"870 299 CURVE SMOOTH",
"870 274 OFFCURVE",
"827 256 OFFCURVE",
"806 254 CURVE SMOOTH",
"785 252 OFFCURVE",
"762 261 OFFCURVE",
"743 261 CURVE SMOOTH",
"653 261 OFFCURVE",
"365 266 OFFCURVE",
"265 265 CURVE SMOOTH",
"92 263 OFFCURVE",
"107 247 OFFCURVE",
"74 238 CURVE SMOOTH",
"59 234 OFFCURVE",
"37 228 OFFCURVE",
"31 234 CURVE"
);
},
{
closed = 1;
nodes = (
"356 381 LINE",
"346 383 OFFCURVE",
"384 417 OFFCURVE",
"383 438 CURVE SMOOTH",
"382 461 OFFCURVE",
"352 494 OFFCURVE",
"353 518 CURVE SMOOTH",
"354 540 OFFCURVE",
"393 574 OFFCURVE",
"421 573 CURVE SMOOTH",
"442 572 OFFCURVE",
"465 553 OFFCURVE",
"466 531 CURVE SMOOTH",
"467 516 OFFCURVE",
"463 490 OFFCURVE",
"453 488 CURVE SMOOTH",
"444 486 OFFCURVE",
"430 525 OFFCURVE",
"409 525 CURVE SMOOTH",
"400 525 OFFCURVE",
"389 513 OFFCURVE",
"389 502 CURVE SMOOTH",
"389 472 OFFCURVE",
"443 447 OFFCURVE",
"443 424 CURVE SMOOTH",
"443 403 OFFCURVE",
"366 379 OFFCURVE",
"356 381 CURVE"
);
}
);
width = 900;
}
);
unicode = 3076;
},
{
glyphname = "pu-hira";
lastChange = "2020-05-01 00:29:08 +0000";
layers = (
{
layerId = "1305C52C-0BD1-483E-A343-C05F3AFF2931";
paths = (
{
closed = 1;
nodes = (
"645 -36 OFFCURVE",
"587 50 OFFCURVE",
"553 78 CURVE SMOOTH",
"516 108 OFFCURVE",
"433 155 OFFCURVE",
"433 155 CURVE",
"433 155 OFFCURVE",
"456 100 OFFCURVE",
"443 87 CURVE SMOOTH",
"430 74 OFFCURVE",
"384 73 OFFCURVE",
"364 79 CURVE SMOOTH",
"328 90 OFFCURVE",
"239 153 OFFCURVE",
"238 181 CURVE SMOOTH",
"237 205 OFFCURVE",
"272 221 OFFCURVE",
"294 227 CURVE SMOOTH",
"315 233 OFFCURVE",
"374 220 OFFCURVE",
"374 220 CURVE",
"374 220 OFFCURVE",
"336 287 OFFCURVE",
"313 312 CURVE SMOOTH",
"288 339 OFFCURVE",
"240 384 OFFCURVE",
"224 384 CURVE SMOOTH",
"210 384 OFFCURVE",
"191 355 OFFCURVE",
"188 363 CURVE",
"188 363 LINE",
"184 371 OFFCURVE",
"191 417 OFFCURVE",
"201 433 CURVE SMOOTH",
"211 449 OFFCURVE",
"221 460 OFFCURVE",
"240 459 CURVE SMOOTH",
"266 458 OFFCURVE",
"264 430 OFFCURVE",
"284 408 CURVE SMOOTH",
"302 388 OFFCURVE",
"320 362 OFFCURVE",
"348 325 CURVE SMOOTH",
"370 296 OFFCURVE",
"416 215 OFFCURVE",
"416 215 CURVE",
"416 215 OFFCURVE",
"516 161 OFFCURVE",
"554 125 CURVE SMOOTH",
"652 33 OFFCURVE",
"645 -36 OFFCURVE",
"645 -36 CURVE"
);
},
{
closed = 1;
nodes = (
"433 120 OFFCURVE",
"397 171 OFFCURVE",
"397 171 CURVE",
"397 171 OFFCURVE",
"355 181 OFFCURVE",
"335 182 CURVE SMOOTH",
"314 183 OFFCURVE",
"279 186 OFFCURVE",
"279 164 CURVE SMOOTH",
"279 152 OFFCURVE",
"321 122 OFFCURVE",
"344 110 CURVE SMOOTH",
"366 99 OFFCURVE",
"409 90 OFFCURVE",
"417 100 CURVE SMOOTH"
);
},
{
closed = 1;
nodes = (
"615 159 OFFCURVE",
"570 172 OFFCURVE",
"566 182 CURVE",
"566 182 LINE",
"560 195 OFFCURVE",
"604 209 OFFCURVE",
"604 225 CURVE SMOOTH",
"604 260 OFFCURVE",
"575 339 OFFCURVE",
"558 395 CURVE SMOOTH",
"537 464 OFFCURVE",
"478 639 OFFCURVE",
"478 639 CURVE",
"478 639 OFFCURVE",
"536 514 OFFCURVE",
"565 449 CURVE SMOOTH",
"587 400 OFFCURVE",
"629 286 OFFCURVE",
"656 248 CURVE SMOOTH",
"664 237 OFFCURVE",
"689 235 OFFCURVE",
"691 223 CURVE SMOOTH",
"693 210 OFFCURVE",
"667 178 OFFCURVE",
"645 170 CURVE SMOOTH"
);
},
{
closed = 1;
nodes = (
"31 233 LINE",
"25 239 OFFCURVE",
"42 260 OFFCURVE",
"48 273 CURVE SMOOTH",
"56 291 OFFCURVE",
"66 318 OFFCURVE",
"82 337 CURVE SMOOTH",
"97 355 OFFCURVE",
"119 375 OFFCURVE",
"135 375 CURVE SMOOTH",
"150 375 OFFCURVE",
"166 354 OFFCURVE",
"168 342 CURVE SMOOTH",
"170 330 OFFCURVE",
"166 309 OFFCURVE",
"175 306 CURVE SMOOTH",
"192 300 OFFCURVE",
"241 299 OFFCURVE",
"275 299 CURVE SMOOTH",
"366 299 OFFCURVE",
"632 296 OFFCURVE",
"724 299 CURVE SMOOTH",
"757 300 OFFCURVE",
"795 328 OFFCURVE",
"819 327 CURVE SMOOTH",
"838 326 OFFCURVE",
"869 314 OFFCURVE",
"869 298 CURVE SMOOTH",
"869 273 OFFCURVE",
"826 255 OFFCURVE",
"805 254 CURVE SMOOTH",
"785 253 OFFCURVE",
"761 260 OFFCURVE",
"742 260 CURVE SMOOTH",
"652 260 OFFCURVE",
"364 266 OFFCURVE",
"264 264 CURVE SMOOTH",
"91 261 OFFCURVE",
"107 246 OFFCURVE",
"73 237 CURVE SMOOTH",
"58 233 OFFCURVE",
"36 227 OFFCURVE",
"31 233 CURVE"
);
},
{
closed = 1;
nodes = (
"401 389 LINE",
"349 387 OFFCURVE",
"321 445 OFFCURVE",
"322 482 CURVE SMOOTH",
"323 511 OFFCURVE",
"333 558 OFFCURVE",
"393 560 CURVE SMOOTH",
"428 561 OFFCURVE",
"471 524 OFFCURVE",
"471 493 CURVE SMOOTH",
"471 482 OFFCURVE",
"469 457 OFFCURVE",
"463 457 CURVE SMOOTH",
"458 457 OFFCURVE",
"441 472 OFFCURVE",
"438 484 CURVE SMOOTH",
"434 499 OFFCURVE",
"403 521 OFFCURVE",
"390 521 CURVE SMOOTH",
"363 521 OFFCURVE",
"352 503 OFFCURVE",
"352 475 CURVE SMOOTH",
"352 459 OFFCURVE",
"364 426 OFFCURVE",
"381 425 CURVE SMOOTH",
"398 424 OFFCURVE",
"403 447 OFFCURVE",
"416 451 CURVE SMOOTH",
"428 455 OFFCURVE",
"446 463 OFFCURVE",
"456 451 CURVE SMOOTH",
"463 442 OFFCURVE",
"421 390 OFFCURVE",
"401 389 CURVE"
);
}
);
width = 899;
}
);
unicode = 3077;
},
{
glyphname = "he-hira";
lastChange = "2020-05-01 00:29:20 +0000";
layers = (
{
layerId = "1305C52C-0BD1-483E-A343-C05F3AFF2931";
paths = (
{
closed = 1;
nodes = (
"491 51 OFFCURVE",
"496 85 OFFCURVE",
"483 104 CURVE SMOOTH",
"466 128 OFFCURVE",
"451 157 OFFCURVE",
"431 179 CURVE SMOOTH",
"399 214 OFFCURVE",
"350 256 OFFCURVE",
"350 256 CURVE SMOOTH",
"350 256 OFFCURVE",
"346 173 OFFCURVE",
"293 174 CURVE SMOOTH",
"220 175 OFFCURVE",
"179 270 OFFCURVE",
"182 306 CURVE SMOOTH",
"187 363 OFFCURVE",
"249 357 OFFCURVE",
"249 357 CURVE SMOOTH",
"249 357 OFFCURVE",
"222 386 OFFCURVE",
"184 410 CURVE SMOOTH",
"162 424 OFFCURVE",
"134 441 OFFCURVE",
"116 447 CURVE SMOOTH",
"85 457 OFFCURVE",
"82 442 OFFCURVE",
"68 439 CURVE SMOOTH",
"55 436 OFFCURVE",
"37 433 OFFCURVE",
"32 440 CURVE SMOOTH",
"24 452 OFFCURVE",
"44 492 OFFCURVE",
"56 511 CURVE SMOOTH",
"68 530 OFFCURVE",
"88 554 OFFCURVE",
"104 554 CURVE SMOOTH",
"130 554 OFFCURVE",
"126 503 OFFCURVE",
"142 487 CURVE SMOOTH",
"166 463 OFFCURVE",
"228 417 OFFCURVE",
"274 374 CURVE SMOOTH",
"329 323 OFFCURVE",
"388 278 OFFCURVE",
"388 278 CURVE SMOOTH",
"388 278 OFFCURVE",
"390 407 OFFCURVE",
"412 456 CURVE SMOOTH",
"427 489 OFFCURVE",
"474 536 OFFCURVE",
"507 536 CURVE SMOOTH",
"544 536 OFFCURVE",
"586 496 OFFCURVE",
"606 460 CURVE SMOOTH",
"633 412 OFFCURVE",
"678 306 OFFCURVE",
"718 305 CURVE SMOOTH",
"792 303 OFFCURVE",
"844 411 OFFCURVE",
"849 407 CURVE SMOOTH",
"857 400 OFFCURVE",
"795 267 OFFCURVE",
"716 271 CURVE SMOOTH",
"601 277 OFFCURVE",
"570 453 OFFCURVE",
"508 454 CURVE SMOOTH",
"459 455 OFFCURVE",
"422 384 OFFCURVE",
"421 333 CURVE SMOOTH",
"419 253 OFFCURVE",
"520 147 OFFCURVE",
"541 145 CURVE SMOOTH",
"550 144 OFFCURVE",
"561 149 OFFCURVE",
"570 148 CURVE SMOOTH",
"585 146 OFFCURVE",
"613 120 OFFCURVE",
"612 105 CURVE SMOOTH",
"611 86 OFFCURVE",
"553 51 OFFCURVE",
"534 51 CURVE SMOOTH"
);
},
{
closed = 1;
nodes = (
"316 208 OFFCURVE",
"310 242 OFFCURVE",
"310 253 CURVE SMOOTH",
"310 295 OFFCURVE",
"259 298 OFFCURVE",
"249 298 CURVE SMOOTH",
"231 298 OFFCURVE",
"218 298 OFFCURVE",
"218 282 CURVE SMOOTH",
"218 258 OFFCURVE",
"240 218 OFFCURVE",
"277 213 CURVE SMOOTH"
);
}
);
width = 880;
}
);
unicode = 3078;
},
{
glyphname = "be-hira";
lastChange = "2020-05-01 00:29:30 +0000";
layers = (
{
layerId = "1305C52C-0BD1-483E-A343-C05F3AFF2931";
paths = (
{
closed = 1;
nodes = (
"496 31 OFFCURVE",
"502 70 OFFCURVE",
"488 87 CURVE SMOOTH",
"470 108 OFFCURVE",
"449 142 OFFCURVE",
"429 165 CURVE SMOOTH",
"409 188 OFFCURVE",
"361 228 OFFCURVE",
"361 228 CURVE",
"361 228 OFFCURVE",
"352 158 OFFCURVE",
"297 159 CURVE SMOOTH",
"246 160 OFFCURVE",
"219 191 OFFCURVE",
"201 220 CURVE SMOOTH",
"178 257 OFFCURVE",
"181 300 OFFCURVE",
"202 321 CURVE SMOOTH",
"215 334 OFFCURVE",
"251 333 OFFCURVE",
"251 333 CURVE",
"251 333 OFFCURVE",
"208 378 OFFCURVE",
"183 394 CURVE SMOOTH",
"158 410 OFFCURVE",
"118 427 OFFCURVE",
"99 430 CURVE SMOOTH",
"88 432 OFFCURVE",
"79 419 OFFCURVE",
"68 417 CURVE SMOOTH",
"57 415 OFFCURVE",
"32 410 OFFCURVE",
"30 420 CURVE",
"30 420 LINE",
"29 432 OFFCURVE",
"48 474 OFFCURVE",
"60 493 CURVE SMOOTH",
"71 511 OFFCURVE",
"90 533 OFFCURVE",
"105 533 CURVE SMOOTH",
"140 533 OFFCURVE",
"129 484 OFFCURVE",
"146 467 CURVE SMOOTH",
"174 439 OFFCURVE",
"230 396 OFFCURVE",
"268 358 CURVE SMOOTH",
"320 306 OFFCURVE",
"395 255 OFFCURVE",
"395 255 CURVE",
"395 255 OFFCURVE",
"386 398 OFFCURVE",
"432 460 CURVE SMOOTH",
"452 487 OFFCURVE",
"481 513 OFFCURVE",
"510 512 CURVE SMOOTH",
"582 510 OFFCURVE",
"605 429 OFFCURVE",
"632 384 CURVE SMOOTH",
"655 346 OFFCURVE",
"689 286 OFFCURVE",
"725 286 CURVE SMOOTH",
"792 286 OFFCURVE",
"852 386 OFFCURVE",
"852 386 CURVE",
"852 386 OFFCURVE",
"813 251 OFFCURVE",
"718 249 CURVE SMOOTH",
"663 248 OFFCURVE",
"617 311 OFFCURVE",
"596 347 CURVE SMOOTH",
"574 384 OFFCURVE",
"533 440 OFFCURVE",
"507 439 CURVE SMOOTH",
"478 438 OFFCURVE",
"423 392 OFFCURVE",
"423 320 CURVE SMOOTH",
"423 241 OFFCURVE",
"465 197 OFFCURVE",
"491 170 CURVE SMOOTH",
"507 153 OFFCURVE",
"528 138 OFFCURVE",
"545 134 CURVE SMOOTH",
"553 132 OFFCURVE",
"571 127 OFFCURVE",
"581 122 CURVE SMOOTH",
"593 116 OFFCURVE",
"614 97 OFFCURVE",
"614 83 CURVE SMOOTH",
"614 66 OFFCURVE",
"564 31 OFFCURVE",
"544 31 CURVE SMOOTH"
);
},
{
closed = 1;
nodes = (
"294 191 OFFCURVE",
"311 210 OFFCURVE",
"313 222 CURVE SMOOTH",
"315 235 OFFCURVE",
"306 255 OFFCURVE",
"296 265 CURVE SMOOTH",
"286 275 OFFCURVE",
"268 278 OFFCURVE",
"252 280 CURVE SMOOTH",
"239 282 OFFCURVE",
"218 284 OFFCURVE",
"218 253 CURVE SMOOTH",
"218 238 OFFCURVE",
"241 195 OFFCURVE",
"279 192 CURVE SMOOTH"
);
},
{
closed = 1;
nodes = (
"290 385 LINE",
"281 386 OFFCURVE",
"317 417 OFFCURVE",
"317 436 CURVE SMOOTH",
"317 459 OFFCURVE",
"287 486 OFFCURVE",
"288 516 CURVE SMOOTH",
"289 540 OFFCURVE",
"322 573 OFFCURVE",
"352 573 CURVE SMOOTH",
"379 573 OFFCURVE",
"401 546 OFFCURVE",
"401 530 CURVE SMOOTH",
"401 515 OFFCURVE",
"394 489 OFFCURVE",
"384 488 CURVE SMOOTH",
"375 487 OFFCURVE",
"362 526 OFFCURVE",
"343 526 CURVE SMOOTH",
"332 526 OFFCURVE",
"318 512 OFFCURVE",
"318 500 CURVE SMOOTH",
"318 476 OFFCURVE",
"376 445 OFFCURVE",
"375 427 CURVE SMOOTH",
"373 394 OFFCURVE",
"300 383 OFFCURVE",
"290 385 CURVE"
);
}
);
width = 882;
}
);
unicode = 3079;
},
{
glyphname = "pe-hira";
lastChange = "2020-05-01 00:29:48 +0000";
layers = (
{
layerId = "1305C52C-0BD1-483E-A343-C05F3AFF2931";
paths = (
{
closed = 1;
nodes = (
"496 30 OFFCURVE",
"502 68 OFFCURVE",
"488 85 CURVE SMOOTH",
"470 107 OFFCURVE",
"449 140 OFFCURVE",
"429 164 CURVE SMOOTH",
"409 187 OFFCURVE",
"361 227 OFFCURVE",
"361 227 CURVE",
"361 227 OFFCURVE",
"352 156 OFFCURVE",
"297 157 CURVE SMOOTH",
"245 158 OFFCURVE",
"219 190 OFFCURVE",
"200 219 CURVE SMOOTH",
"176 255 OFFCURVE",
"180 298 OFFCURVE",
"202 320 CURVE SMOOTH",
"215 333 OFFCURVE",
"251 332 OFFCURVE",
"251 332 CURVE",
"251 332 OFFCURVE",
"208 377 OFFCURVE",
"183 393 CURVE SMOOTH",
"158 409 OFFCURVE",
"118 426 OFFCURVE",
"99 429 CURVE SMOOTH",
"88 431 OFFCURVE",
"79 417 OFFCURVE",
"68 416 CURVE SMOOTH",
"56 415 OFFCURVE",
"32 409 OFFCURVE",
"30 419 CURVE SMOOTH",
"28 431 OFFCURVE",
"47 472 OFFCURVE",
"60 491 CURVE SMOOTH",
"72 509 OFFCURVE",
"90 531 OFFCURVE",
"105 531 CURVE SMOOTH",
"140 531 OFFCURVE",
"129 483 OFFCURVE",
"146 465 CURVE SMOOTH",
"172 437 OFFCURVE",
"230 395 OFFCURVE",
"268 357 CURVE SMOOTH",
"320 305 OFFCURVE",
"395 254 OFFCURVE",
"395 254 CURVE",
"395 254 OFFCURVE",
"386 396 OFFCURVE",
"432 458 CURVE SMOOTH",
"452 485 OFFCURVE",
"481 512 OFFCURVE",
"510 511 CURVE SMOOTH",
"582 509 OFFCURVE",
"605 428 OFFCURVE",
"631 383 CURVE SMOOTH",
"654 344 OFFCURVE",
"688 284 OFFCURVE",
"725 284 CURVE SMOOTH",
"792 284 OFFCURVE",
"852 385 OFFCURVE",
"852 385 CURVE",
"852 385 OFFCURVE",
"813 250 OFFCURVE",
"718 248 CURVE SMOOTH",
"663 247 OFFCURVE",
"616 310 OFFCURVE",
"595 345 CURVE SMOOTH",
"573 382 OFFCURVE",
"533 439 OFFCURVE",
"506 437 CURVE SMOOTH",
"478 435 OFFCURVE",
"423 390 OFFCURVE",
"423 319 CURVE SMOOTH",
"423 239 OFFCURVE",
"466 196 OFFCURVE",
"491 169 CURVE SMOOTH",
"507 152 OFFCURVE",
"528 135 OFFCURVE",
"545 133 CURVE SMOOTH",
"553 132 OFFCURVE",
"571 126 OFFCURVE",
"581 121 CURVE SMOOTH",
"593 115 OFFCURVE",
"614 96 OFFCURVE",
"614 82 CURVE SMOOTH",
"614 65 OFFCURVE",
"563 30 OFFCURVE",
"544 30 CURVE SMOOTH"
);
},
{
closed = 1;
nodes = (
"294 190 OFFCURVE",
"311 209 OFFCURVE",
"313 221 CURVE SMOOTH",
"315 233 OFFCURVE",
"306 254 OFFCURVE",
"296 264 CURVE SMOOTH",
"286 274 OFFCURVE",
"268 277 OFFCURVE",
"252 279 CURVE SMOOTH",
"239 281 OFFCURVE",
"216 282 OFFCURVE",
"218 252 CURVE SMOOTH",
"219 237 OFFCURVE",
"241 194 OFFCURVE",
"279 191 CURVE SMOOTH"
);
},
{
closed = 1;
nodes = (
"318 400 LINE",
"266 398 OFFCURVE",
"237 456 OFFCURVE",
"239 492 CURVE SMOOTH",
"241 521 OFFCURVE",
"249 569 OFFCURVE",
"310 571 CURVE SMOOTH",
"345 572 OFFCURVE",
"385 535 OFFCURVE",
"388 504 CURVE SMOOTH",
"389 493 OFFCURVE",
"386 468 OFFCURVE",
"380 467 CURVE SMOOTH",
"374 466 OFFCURVE",
"358 483 OFFCURVE",
"355 494 CURVE SMOOTH",
"351 510 OFFCURVE",
"320 532 OFFCURVE",
"307 532 CURVE SMOOTH",
"280 532 OFFCURVE",
"269 513 OFFCURVE",
"269 486 CURVE SMOOTH",
"269 470 OFFCURVE",
"281 436 OFFCURVE",
"297 436 CURVE SMOOTH",
"315 436 OFFCURVE",
"320 457 OFFCURVE",
"333 462 CURVE SMOOTH",
"345 467 OFFCURVE",
"363 474 OFFCURVE",
"373 461 CURVE SMOOTH",
"380 452 OFFCURVE",
"338 401 OFFCURVE",
"318 400 CURVE"
);
}
);
width = 882;
}
);
unicode = 307A;
},
{
glyphname = "ho-hira";
lastChange = "2020-05-01 00:29:59 +0000";
layers = (
{
layerId = "1305C52C-0BD1-483E-A343-C05F3AFF2931";
paths = (
{
closed = 1;
nodes = (
"736 -39 OFFCURVE",
"687 26 OFFCURVE",
"651 62 CURVE SMOOTH",
"612 101 OFFCURVE",
"541 141 OFFCURVE",
"541 141 CURVE SMOOTH",
"541 141 OFFCURVE",
"546 106 OFFCURVE",
"536 82 CURVE SMOOTH",
"525 56 OFFCURVE",
"480 64 OFFCURVE",
"458 72 CURVE SMOOTH",
"417 87 OFFCURVE",
"356 165 OFFCURVE",
"356 192 CURVE SMOOTH",
"356 214 OFFCURVE",
"385 227 OFFCURVE",
"401 228 CURVE SMOOTH",
"423 229 OFFCURVE",
"476 218 OFFCURVE",
"476 218 CURVE SMOOTH",
"476 218 OFFCURVE",
"462 252 OFFCURVE",
"453 266 CURVE SMOOTH",
"444 280 OFFCURVE",
"422 308 OFFCURVE",
"422 308 CURVE SMOOTH",
"422 308 OFFCURVE",
"380 310 OFFCURVE",
"360 309 CURVE SMOOTH",
"334 308 OFFCURVE",
"285 283 OFFCURVE",
"286 228 CURVE SMOOTH",
"287 179 OFFCURVE",
"351 161 OFFCURVE",
"357 124 CURVE SMOOTH",
"360 105 OFFCURVE",
"316 111 OFFCURVE",
"300 117 CURVE SMOOTH",
"277 126 OFFCURVE",
"268 158 OFFCURVE",
"249 176 CURVE SMOOTH",
"219 205 OFFCURVE",
"148 269 OFFCURVE",
"121 288 CURVE SMOOTH",
"111 295 OFFCURVE",
"94 292 OFFCURVE",
"86 289 CURVE SMOOTH",
"78 286 OFFCURVE",
"80 275 OFFCURVE",
"73 273 CURVE SMOOTH",
"64 270 OFFCURVE",
"40 261 OFFCURVE",
"33 272 CURVE SMOOTH",
"22 290 OFFCURVE",
"45 351 OFFCURVE",
"58 369 CURVE SMOOTH",
"66 380 OFFCURVE",
"94 379 OFFCURVE",
"104 370 CURVE SMOOTH",
"119 357 OFFCURVE",
"150 317 OFFCURVE",
"181 282 CURVE SMOOTH",
"211 249 OFFCURVE",
"242 220 OFFCURVE",
"242 220 CURVE SMOOTH",
"242 220 OFFCURVE",
"242 278 OFFCURVE",
"283 319 CURVE SMOOTH",
"307 343 OFFCURVE",
"388 353 OFFCURVE",
"388 353 CURVE SMOOTH",
"388 353 OFFCURVE",
"363 397 OFFCURVE",
"347 395 CURVE SMOOTH",
"334 393 OFFCURVE",
"313 369 OFFCURVE",
"307 376 CURVE SMOOTH",
"299 386 OFFCURVE",
"310 429 OFFCURVE",
"322 445 CURVE SMOOTH",
"334 461 OFFCURVE",
"367 477 OFFCURVE",
"385 464 CURVE SMOOTH",
"392 459 OFFCURVE",
"393 442 OFFCURVE",
"402 428 CURVE SMOOTH",
"421 398 OFFCURVE",
"448 356 OFFCURVE",
"448 356 CURVE SMOOTH",
"448 356 OFFCURVE",
"546 345 OFFCURVE",
"609 348 CURVE SMOOTH",
"649 350 OFFCURVE",
"753 401 OFFCURVE",
"770 508 CURVE SMOOTH",
"782 582 OFFCURVE",
"705 670 OFFCURVE",
"715 678 CURVE SMOOTH",
"726 687 OFFCURVE",
"840 571 OFFCURVE",
"827 448 CURVE SMOOTH",
"820 380 OFFCURVE",
"721 280 OFFCURVE",
"623 280 CURVE SMOOTH",
"573 280 OFFCURVE",
"473 299 OFFCURVE",
"473 299 CURVE SMOOTH",
"473 299 OFFCURVE",
"490 270 OFFCURVE",
"497 255 CURVE SMOOTH",
"504 240 OFFCURVE",
"518 208 OFFCURVE",
"518 208 CURVE SMOOTH",
"518 208 OFFCURVE",
"600 161 OFFCURVE",
"646 115 CURVE SMOOTH",
"721 40 OFFCURVE",
"736 -39 OFFCURVE",
"736 -39 CURVE SMOOTH"
);
},
{
closed = 1;
nodes = (
"517 132 OFFCURVE",
"504 157 OFFCURVE",
"476 167 CURVE SMOOTH",
"452 176 OFFCURVE",
"402 181 OFFCURVE",
"402 164 CURVE SMOOTH",
"402 154 OFFCURVE",
"421 128 OFFCURVE",
"444 112 CURVE SMOOTH",
"475 91 OFFCURVE",
"512 82 OFFCURVE",
"515 110 CURVE SMOOTH"
);
}
);
width = 858;
}
);
unicode = 307B;
},
{
glyphname = "bo-hira";
lastChange = "2020-05-01 00:30:08 +0000";
layers = (
{
layerId = "1305C52C-0BD1-483E-A343-C05F3AFF2931";
paths = (
{
closed = 1;
nodes = (
"762 -40 OFFCURVE",
"709 34 OFFCURVE",
"676 65 CURVE SMOOTH",
"637 101 OFFCURVE",
"557 146 OFFCURVE",
"557 146 CURVE",
"557 146 OFFCURVE",
"571 92 OFFCURVE",
"555 79 CURVE SMOOTH",
"537 64 OFFCURVE",
"499 68 OFFCURVE",
"475 78 CURVE SMOOTH",
"439 93 OFFCURVE",
"372 156 OFFCURVE",
"370 187 CURVE SMOOTH",
"369 207 OFFCURVE",
"395 224 OFFCURVE",
"414 228 CURVE SMOOTH",
"435 232 OFFCURVE",
"498 219 OFFCURVE",
"498 219 CURVE",
"498 219 OFFCURVE",
"456 295 OFFCURVE",
"434 325 CURVE SMOOTH",
"413 353 OFFCURVE",
"380 387 OFFCURVE",
"361 396 CURVE SMOOTH",
"348 402 OFFCURVE",
"329 374 OFFCURVE",
"320 380 CURVE",
"320 380 LINE",
"309 387 OFFCURVE",
"323 436 OFFCURVE",
"337 453 CURVE SMOOTH",
"349 468 OFFCURVE",
"373 475 OFFCURVE",
"385 472 CURVE SMOOTH",
"402 468 OFFCURVE",
"402 446 OFFCURVE",
"411 436 CURVE SMOOTH",
"435 409 OFFCURVE",
"460 362 OFFCURVE",
"481 324 CURVE SMOOTH",
"500 289 OFFCURVE",
"535 212 OFFCURVE",
"535 212 CURVE",
"535 212 OFFCURVE",
"643 151 OFFCURVE",
"684 111 CURVE SMOOTH",
"765 31 OFFCURVE",
"762 -40 OFFCURVE",
"762 -40 CURVE"
);
},
{
closed = 1;
nodes = (
"526 89 OFFCURVE",
"537 102 OFFCURVE",
"538 112 CURVE SMOOTH",
"540 130 OFFCURVE",
"520 162 OFFCURVE",
"520 162 CURVE",
"520 162 OFFCURVE",
"406 201 OFFCURVE",
"411 163 CURVE SMOOTH",
"413 147 OFFCURVE",
"461 95 OFFCURVE",
"515 90 CURVE SMOOTH"
);
},
{
closed = 1;
nodes = (
"330 110 OFFCURVE",
"307 121 OFFCURVE",
"296 130 CURVE SMOOTH",
"284 139 OFFCURVE",
"277 159 OFFCURVE",
"267 169 CURVE SMOOTH",
"249 187 OFFCURVE",
"217 216 OFFCURVE",
"189 236 CURVE SMOOTH",
"161 256 OFFCURVE",
"118 295 OFFCURVE",
"98 296 CURVE SMOOTH",
"83 297 OFFCURVE",
"70 277 OFFCURVE",
"59 275 CURVE SMOOTH",
"50 273 OFFCURVE",
"33 267 OFFCURVE",
"31 276 CURVE",
"31 276 LINE",
"26 297 OFFCURVE",
"35 329 OFFCURVE",
"43 348 CURVE SMOOTH",
"49 363 OFFCURVE",
"66 383 OFFCURVE",
"83 383 CURVE SMOOTH",
"104 383 OFFCURVE",
"144 316 OFFCURVE",
"170 291 CURVE SMOOTH",
"198 265 OFFCURVE",
"251 220 OFFCURVE",
"251 220 CURVE",
"251 220 OFFCURVE",
"245 309 OFFCURVE",
"320 342 CURVE SMOOTH",
"377 367 OFFCURVE",
"486 354 OFFCURVE",
"540 352 CURVE SMOOTH",
"698 346 OFFCURVE",
"804 433 OFFCURVE",
"802 510 CURVE SMOOTH",
"799 629 OFFCURVE",
"745 679 OFFCURVE",
"745 679 CURVE",
"745 679 OFFCURVE",
"869 592 OFFCURVE",
"873 497 CURVE SMOOTH",
"877 401 OFFCURVE",
"785 278 OFFCURVE",
"632 282 CURVE SMOOTH",
"560 284 OFFCURVE",
"472 310 OFFCURVE",
"418 311 CURVE SMOOTH",
"312 313 OFFCURVE",
"293 258 OFFCURVE",
"292 231 CURVE SMOOTH",
"291 198 OFFCURVE",
"317 173 OFFCURVE",
"331 168 CURVE SMOOTH",
"344 163 OFFCURVE",
"368 143 OFFCURVE",
"369 133 CURVE SMOOTH",
"370 122 OFFCURVE",
"354 114 OFFCURVE",
"342 112 CURVE SMOOTH"
);
},
{
closed = 1;
nodes = (
"189 342 LINE",
"179 343 OFFCURVE",
"216 376 OFFCURVE",
"216 390 CURVE SMOOTH",
"216 411 OFFCURVE",
"183 444 OFFCURVE",
"184 469 CURVE SMOOTH",
"185 492 OFFCURVE",
"206 529 OFFCURVE",
"249 527 CURVE SMOOTH",
"274 526 OFFCURVE",
"297 505 OFFCURVE",
"298 486 CURVE SMOOTH",
"299 470 OFFCURVE",
"290 438 OFFCURVE",
"280 438 CURVE SMOOTH",
"270 438 OFFCURVE",
"249 484 OFFCURVE",
"239 484 CURVE SMOOTH",
"228 484 OFFCURVE",
"216 469 OFFCURVE",
"217 458 CURVE SMOOTH",
"220 425 OFFCURVE",
"274 403 OFFCURVE",
"273 384 CURVE SMOOTH",
"271 352 OFFCURVE",
"198 341 OFFCURVE",
"189 342 CURVE"
);
}
);
width = 903;
}
);
unicode = 307C;
},
{
glyphname = "po-hira";
lastChange = "2020-05-01 00:30:18 +0000";
layers = (
{
layerId = "1305C52C-0BD1-483E-A343-C05F3AFF2931";
paths = (
{
closed = 1;
nodes = (
"742 -34 OFFCURVE",
"700 33 OFFCURVE",
"667 64 CURVE SMOOTH",
"628 100 OFFCURVE",
"557 152 OFFCURVE",
"557 152 CURVE",
"557 152 OFFCURVE",
"571 98 OFFCURVE",
"555 85 CURVE SMOOTH",
"537 71 OFFCURVE",
"500 74 OFFCURVE",
"475 84 CURVE SMOOTH",
"440 98 OFFCURVE",
"372 162 OFFCURVE",
"370 193 CURVE SMOOTH",
"369 213 OFFCURVE",
"395 230 OFFCURVE",
"415 234 CURVE SMOOTH",
"435 238 OFFCURVE",
"498 225 OFFCURVE",
"498 225 CURVE",
"498 225 OFFCURVE",
"457 301 OFFCURVE",
"434 331 CURVE SMOOTH",
"413 359 OFFCURVE",
"381 393 OFFCURVE",
"362 403 CURVE SMOOTH",
"349 410 OFFCURVE",
"329 380 OFFCURVE",
"321 386 CURVE",
"321 386 LINE",
"309 393 OFFCURVE",
"323 442 OFFCURVE",
"337 459 CURVE SMOOTH",
"349 474 OFFCURVE",
"374 481 OFFCURVE",
"385 478 CURVE SMOOTH",
"402 473 OFFCURVE",
"403 453 OFFCURVE",
"411 442 CURVE SMOOTH",
"433 412 OFFCURVE",
"460 368 OFFCURVE",
"481 330 CURVE SMOOTH",
"500 295 OFFCURVE",
"535 219 OFFCURVE",
"535 219 CURVE",
"535 219 OFFCURVE",
"633 153 OFFCURVE",
"674 113 CURVE SMOOTH",
"755 33 OFFCURVE",
"742 -34 OFFCURVE",
"742 -34 CURVE"
);
},
{
closed = 1;
nodes = (
"526 95 OFFCURVE",
"538 108 OFFCURVE",
"538 118 CURVE SMOOTH",
"538 136 OFFCURVE",
"520 168 OFFCURVE",
"520 168 CURVE",
"520 168 OFFCURVE",
"406 207 OFFCURVE",
"411 169 CURVE SMOOTH",
"413 153 OFFCURVE",
"461 101 OFFCURVE",
"515 96 CURVE SMOOTH"
);
},
{
closed = 1;
nodes = (
"330 116 OFFCURVE",
"307 127 OFFCURVE",
"296 136 CURVE SMOOTH",
"284 145 OFFCURVE",
"277 165 OFFCURVE",
"267 175 CURVE SMOOTH",
"249 193 OFFCURVE",
"217 222 OFFCURVE",
"190 242 CURVE SMOOTH",
"162 263 OFFCURVE",
"118 301 OFFCURVE",
"98 302 CURVE SMOOTH",
"83 303 OFFCURVE",
"70 283 OFFCURVE",
"59 281 CURVE SMOOTH",
"50 279 OFFCURVE",
"33 273 OFFCURVE",
"31 282 CURVE",
"31 282 LINE",
"26 304 OFFCURVE",
"35 335 OFFCURVE",
"43 354 CURVE SMOOTH",
"49 369 OFFCURVE",
"66 389 OFFCURVE",
"83 389 CURVE SMOOTH",
"104 389 OFFCURVE",
"145 322 OFFCURVE",
"170 297 CURVE SMOOTH",
"198 269 OFFCURVE",
"251 226 OFFCURVE",
"251 226 CURVE",
"251 226 OFFCURVE",
"245 316 OFFCURVE",
"320 348 CURVE SMOOTH",
"378 373 OFFCURVE",
"486 360 OFFCURVE",
"541 358 CURVE SMOOTH",
"699 352 OFFCURVE",
"777 447 OFFCURVE",
"775 524 CURVE SMOOTH",
"772 643 OFFCURVE",
"727 677 OFFCURVE",
"727 677 CURVE",
"727 677 OFFCURVE",
"839 598 OFFCURVE",
"842 503 CURVE SMOOTH",
"845 407 OFFCURVE",
"786 284 OFFCURVE",
"632 288 CURVE SMOOTH",
"560 290 OFFCURVE",
"472 316 OFFCURVE",
"418 317 CURVE SMOOTH",
"313 319 OFFCURVE",
"293 264 OFFCURVE",
"292 237 CURVE SMOOTH",
"291 204 OFFCURVE",
"317 180 OFFCURVE",
"331 175 CURVE SMOOTH",
"344 170 OFFCURVE",
"368 149 OFFCURVE",
"369 139 CURVE SMOOTH",
"370 128 OFFCURVE",
"354 120 OFFCURVE",
"342 118 CURVE SMOOTH"
);
},
{
closed = 1;
nodes = (
"210 412 LINE",
"158 410 OFFCURVE",
"128 468 OFFCURVE",
"131 505 CURVE SMOOTH",
"133 534 OFFCURVE",
"141 581 OFFCURVE",
"201 583 CURVE SMOOTH",
"237 584 OFFCURVE",
"277 547 OFFCURVE",
"280 517 CURVE SMOOTH",
"281 506 OFFCURVE",
"278 481 OFFCURVE",
"272 480 CURVE SMOOTH",
"266 479 OFFCURVE",
"250 495 OFFCURVE",
"247 507 CURVE SMOOTH",
"243 523 OFFCURVE",
"212 544 OFFCURVE",
"198 544 CURVE SMOOTH",
"172 544 OFFCURVE",
"161 526 OFFCURVE",
"161 499 CURVE SMOOTH",
"161 483 OFFCURVE",
"173 449 OFFCURVE",
"189 448 CURVE SMOOTH",
"207 447 OFFCURVE",
"212 470 OFFCURVE",
"225 474 CURVE SMOOTH",
"237 478 OFFCURVE",
"255 487 OFFCURVE",
"265 474 CURVE SMOOTH",
"272 465 OFFCURVE",
"230 413 OFFCURVE",
"210 412 CURVE"
);
}
);
width = 872;
}
);
unicode = 307D;
},
{
glyphname = "ma-hira";
lastChange = "2020-05-01 00:30:32 +0000";
layers = (
{
layerId = "1305C52C-0BD1-483E-A343-C05F3AFF2931";
paths = (
{
closed = 1;
nodes = (
"550 3 OFFCURVE",
"523 -4 OFFCURVE",
"519 8 CURVE",
"514 26 OFFCURVE",
"518 53 OFFCURVE",
"510 69 CURVE SMOOTH",
"495 98 OFFCURVE",
"464 150 OFFCURVE",
"432 181 CURVE SMOOTH",
"368 243 OFFCURVE",
"321 262 OFFCURVE",
"312 253 CURVE",
"306 246 OFFCURVE",
"325 217 OFFCURVE",
"336 208 CURVE",
"343 203 OFFCURVE",
"366 207 OFFCURVE",
"373 197 CURVE",
"381 188 OFFCURVE",
"371 137 OFFCURVE",
"348 105 CURVE",
"338 90 OFFCURVE",
"311 69 OFFCURVE",
"303 73 CURVE",
"294 76 OFFCURVE",
"293 115 OFFCURVE",
"297 126 CURVE",
"300 132 OFFCURVE",
"304 138 OFFCURVE",
"306 144 CURVE",
"310 167 OFFCURVE",
"291 231 OFFCURVE",
"282 244 CURVE SMOOTH",
"264 269 OFFCURVE",
"250 269 OFFCURVE",
"246 307 CURVE",
"245 326 OFFCURVE",
"251 350 OFFCURVE",
"251 350 CURVE SMOOTH",
"251 350 OFFCURVE",
"190 350 OFFCURVE",
"161 350 CURVE",
"136 349 OFFCURVE",
"113 324 OFFCURVE",
"94 316 CURVE SMOOTH",
"75 308 OFFCURVE",
"37 304 OFFCURVE",
"32 312 CURVE SMOOTH",
"25 323 OFFCURVE",
"41 337 OFFCURVE",
"43 347 CURVE SMOOTH",
"45 356 OFFCURVE",
"43 366 OFFCURVE",
"49 373 CURVE",
"61 389 OFFCURVE",
"102 433 OFFCURVE",
"120 445 CURVE",
"130 451 OFFCURVE",
"150 456 OFFCURVE",
"156 445 CURVE SMOOTH",
"163 433 OFFCURVE",
"170 405 OFFCURVE",
"185 404 CURVE SMOOTH",
"215 402 OFFCURVE",
"279 401 OFFCURVE",
"318 400 CURVE SMOOTH",
"354 399 OFFCURVE",
"427 396 OFFCURVE",
"427 396 CURVE SMOOTH",
"427 396 OFFCURVE",
"410 460 OFFCURVE",
"401 490 CURVE SMOOTH",
"393 517 OFFCURVE",
"360 600 OFFCURVE",
"364 602 CURVE",
"371 605 OFFCURVE",
"407 551 OFFCURVE",
"427 494 CURVE SMOOTH",
"438 462 OFFCURVE",
"460 394 OFFCURVE",
"460 394 CURVE SMOOTH",
"460 394 OFFCURVE",
"617 370 OFFCURVE",
"701 334 CURVE SMOOTH",
"858 267 OFFCURVE",
"873 147 OFFCURVE",
"863 146 CURVE SMOOTH",
"838 143 OFFCURVE",
"843 225 OFFCURVE",
"689 295 CURVE SMOOTH",
"645 315 OFFCURVE",
"472 341 OFFCURVE",
"472 341 CURVE SMOOTH",
"472 341 OFFCURVE",
"497 265 OFFCURVE",
"512 229 CURVE SMOOTH",
"528 191 OFFCURVE",
"547 136 OFFCURVE",
"566 119 CURVE",
"575 110 OFFCURVE",
"602 110 OFFCURVE",
"605 97 CURVE SMOOTH",
"609 78 OFFCURVE",
"608 66 OFFCURVE",
"606 46 CURVE SMOOTH",
"604 28 OFFCURVE",
"584 6 OFFCURVE",
"568 4 CURVE"
);
},
{
closed = 1;
nodes = (
"487 166 OFFCURVE",
"473 233 OFFCURVE",
"465 262 CURVE SMOOTH",
"458 289 OFFCURVE",
"437 345 OFFCURVE",
"437 345 CURVE SMOOTH",
"437 345 OFFCURVE",
"400 347 OFFCURVE",
"380 348 CURVE SMOOTH",
"357 349 OFFCURVE",
"303 350 OFFCURVE",
"303 350 CURVE SMOOTH",
"303 350 OFFCURVE",
"304 343 OFFCURVE",
"314 329 CURVE",
"327 313 OFFCURVE",
"365 285 OFFCURVE",
"398 256 CURVE SMOOTH",
"419 237 OFFCURVE",
"487 166 OFFCURVE",
"487 166 CURVE SMOOTH"
);
}
);
width = 895;
}
);
unicode = 307E;
},
{
glyphname = "mi-hira";
lastChange = "2020-05-01 00:30:44 +0000";
layers = (
{
layerId = "1305C52C-0BD1-483E-A343-C05F3AFF2931";
paths = (
{
closed = 1;
nodes = (
"26 302 OFFCURVE",
"28 341 OFFCURVE",
"36 357 CURVE",
"47 381 OFFCURVE",
"87 428 OFFCURVE",
"109 434 CURVE",
"124 438 OFFCURVE",
"140 429 OFFCURVE",
"148 420 CURVE",
"156 411 OFFCURVE",
"154 389 OFFCURVE",
"162 381 CURVE",
"169 372 OFFCURVE",
"181 370 OFFCURVE",
"191 369 CURVE",
"218 368 OFFCURVE",
"317 368 OFFCURVE",
"317 368 CURVE",
"317 368 OFFCURVE",
"294 423 OFFCURVE",
"299 426 CURVE",
"309 431 OFFCURVE",
"341 376 OFFCURVE",
"341 376 CURVE",
"341 376 OFFCURVE",
"354 381 OFFCURVE",
"367 389 CURVE",
"375 393 OFFCURVE",
"380 403 OFFCURVE",
"382 410 CURVE",
"384 418 OFFCURVE",
"387 428 OFFCURVE",
"391 434 CURVE",
"397 446 OFFCURVE",
"411 474 OFFCURVE",
"437 474 CURVE",
"462 473 OFFCURVE",
"481 455 OFFCURVE",
"482 439 CURVE",
"483 423 OFFCURVE",
"489 417 OFFCURVE",
"489 398 CURVE",
"490 375 OFFCURVE",
"528 341 OFFCURVE",
"591 336 CURVE",
"675 329 OFFCURVE",
"753 419 OFFCURVE",
"773 478 CURVE",
"788 525 OFFCURVE",
"797 609 OFFCURVE",
"805 607 CURVE",
"814 606 OFFCURVE",
"812 477 OFFCURVE",
"789 425 CURVE",
"752 344 OFFCURVE",
"655 274 OFFCURVE",
"581 276 CURVE",
"454 278 OFFCURVE",
"426 364 OFFCURVE",
"394 362 CURVE",
"387 362 OFFCURVE",
"380 357 OFFCURVE",
"373 354 CURVE",
"367 351 OFFCURVE",
"354 345 OFFCURVE",
"354 345 CURVE",
"354 345 OFFCURVE",
"390 266 OFFCURVE",
"409 229 CURVE",
"449 152 OFFCURVE",
"484 114 OFFCURVE",
"516 91 CURVE",
"548 69 OFFCURVE",
"493 14 OFFCURVE",
"473 5 CURVE",
"465 1 OFFCURVE",
"446 -7 OFFCURVE",
"441 3 CURVE",
"435 16 OFFCURVE",
"443 58 OFFCURVE",
"436 83 CURVE",
"425 117 OFFCURVE",
"401 168 OFFCURVE",
"383 210 CURVE",
"364 253 OFFCURVE",
"329 338 OFFCURVE",
"329 338 CURVE",
"329 338 OFFCURVE",
"247 336 OFFCURVE",
"209 336 CURVE",
"175 335 OFFCURVE",
"136 336 OFFCURVE",
"108 336 CURVE",
"82 336 OFFCURVE",
"50 289 OFFCURVE",
"38 295 CURVE"
);
},
{
closed = 1;
nodes = (
"248 70 OFFCURVE",
"249 92 OFFCURVE",
"249 105 CURVE",
"250 117 OFFCURVE",
"256 138 OFFCURVE",
"254 151 CURVE",
"252 175 OFFCURVE",
"236 213 OFFCURVE",
"222 232 CURVE",
"211 246 OFFCURVE",
"182 244 OFFCURVE",
"181 274 CURVE",
"181 297 OFFCURVE",
"211 327 OFFCURVE",
"226 327 CURVE",
"251 327 OFFCURVE",
"256 295 OFFCURVE",
"269 284 CURVE",
"287 267 OFFCURVE",
"306 258 OFFCURVE",
"339 221 CURVE",
"373 183 OFFCURVE",
"398 132 OFFCURVE",
"394 128 CURVE",
"389 124 OFFCURVE",
"363 161 OFFCURVE",
"333 190 CURVE",
"293 230 OFFCURVE",
"270 232 OFFCURVE",
"265 230 CURVE",
"261 227 OFFCURVE",
"277 205 OFFCURVE",
"298 184 CURVE",
"316 167 OFFCURVE",
"336 163 OFFCURVE",
"339 149 CURVE",
"342 135 OFFCURVE",
"267 58 OFFCURVE",
"257 65 CURVE"
);
}
);
width = 840;
}
);
unicode = 307F;
},
{
glyphname = "mu-hira";
lastChange = "2020-05-01 00:30:57 +0000";
layers = (
{
layerId = "1305C52C-0BD1-483E-A343-C05F3AFF2931";
paths = (
{
closed = 1;
nodes = (
"293 45 OFFCURVE",
"326 72 OFFCURVE",
"326 93 CURVE",
"326 127 OFFCURVE",
"287 167 OFFCURVE",
"286 189 CURVE",
"286 209 OFFCURVE",
"307 228 OFFCURVE",
"324 228 CURVE",
"349 228 OFFCURVE",
"350 203 OFFCURVE",
"361 194 CURVE",
"375 181 OFFCURVE",
"395 165 OFFCURVE",
"408 148 CURVE",
"422 130 OFFCURVE",
"446 93 OFFCURVE",
"446 93 CURVE",
"446 93 OFFCURVE",
"412 116 OFFCURVE",
"397 128 CURVE",
"379 144 OFFCURVE",
"345 170 OFFCURVE",
"336 161 CURVE",
"331 156 OFFCURVE",
"351 127 OFFCURVE",
"362 116 CURVE",
"373 105 OFFCURVE",
"400 101 OFFCURVE",
"401 91 CURVE",
"402 82 OFFCURVE",
"360 48 OFFCURVE",
"343 39 CURVE",
"332 32 OFFCURVE",
"304 26 OFFCURVE",
"299 34 CURVE"
);
},
{
closed = 1;
nodes = (
"26 304 OFFCURVE",
"49 329 OFFCURVE",
"54 342 CURVE",
"57 350 OFFCURVE",
"56 367 OFFCURVE",
"62 375 CURVE",
"71 388 OFFCURVE",
"102 422 OFFCURVE",
"133 422 CURVE",
"152 423 OFFCURVE",
"153 383 OFFCURVE",
"173 384 CURVE",
"215 384 OFFCURVE",
"381 379 OFFCURVE",
"381 379 CURVE",
"381 379 OFFCURVE",
"364 433 OFFCURVE",
"357 464 CURVE",
"350 497 OFFCURVE",
"331 579 OFFCURVE",
"331 579 CURVE",
"331 579 OFFCURVE",
"364 506 OFFCURVE",
"376 470 CURVE",
"388 437 OFFCURVE",
"413 378 OFFCURVE",
"413 378 CURVE",
"413 378 OFFCURVE",
"555 377 OFFCURVE",
"625 376 CURVE",
"704 374 OFFCURVE",
"886 376 OFFCURVE",
"887 362 CURVE",
"888 350 OFFCURVE",
"703 339 OFFCURVE",
"627 335 CURVE",
"563 332 OFFCURVE",
"431 328 OFFCURVE",
"431 328 CURVE",
"431 328 OFFCURVE",
"462 245 OFFCURVE",
"475 213 CURVE",
"486 187 OFFCURVE",
"501 150 OFFCURVE",
"516 131 CURVE",
"529 114 OFFCURVE",
"565 105 OFFCURVE",
"567 91 CURVE",
"571 67 OFFCURVE",
"523 25 OFFCURVE",
"505 24 CURVE",
"487 23 OFFCURVE",
"463 38 OFFCURVE",
"461 47 CURVE",
"459 58 OFFCURVE",
"482 66 OFFCURVE",
"479 75 CURVE",
"473 104 OFFCURVE",
"455 153 OFFCURVE",
"441 194 CURVE",
"426 236 OFFCURVE",
"394 328 OFFCURVE",
"394 328 CURVE",
"394 328 OFFCURVE",
"210 323 OFFCURVE",
"162 323 CURVE",
"147 323 OFFCURVE",
"121 315 OFFCURVE",
"107 309 CURVE",
"96 305 OFFCURVE",
"87 296 OFFCURVE",
"76 294 CURVE",
"63 291 OFFCURVE",
"33 286 OFFCURVE",
"30 295 CURVE"
);
},
{
closed = 1;
nodes = (
"98 134 OFFCURVE",
"115 150 OFFCURVE",
"118 159 CURVE",
"121 166 OFFCURVE",
"123 178 OFFCURVE",
"127 183 CURVE",
"138 197 OFFCURVE",
"169 230 OFFCURVE",
"183 238 CURVE",
"194 245 OFFCURVE",
"223 245 OFFCURVE",
"225 219 CURVE",
"225 212 OFFCURVE",
"217 203 OFFCURVE",
"218 196 CURVE",
"223 180 OFFCURVE",
"260 130 OFFCURVE",
"253 121 CURVE",
"247 114 OFFCURVE",
"200 164 OFFCURVE",
"178 157 CURVE",
"158 150 OFFCURVE",
"140 136 OFFCURVE",
"127 131 CURVE",
"120 128 OFFCURVE",
"105 123 OFFCURVE",
"102 127 CURVE"
);
}
);
width = 917;
}
);
unicode = 3080;
},
{
glyphname = "me-hira";
lastChange = "2020-05-01 00:31:08 +0000";
layers = (
{
layerId = "1305C52C-0BD1-483E-A343-C05F3AFF2931";
paths = (
{
closed = 1;
nodes = (
"411 46 OFFCURVE",
"420 93 OFFCURVE",
"413 115 CURVE",
"387 196 OFFCURVE",
"251 522 OFFCURVE",
"263 528 CURVE",
"274 533 OFFCURVE",
"397 221 OFFCURVE",
"432 144 CURVE",
"445 116 OFFCURVE",
"472 116 OFFCURVE",
"478 101 CURVE",
"483 88 OFFCURVE",
"472 71 OFFCURVE",
"461 61 CURVE",
"451 50 OFFCURVE",
"426 29 OFFCURVE",
"418 37 CURVE"
);
},
{
closed = 1;
nodes = (
"25 343 OFFCURVE",
"59 354 OFFCURVE",
"71 354 CURVE",
"154 355 OFFCURVE",
"178 342 OFFCURVE",
"244 334 CURVE",
"306 327 OFFCURVE",
"335 327 OFFCURVE",
"376 332 CURVE",
"450 341 OFFCURVE",
"467 415 OFFCURVE",
"491 512 CURVE",
"498 542 OFFCURVE",
"539 576 OFFCURVE",
"570 573 CURVE",
"605 571 OFFCURVE",
"640 526 OFFCURVE",
"648 472 CURVE",
"658 405 OFFCURVE",
"732 284 OFFCURVE",
"797 267 CURVE",
"820 261 OFFCURVE",
"903 275 OFFCURVE",
"905 269 CURVE",
"910 259 OFFCURVE",
"813 234 OFFCURVE",
"763 248 CURVE",
"720 260 OFFCURVE",
"672 305 OFFCURVE",
"646 343 CURVE",
"617 385 OFFCURVE",
"578 475 OFFCURVE",
"557 476 CURVE",
"522 479 OFFCURVE",
"504 376 OFFCURVE",
"475 339 CURVE",
"450 306 OFFCURVE",
"410 292 OFFCURVE",
"361 291 CURVE",
"305 290 OFFCURVE",
"194 317 OFFCURVE",
"139 324 CURVE",
"102 328 OFFCURVE",
"38 319 OFFCURVE",
"31 332 CURVE"
);
},
{
closed = 1;
nodes = (
"263 97 OFFCURVE",
"285 128 OFFCURVE",
"282 147 CURVE",
"278 170 OFFCURVE",
"255 217 OFFCURVE",
"243 232 CURVE",
"235 243 OFFCURVE",
"215 236 OFFCURVE",
"207 242 CURVE",
"200 249 OFFCURVE",
"198 266 OFFCURVE",
"199 276 CURVE",
"200 288 OFFCURVE",
"214 313 OFFCURVE",
"214 313 CURVE",
"271 304 LINE",
"271 304 OFFCURVE",
"267 291 OFFCURVE",
"271 285 CURVE",
"282 272 OFFCURVE",
"311 245 OFFCURVE",
"335 224 CURVE",
"358 204 OFFCURVE",
"397 142 OFFCURVE",
"396 141 CURVE",
"393 138 OFFCURVE",
"345 186 OFFCURVE",
"327 200 CURVE",
"311 211 OFFCURVE",
"283 232 OFFCURVE",
"276 226 CURVE",
"268 220 OFFCURVE",
"287 197 OFFCURVE",
"297 185 CURVE",
"307 172 OFFCURVE",
"335 164 OFFCURVE",
"341 149 CURVE",
"350 123 OFFCURVE",
"274 85 OFFCURVE",
"269 91 CURVE"
);
}
);
width = 935;
}
);
unicode = 3081;
},
{
glyphname = "mo-hira";
lastChange = "2020-05-01 00:31:20 +0000";
layers = (
{
layerId = "1305C52C-0BD1-483E-A343-C05F3AFF2931";
paths = (
{
closed = 1;
nodes = (
"537 -41 OFFCURVE",
"548 11 OFFCURVE",
"539 27 CURVE SMOOTH",
"534 36 OFFCURVE",
"521 50 OFFCURVE",
"521 55 CURVE SMOOTH",
"521 60 OFFCURVE",
"536 58 OFFCURVE",
"535 64 CURVE SMOOTH",
"531 86 OFFCURVE",
"525 141 OFFCURVE",
"516 178 CURVE SMOOTH",
"504 226 OFFCURVE",
"467 349 OFFCURVE",
"467 349 CURVE SMOOTH",
"467 349 OFFCURVE",
"524 220 OFFCURVE",
"544 172 CURVE SMOOTH",
"558 138 OFFCURVE",
"577 89 OFFCURVE",
"590 62 CURVE SMOOTH",
"598 45 OFFCURVE",
"620 33 OFFCURVE",
"623 15 CURVE SMOOTH",
"626 -3 OFFCURVE",
"588 -45 OFFCURVE",
"575 -44 CURVE SMOOTH"
);
},
{
closed = 1;
nodes = (
"370 15 OFFCURVE",
"348 28 OFFCURVE",
"347 35 CURVE SMOOTH",
"346 42 OFFCURVE",
"376 44 OFFCURVE",
"377 55 CURVE SMOOTH",
"378 70 OFFCURVE",
"367 111 OFFCURVE",
"358 133 CURVE SMOOTH",
"342 173 OFFCURVE",
"319 188 OFFCURVE",
"319 208 CURVE SMOOTH",
"319 229 OFFCURVE",
"356 247 OFFCURVE",
"365 246 CURVE SMOOTH",
"377 245 OFFCURVE",
"376 224 OFFCURVE",
"386 213 CURVE SMOOTH",
"400 198 OFFCURVE",
"422 175 OFFCURVE",
"440 155 CURVE SMOOTH",
"459 134 OFFCURVE",
"500 92 OFFCURVE",
"500 92 CURVE SMOOTH",
"500 92 OFFCURVE",
"458 116 OFFCURVE",
"439 127 CURVE SMOOTH",
"418 139 OFFCURVE",
"393 160 OFFCURVE",
"380 151 CURVE SMOOTH",
"371 145 OFFCURVE",
"398 118 OFFCURVE",
"411 106 CURVE SMOOTH",
"424 94 OFFCURVE",
"441 87 OFFCURVE",
"443 74 CURVE SMOOTH",
"445 62 OFFCURVE",
"428 43 OFFCURVE",
"418 32 CURVE SMOOTH",
"409 22 OFFCURVE",
"393 13 OFFCURVE",
"381 14 CURVE SMOOTH"
);
},
{
closed = 1;
nodes = (
"203 92 OFFCURVE",
"161 166 OFFCURVE",
"161 214 CURVE SMOOTH",
"161 251 OFFCURVE",
"197 285 OFFCURVE",
"197 285 CURVE SMOOTH",
"197 285 OFFCURVE",
"177 305 OFFCURVE",
"165 316 CURVE SMOOTH",
"149 331 OFFCURVE",
"118 347 OFFCURVE",
"102 348 CURVE SMOOTH",
"86 349 OFFCURVE",
"75 339 OFFCURVE",
"63 339 CURVE SMOOTH",
"51 339 OFFCURVE",
"33 337 OFFCURVE",
"30 346 CURVE SMOOTH",
"28 352 OFFCURVE",
"51 384 OFFCURVE",
"65 398 CURVE SMOOTH",
"77 410 OFFCURVE",
"95 422 OFFCURVE",
"112 419 CURVE SMOOTH",
"134 415 OFFCURVE",
"128 391 OFFCURVE",
"170 357 CURVE SMOOTH",
"187 343 OFFCURVE",
"220 306 OFFCURVE",
"220 306 CURVE SMOOTH",
"220 306 OFFCURVE",
"257 335 OFFCURVE",
"347 326 CURVE SMOOTH",
"409 320 OFFCURVE",
"513 296 OFFCURVE",
"594 297 CURVE SMOOTH",
"708 298 OFFCURVE",
"775 364 OFFCURVE",
"782 438 CURVE SMOOTH",
"788 498 OFFCURVE",
"709 631 OFFCURVE",
"717 640 CURVE SMOOTH",
"725 649 OFFCURVE",
"832 542 OFFCURVE",
"848 421 CURVE SMOOTH",
"860 328 OFFCURVE",
"757 235 OFFCURVE",
"678 226 CURVE SMOOTH",
"598 217 OFFCURVE",
"465 244 OFFCURVE",
"394 259 CURVE SMOOTH",
"272 285 OFFCURVE",
"245 276 OFFCURVE",
"245 276 CURVE SMOOTH",
"245 276 OFFCURVE",
"272 228 OFFCURVE",
"280 197 CURVE SMOOTH",
"290 159 OFFCURVE",
"298 82 OFFCURVE",
"260 86 CURVE SMOOTH"
);
},
{
closed = 1;
nodes = (
"264 125 OFFCURVE",
"260 166 OFFCURVE",
"253 193 CURVE SMOOTH",
"243 230 OFFCURVE",
"218 265 OFFCURVE",
"218 265 CURVE SMOOTH",
"218 265 OFFCURVE",
"186 252 OFFCURVE",
"194 187 CURVE SMOOTH",
"199 145 OFFCURVE",
"241 120 OFFCURVE",
"250 122 CURVE SMOOTH"
);
}
);
width = 879;
}
);
unicode = 3082;
},
{
glyphname = "ya-hira";
lastChange = "2020-05-01 00:31:31 +0000";
layers = (
{
layerId = "1305C52C-0BD1-483E-A343-C05F3AFF2931";
paths = (
{
closed = 1;
nodes = (
"294 33 OFFCURVE",
"321 75 OFFCURVE",
"319 98 CURVE",
"315 139 OFFCURVE",
"280 182 OFFCURVE",
"279 208 CURVE",
"278 228 OFFCURVE",
"304 254 OFFCURVE",
"315 254 CURVE",
"335 253 OFFCURVE",
"334 216 OFFCURVE",
"346 204 CURVE",
"368 182 OFFCURVE",
"418 124 OFFCURVE",
"449 124 CURVE",
"479 125 OFFCURVE",
"469 155 OFFCURVE",
"460 165 CURVE",
"446 182 OFFCURVE",
"425 194 OFFCURVE",
"426 216 CURVE",
"427 237 OFFCURVE",
"454 255 OFFCURVE",
"467 254 CURVE",
"484 253 OFFCURVE",
"488 230 OFFCURVE",
"499 223 CURVE",
"521 210 OFFCURVE",
"585 181 OFFCURVE",
"621 151 CURVE",
"689 92 OFFCURVE",
"702 -1 OFFCURVE",
"702 -1 CURVE",
"702 -1 OFFCURVE",
"646 101 OFFCURVE",
"609 129 CURVE",
"546 176 OFFCURVE",
"486 174 OFFCURVE",
"486 174 CURVE",
"486 174 OFFCURVE",
"496 139 OFFCURVE",
"495 122 CURVE",
"495 106 OFFCURVE",
"482 80 OFFCURVE",
"462 80 CURVE",
"416 81 OFFCURVE",
"354 135 OFFCURVE",
"354 135 CURVE",
"354 135 OFFCURVE",
"350 124 OFFCURVE",
"357 114 CURVE",
"365 102 OFFCURVE",
"385 91 OFFCURVE",
"385 81 CURVE",
"388 44 OFFCURVE",
"319 11 OFFCURVE",
"305 23 CURVE"
);
},
{
closed = 1;
nodes = (
"304 503 OFFCURVE",
"332 554 OFFCURVE",
"349 573 CURVE",
"363 590 OFFCURVE",
"390 606 OFFCURVE",
"407 605 CURVE",
"441 603 OFFCURVE",
"431 559 OFFCURVE",
"444 540 CURVE",
"466 509 OFFCURVE",
"498 470 OFFCURVE",
"534 417 CURVE",
"578 351 OFFCURVE",
"621 236 OFFCURVE",
"621 236 CURVE",
"621 236 OFFCURVE",
"547 346 OFFCURVE",
"508 393 CURVE",
"470 437 OFFCURVE",
"389 500 OFFCURVE",
"371 498 CURVE",
"353 495 OFFCURVE",
"323 472 OFFCURVE",
"312 489 CURVE"
);
},
{
closed = 1;
nodes = (
"24 233 OFFCURVE",
"49 280 OFFCURVE",
"65 308 CURVE",
"82 339 OFFCURVE",
"105 389 OFFCURVE",
"140 387 CURVE",
"157 386 OFFCURVE",
"163 357 OFFCURVE",
"175 343 CURVE",
"196 320 OFFCURVE",
"382 314 OFFCURVE",
"485 313 CURVE",
"591 313 OFFCURVE",
"744 317 OFFCURVE",
"804 320 CURVE",
"818 320 OFFCURVE",
"833 326 OFFCURVE",
"847 326 CURVE",
"862 326 OFFCURVE",
"892 326 OFFCURVE",
"894 318 CURVE",
"896 307 OFFCURVE",
"846 266 OFFCURVE",
"828 264 CURVE",
"818 263 OFFCURVE",
"804 273 OFFCURVE",
"793 274 CURVE",
"738 277 OFFCURVE",
"592 285 OFFCURVE",
"491 286 CURVE",
"381 287 OFFCURVE",
"238 288 OFFCURVE",
"168 286 CURVE",
"138 285 OFFCURVE",
"79 232 OFFCURVE",
"58 222 CURVE",
"50 218 OFFCURVE",
"38 214 OFFCURVE",
"32 222 CURVE"
);
}
);
width = 924;
}
);
unicode = 3084;
},
{
glyphname = "yasmall-hira";
lastChange = "2020-04-30 23:34:27 +0000";
layers = (
{
layerId = "1305C52C-0BD1-483E-A343-C05F3AFF2931";
paths = (
{
closed = 1;
nodes = (
"230 465 LINE",
"225 473 OFFCURVE",
"241 500 OFFCURVE",
"251 514 CURVE",
"260 529 OFFCURVE",
"274 551 OFFCURVE",
"284 550 CURVE",
"301 548 OFFCURVE",
"299 512 OFFCURVE",
"308 500 CURVE",
"324 479 OFFCURVE",
"352 448 OFFCURVE",
"373 421 CURVE",
"396 391 OFFCURVE",
"439 318 OFFCURVE",
"439 318 CURVE",
"439 318 OFFCURVE",
"384 383 OFFCURVE",
"358 411 CURVE",
"332 437 OFFCURVE",
"299 466 OFFCURVE",
"278 475 CURVE",
"264 481 OFFCURVE",
"236 457 OFFCURVE",
"230 465 CURVE"
);
},
{
closed = 1;
nodes = (
"142 473 LINE",
"141 484 OFFCURVE",
"152 520 OFFCURVE",
"175 519 CURVE",
"196 518 OFFCURVE",
"188 486 OFFCURVE",
"197 477 CURVE",
"218 454 OFFCURVE",
"266 423 OFFCURVE",
"298 386 CURVE",
"350 328 OFFCURVE",
"371 256 OFFCURVE",
"371 256 CURVE",
"371 256 OFFCURVE",
"324 333 OFFCURVE",
"293 365 CURVE",
"260 397 OFFCURVE",
"213 431 OFFCURVE",
"184 446 CURVE",
"173 453 OFFCURVE",
"145 452 OFFCURVE",
"142 473 CURVE"
);
},
{
closed = 1;
nodes = (
"73 473 LINE",
"73 473 OFFCURVE",
"113 424 OFFCURVE",
"141 423 CURVE",
"199 421 OFFCURVE",
"169 458 OFFCURVE",
"169 458 CURVE",
"210 446 LINE",
"210 446 OFFCURVE",
"188 403 OFFCURVE",
"169 402 CURVE",
"150 400 OFFCURVE",
"97 416 OFFCURVE",
"97 416 CURVE",
"73 473 LINE"
);
},
{
closed = 1;
nodes = (
"92 338 LINE",
"86 344 OFFCURVE",
"98 377 OFFCURVE",
"93 394 CURVE",
"87 414 OFFCURVE",
"67 441 OFFCURVE",
"57 454 CURVE",
"50 463 OFFCURVE",
"31 470 OFFCURVE",
"30 480 CURVE",
"30 490 OFFCURVE",
"44 516 OFFCURVE",
"54 516 CURVE",
"64 515 OFFCURVE",
"69 497 OFFCURVE",
"70 486 CURVE",
"71 470 OFFCURVE",
"92 435 OFFCURVE",
"104 418 CURVE",
"117 402 OFFCURVE",
"139 396 OFFCURVE",
"143 385 CURVE",
"147 374 OFFCURVE",
"97 331 OFFCURVE",
"92 338 CURVE"
);
}
);
width = 469;
}
);
unicode = 3083;
},
{
glyphname = "yu-hira";
lastChange = "2020-05-01 00:31:42 +0000";
layers = (
{
layerId = "1305C52C-0BD1-483E-A343-C05F3AFF2931";
paths = (
{
closed = 1;
nodes = (
"216 317 OFFCURVE",
"290 249 OFFCURVE",
"338 248 CURVE",
"367 247 OFFCURVE",
"395 260 OFFCURVE",
"393 286 CURVE",
"392 309 OFFCURVE",
"358 369 OFFCURVE",
"344 369 CURVE",
"334 369 OFFCURVE",
"327 359 OFFCURVE",
"319 360 CURVE",
"306 360 OFFCURVE",
"296 382 OFFCURVE",
"296 397 CURVE",
"297 418 OFFCURVE",
"325 488 OFFCURVE",
"348 488 CURVE",
"363 488 OFFCURVE",
"381 456 OFFCURVE",
"404 455 CURVE",
"458 453 OFFCURVE",
"590 392 OFFCURVE",
"671 312 CURVE",
"778 207 OFFCURVE",
"765 65 OFFCURVE",
"757 65 CURVE",
"744 65 OFFCURVE",
"757 165 OFFCURVE",
"675 256 CURVE",
"584 355 OFFCURVE",
"392 383 OFFCURVE",
"392 383 CURVE",
"392 383 OFFCURVE",
"434 310 OFFCURVE",
"433 281 CURVE",
"432 252 OFFCURVE",
"404 215 OFFCURVE",
"374 215 CURVE",
"318 215 OFFCURVE",
"229 272 OFFCURVE",
"229 272 CURVE",
"216 317 LINE"
);
},
{
closed = 1;
nodes = (
"25 232 OFFCURVE",
"39 294 OFFCURVE",
"53 319 CURVE",
"65 342 OFFCURVE",
"93 365 OFFCURVE",
"129 364 CURVE",
"143 364 OFFCURVE",
"157 349 OFFCURVE",
"156 328 CURVE",
"156 313 OFFCURVE",
"128 295 OFFCURVE",
"121 278 CURVE",
"115 264 OFFCURVE",
"117 235 OFFCURVE",
"111 234 CURVE",
"105 232 OFFCURVE",
"96 272 OFFCURVE",
"82 272 CURVE",
"67 271 OFFCURVE",
"39 219 OFFCURVE",
"32 226 CURVE"
);
},
{
closed = 1;
nodes = (
"185 41 OFFCURVE",
"220 82 OFFCURVE",
"223 105 CURVE",
"230 149 OFFCURVE",
"212 221 OFFCURVE",
"181 331 CURVE",
"159 408 OFFCURVE",
"115 574 OFFCURVE",
"130 579 CURVE",
"147 584 OFFCURVE",
"181 445 OFFCURVE",
"199 387 CURVE",
"219 322 OFFCURVE",
"241 239 OFFCURVE",
"259 197 CURVE",
"268 175 OFFCURVE",
"297 156 OFFCURVE",
"300 134 CURVE",
"304 112 OFFCURVE",
"288 84 OFFCURVE",
"273 65 CURVE",
"258 45 OFFCURVE",
"200 22 OFFCURVE",
"193 31 CURVE"
);
}
);
width = 792;
}
);
unicode = 3086;
},
{
glyphname = "yusmall-hira";
lastChange = "2020-04-30 23:34:14 +0000";
layers = (
{
layerId = "1305C52C-0BD1-483E-A343-C05F3AFF2931";
paths = (
{
closed = 1;
nodes = (
"199 490 LINE",
"182 500 OFFCURVE",
"200 559 OFFCURVE",
"209 559 CURVE",
"216 559 OFFCURVE",
"217 537 OFFCURVE",
"225 530 CURVE",
"250 511 OFFCURVE",
"291 504 OFFCURVE",
"357 445 CURVE",
"419 391 OFFCURVE",
"441 303 OFFCURVE",
"441 303 CURVE",
"441 303 OFFCURVE",
"391 383 OFFCURVE",
"350 418 CURVE",
"251 504 OFFCURVE",
"225 474 OFFCURVE",
"199 490 CURVE"
);
},
{
closed = 1;
nodes = (
"120 514 LINE",
"120 514 OFFCURVE",
"167 472 OFFCURVE",
"185 467 CURVE",
"197 465 OFFCURVE",
"219 466 OFFCURVE",
"220 474 CURVE",
"221 482 OFFCURVE",
"220 502 OFFCURVE",
"220 502 CURVE",
"240 502 LINE",
"240 502 OFFCURVE",
"246 466 OFFCURVE",
"243 455 CURVE",
"241 444 OFFCURVE",
"228 433 OFFCURVE",
"217 433 CURVE",
"173 433 OFFCURVE",
"135 465 OFFCURVE",
"135 465 CURVE",
"120 514 LINE"
);
},
{
closed = 1;
nodes = (
"132 342 LINE",
"127 352 OFFCURVE",
"152 369 OFFCURVE",
"150 384 CURVE",
"148 406 OFFCURVE",
"134 440 OFFCURVE",
"124 461 CURVE",
"115 480 OFFCURVE",
"90 495 OFFCURVE",
"87 518 CURVE",
"86 534 OFFCURVE",
"98 555 OFFCURVE",
"109 556 CURVE",
"122 556 OFFCURVE",
"129 501 OFFCURVE",
"137 474 CURVE",
"160 406 OFFCURVE",
"193 408 OFFCURVE",
"194 390 CURVE",
"196 360 OFFCURVE",
"135 336 OFFCURVE",
"132 342 CURVE"
);
},
{
closed = 1;
nodes = (
"49 360 LINE",
"46 368 OFFCURVE",
"77 390 OFFCURVE",
"73 407 CURVE",
"66 440 OFFCURVE",
"30 545 OFFCURVE",
"30 545 CURVE",
"30 545 OFFCURVE",
"78 453 OFFCURVE",
"94 429 CURVE",
"103 415 OFFCURVE",
"131 406 OFFCURVE",
"131 395 CURVE",
"131 374 OFFCURVE",
"56 340 OFFCURVE",
"49 360 CURVE"
);
}
);
width = 471;
}
);
unicode = 3085;
},
{
glyphname = "yo-hira";
lastChange = "2020-05-01 00:32:43 +0000";
layers = (
{
layerId = "1305C52C-0BD1-483E-A343-C05F3AFF2931";
paths = (
{
closed = 1;
nodes = (
"103 70 OFFCURVE",
"129 109 OFFCURVE",
"126 132 CURVE",
"123 154 OFFCURVE",
"101 198 OFFCURVE",
"78 237 CURVE",
"53 280 OFFCURVE",
"29 293 OFFCURVE",
"30 328 CURVE",
"31 348 OFFCURVE",
"46 364 OFFCURVE",
"60 363 CURVE",
"84 361 OFFCURVE",
"84 310 OFFCURVE",
"157 254 CURVE",
"198 224 OFFCURVE",
"247 204 OFFCURVE",
"258 211 CURVE",
"268 217 OFFCURVE",
"255 253 OFFCURVE",
"231 262 CURVE",
"201 272 OFFCURVE",
"176 287 OFFCURVE",
"178 321 CURVE",
"179 343 OFFCURVE",
"199 371 OFFCURVE",
"223 371 CURVE",
"241 370 OFFCURVE",
"250 354 OFFCURVE",
"263 346 CURVE",
"291 329 OFFCURVE",
"355 289 OFFCURVE",
"393 260 CURVE",
"429 233 OFFCURVE",
"487 170 OFFCURVE",
"487 170 CURVE",
"487 170 OFFCURVE",
"519 232 OFFCURVE",
"537 263 CURVE",
"572 323 OFFCURVE",
"666 418 OFFCURVE",
"663 525 CURVE",
"661 589 OFFCURVE",
"616 714 OFFCURVE",
"628 720 CURVE",
"641 727 OFFCURVE",
"727 573 OFFCURVE",
"730 489 CURVE",
"730 387 OFFCURVE",
"670 330 OFFCURVE",
"629 276 CURVE",
"591 225 OFFCURVE",
"527 191 OFFCURVE",
"528 116 CURVE",
"529 40 OFFCURVE",
"605 30 OFFCURVE",
"608 -19 CURVE",
"610 -45 OFFCURVE",
"557 -60 OFFCURVE",
"540 -60 CURVE",
"529 -61 OFFCURVE",
"521 -55 OFFCURVE",
"520 -48 CURVE",
"519 -35 OFFCURVE",
"533 -22 OFFCURVE",
"530 -11 CURVE",
"528 0 OFFCURVE",
"497 51 OFFCURVE",
"490 85 CURVE",
"483 123 OFFCURVE",
"451 170 OFFCURVE",
"415 199 CURVE",
"314 276 OFFCURVE",
"270 271 OFFCURVE",
"270 271 CURVE",
"270 271 OFFCURVE",
"297 229 OFFCURVE",
"296 212 CURVE",
"296 192 OFFCURVE",
"274 172 OFFCURVE",
"254 170 CURVE",
"227 168 OFFCURVE",
"126 236 OFFCURVE",
"126 236 CURVE",
"126 236 OFFCURVE",
"157 197 OFFCURVE",
"173 182 CURVE",
"189 167 OFFCURVE",
"223 163 OFFCURVE",
"225 147 CURVE",
"226 130 OFFCURVE",
"201 100 OFFCURVE",
"183 85 CURVE",
"164 71 OFFCURVE",
"123 51 OFFCURVE",
"114 59 CURVE"
);
}
);
width = 760;
}
);
unicode = 3088;
},
{
glyphname = "yosmall-hira";
lastChange = "2020-04-30 23:34:02 +0000";
layers = (
{
layerId = "1305C52C-0BD1-483E-A343-C05F3AFF2931";
paths = (
{
closed = 1;
nodes = (
"263 389 LINE",
"263 389 OFFCURVE",
"254 418 OFFCURVE",
"255 434 CURVE",
"258 482 OFFCURVE",
"307 484 OFFCURVE",
"319 483 CURVE",
"338 481 OFFCURVE",
"355 478 OFFCURVE",
"371 479 CURVE",
"389 480 OFFCURVE",
"408 499 OFFCURVE",
"405 526 CURVE",
"400 567 OFFCURVE",
"361 618 OFFCURVE",
"361 618 CURVE",
"361 618 OFFCURVE",
"442 573 OFFCURVE",
"442 496 CURVE",
"442 467 OFFCURVE",
"409 433 OFFCURVE",
"386 432 CURVE",
"359 432 OFFCURVE",
"327 447 OFFCURVE",
"309 447 CURVE",
"249 449 OFFCURVE",
"276 387 OFFCURVE",
"276 387 CURVE",
"263 389 LINE"
);
},
{
closed = 1;
nodes = (
"140 447 LINE",
"137 458 OFFCURVE",
"152 499 OFFCURVE",
"176 497 CURVE",
"196 496 OFFCURVE",
"192 467 OFFCURVE",
"202 458 CURVE",
"222 435 OFFCURVE",
"269 405 OFFCURVE",
"301 369 CURVE",
"353 309 OFFCURVE",
"372 234 OFFCURVE",
"372 234 CURVE",
"372 234 OFFCURVE",
"324 312 OFFCURVE",
"293 343 CURVE",
"261 375 OFFCURVE",
"219 409 OFFCURVE",
"189 422 CURVE",
"177 428 OFFCURVE",
"145 417 OFFCURVE",
"140 447 CURVE"
);
},
{
closed = 1;
nodes = (
"73 452 LINE",
"73 452 OFFCURVE",
"113 403 OFFCURVE",
"141 402 CURVE",
"172 400 OFFCURVE",
"170 437 OFFCURVE",
"170 437 CURVE",
"210 424 LINE",
"210 424 OFFCURVE",
"189 375 OFFCURVE",
"170 373 CURVE",
"150 372 OFFCURVE",
"97 394 OFFCURVE",
"97 394 CURVE",
"73 452 LINE"
);
},
{
closed = 1;
nodes = (
"71 314 LINE",
"65 320 OFFCURVE",
"86 348 OFFCURVE",
"81 366 CURVE",
"75 385 OFFCURVE",
"60 407 OFFCURVE",
"50 421 CURVE",
"43 430 OFFCURVE",
"30 446 OFFCURVE",
"30 459 CURVE",
"31 471 OFFCURVE",
"44 495 OFFCURVE",
"54 494 CURVE",
"64 494 OFFCURVE",
"69 475 OFFCURVE",
"70 464 CURVE",
"71 448 OFFCURVE",
"92 414 OFFCURVE",
"104 397 CURVE",
"117 380 OFFCURVE",
"129 369 OFFCURVE",
"134 358 CURVE",
"145 329 OFFCURVE",
"76 307 OFFCURVE",
"71 314 CURVE"
);
}
);
width = 472;
}
);
unicode = 3087;
},
{
glyphname = "ra-hira";
lastChange = "2020-05-01 00:32:58 +0000";
layers = (
{
layerId = "1305C52C-0BD1-483E-A343-C05F3AFF2931";
paths = (
{
closed = 1;
nodes = (
"348 150 OFFCURVE",
"281 316 OFFCURVE",
"281 316 CURVE SMOOTH",
"281 316 OFFCURVE",
"174 375 OFFCURVE",
"150 393 CURVE",
"139 402 OFFCURVE",
"115 395 OFFCURVE",
"115 395 CURVE SMOOTH",
"115 395 OFFCURVE",
"174 276 OFFCURVE",
"203 247 CURVE",
"218 230 OFFCURVE",
"228 203 OFFCURVE",
"216 180 CURVE",
"206 157 OFFCURVE",
"155 117 OFFCURVE",
"132 112 CURVE",
"114 105 OFFCURVE",
"95 101 OFFCURVE",
"91 115 CURVE",
"86 125 OFFCURVE",
"135 180 OFFCURVE",
"132 217 CURVE SMOOTH",
"129 256 OFFCURVE",
"90 361 OFFCURVE",
"73 392 CURVE SMOOTH",
"67 403 OFFCURVE",
"47 403 OFFCURVE",
"39 413 CURVE",
"32 424 OFFCURVE",
"28 450 OFFCURVE",
"32 462 CURVE",
"36 478 OFFCURVE",
"62 513 OFFCURVE",
"76 520 CURVE",
"86 524 OFFCURVE",
"109 512 OFFCURVE",
"120 504 CURVE",
"135 491 OFFCURVE",
"138 459 OFFCURVE",
"159 440 CURVE SMOOTH",
"185 417 OFFCURVE",
"275 361 OFFCURVE",
"275 361 CURVE SMOOTH",
"275 361 OFFCURVE",
"273 425 OFFCURVE",
"329 472 CURVE SMOOTH",
"404 535 OFFCURVE",
"449 518 OFFCURVE",
"506 514 CURVE SMOOTH",
"571 509 OFFCURVE",
"668 426 OFFCURVE",
"718 379 CURVE SMOOTH",
"762 338 OFFCURVE",
"810 257 OFFCURVE",
"815 232 CURVE",
"820 214 OFFCURVE",
"818 132 OFFCURVE",
"807 131 CURVE SMOOTH",
"799 130 OFFCURVE",
"797 179 OFFCURVE",
"787 200 CURVE SMOOTH",
"731 318 OFFCURVE",
"689 341 OFFCURVE",
"587 395 CURVE SMOOTH",
"530 425 OFFCURVE",
"484 439 OFFCURVE",
"397 427 CURVE SMOOTH",
"316 416 OFFCURVE",
"317 337 OFFCURVE",
"317 337 CURVE SMOOTH",
"317 337 OFFCURVE",
"412 261 OFFCURVE",
"454 222 CURVE SMOOTH",
"493 185 OFFCURVE",
"553 133 OFFCURVE",
"537 90 CURVE",
"527 68 OFFCURVE",
"474 79 OFFCURVE",
"452 89 CURVE"
);
},
{
closed = 1;
nodes = (
"495 122 OFFCURVE",
"458 165 OFFCURVE",
"422 204 CURVE SMOOTH",
"391 237 OFFCURVE",
"325 289 OFFCURVE",
"325 289 CURVE SMOOTH",
"325 289 OFFCURVE",
"360 221 OFFCURVE",
"396 179 CURVE SMOOTH",
"426 144 OFFCURVE",
"465 97 OFFCURVE",
"481 112 CURVE"
);
}
);
width = 848;
}
);
unicode = 3089;
},
{
glyphname = "ri-hira";
lastChange = "2020-05-01 00:33:09 +0000";
layers = (
{
layerId = "1305C52C-0BD1-483E-A343-C05F3AFF2931";
paths = (
{
closed = 1;
nodes = (
"434 56 OFFCURVE",
"442 125 OFFCURVE",
"451 154 CURVE",
"460 182 OFFCURVE",
"466 226 OFFCURVE",
"501 227 CURVE",
"524 227 OFFCURVE",
"547 187 OFFCURVE",
"545 175 CURVE",
"544 166 OFFCURVE",
"528 165 OFFCURVE",
"521 159 CURVE",
"512 151 OFFCURVE",
"498 137 OFFCURVE",
"489 124 CURVE",
"476 106 OFFCURVE",
"455 51 OFFCURVE",
"447 53 CURVE"
);
},
{
closed = 1;
nodes = (
"323 26 OFFCURVE",
"358 48 OFFCURVE",
"354 67 CURVE",
"337 143 OFFCURVE",
"293 155 OFFCURVE",
"288 184 CURVE",
"283 206 OFFCURVE",
"297 235 OFFCURVE",
"305 233 CURVE",
"318 230 OFFCURVE",
"327 212 OFFCURVE",
"337 207 CURVE",
"372 189 OFFCURVE",
"467 161 OFFCURVE",
"521 126 CURVE",
"574 91 OFFCURVE",
"630 31 OFFCURVE",
"651 0 CURVE",
"662 -15 OFFCURVE",
"647 -56 OFFCURVE",
"647 -56 CURVE",
"647 -56 OFFCURVE",
"640 -16 OFFCURVE",
"627 -2 CURVE",
"601 27 OFFCURVE",
"557 82 OFFCURVE",
"492 116 CURVE",
"414 157 OFFCURVE",
"339 161 OFFCURVE",
"339 161 CURVE",
"339 161 OFFCURVE",
"362 127 OFFCURVE",
"375 112 CURVE",
"389 96 OFFCURVE",
"421 83 OFFCURVE",
"422 67 CURVE",
"423 51 OFFCURVE",
"400 28 OFFCURVE",
"384 20 CURVE",
"368 12 OFFCURVE",
"331 8 OFFCURVE",
"327 17 CURVE"
);
},
{
closed = 1;
nodes = (
"242 482 OFFCURVE",
"277 516 OFFCURVE",
"300 527 CURVE",
"323 539 OFFCURVE",
"367 552 OFFCURVE",
"380 542 CURVE",
"405 523 OFFCURVE",
"366 482 OFFCURVE",
"372 461 CURVE",
"379 436 OFFCURVE",
"414 405 OFFCURVE",
"467 406 CURVE",
"667 412 OFFCURVE",
"668 659 OFFCURVE",
"668 659 CURVE",
"668 659 OFFCURVE",
"726 401 OFFCURVE",
"490 356 CURVE",
"357 331 OFFCURVE",
"315 436 OFFCURVE",
"275 452 CURVE",
"265 456 OFFCURVE",
"248 461 OFFCURVE",
"246 468 CURVE"
);
},
{
closed = 1;
nodes = (
"22 209 OFFCURVE",
"34 267 OFFCURVE",
"47 295 CURVE",
"59 323 OFFCURVE",
"96 365 OFFCURVE",
"115 366 CURVE",
"143 367 OFFCURVE",
"138 319 OFFCURVE",
"155 316 CURVE",
"198 308 OFFCURVE",
"299 303 OFFCURVE",
"370 301 CURVE",
"471 299 OFFCURVE",
"673 299 OFFCURVE",
"749 300 CURVE",
"775 301 OFFCURVE",
"817 329 OFFCURVE",
"837 330 CURVE",
"864 330 OFFCURVE",
"871 321 OFFCURVE",
"870 306 CURVE",
"870 291 OFFCURVE",
"829 245 OFFCURVE",
"809 245 CURVE",
"793 245 OFFCURVE",
"753 264 OFFCURVE",
"736 264 CURVE",
"669 266 OFFCURVE",
"493 272 OFFCURVE",
"395 272 CURVE",
"315 271 OFFCURVE",
"200 263 OFFCURVE",
"150 262 CURVE",
"92 261 OFFCURVE",
"45 188 OFFCURVE",
"36 196 CURVE"
);
}
);
width = 900;
}
);
unicode = 308A;
},
{
glyphname = "ru-hira";
lastChange = "2020-05-01 00:33:19 +0000";
layers = (
{
layerId = "1305C52C-0BD1-483E-A343-C05F3AFF2931";
paths = (
{
closed = 1;
nodes = (
"445 59 OFFCURVE",
"444 128 OFFCURVE",
"452 157 CURVE",
"462 194 OFFCURVE",
"473 229 OFFCURVE",
"503 230 CURVE",
"520 231 OFFCURVE",
"546 197 OFFCURVE",
"545 179 CURVE",
"544 171 OFFCURVE",
"529 169 OFFCURVE",
"522 164 CURVE",
"513 157 OFFCURVE",
"500 145 OFFCURVE",
"491 133 CURVE",
"478 115 OFFCURVE",
"445 59 OFFCURVE",
"445 59 CURVE"
);
},
{
closed = 1;
nodes = (
"326 37 OFFCURVE",
"355 56 OFFCURVE",
"353 75 CURVE",
"352 94 OFFCURVE",
"337 122 OFFCURVE",
"326 142 CURVE",
"316 161 OFFCURVE",
"287 168 OFFCURVE",
"285 199 CURVE",
"283 215 OFFCURVE",
"293 241 OFFCURVE",
"307 241 CURVE",
"318 241 OFFCURVE",
"320 222 OFFCURVE",
"334 217 CURVE",
"370 203 OFFCURVE",
"459 169 OFFCURVE",
"513 133 CURVE",
"568 97 OFFCURVE",
"638 45 OFFCURVE",
"648 1 CURVE",
"652 -15 OFFCURVE",
"646 -47 OFFCURVE",
"646 -47 CURVE",
"646 -47 OFFCURVE",
"638 -15 OFFCURVE",
"630 -1 CURVE",
"608 40 OFFCURVE",
"568 76 OFFCURVE",
"497 116 CURVE",
"410 165 OFFCURVE",
"347 165 OFFCURVE",
"347 165 CURVE",
"347 165 OFFCURVE",
"352 138 OFFCURVE",
"373 117 CURVE",
"387 103 OFFCURVE",
"417 92 OFFCURVE",
"419 77 CURVE",
"421 62 OFFCURVE",
"406 42 OFFCURVE",
"392 33 CURVE",
"378 25 OFFCURVE",
"342 17 OFFCURVE",
"336 25 CURVE"
);
},
{
closed = 1;
nodes = (
"557 221 OFFCURVE",
"607 221 OFFCURVE",
"604 237 CURVE",
"598 277 OFFCURVE",
"573 359 OFFCURVE",
"554 421 CURVE",
"533 492 OFFCURVE",
"479 653 OFFCURVE",
"479 653 CURVE",
"479 653 OFFCURVE",
"549 488 OFFCURVE",
"578 422 CURVE",
"601 368 OFFCURVE",
"631 296 OFFCURVE",
"647 267 CURVE",
"654 253 OFFCURVE",
"684 249 OFFCURVE",
"689 234 CURVE",
"693 219 OFFCURVE",
"668 181 OFFCURVE",
"647 175 CURVE",
"614 165 OFFCURVE",
"573 180 OFFCURVE",
"569 190 CURVE"
);
},
{
closed = 1;
nodes = (
"27 246 OFFCURVE",
"41 268 OFFCURVE",
"44 279 CURVE",
"48 288 OFFCURVE",
"49 297 OFFCURVE",
"54 305 CURVE",
"66 327 OFFCURVE",
"114 385 OFFCURVE",
"138 385 CURVE",
"156 384 OFFCURVE",
"167 364 OFFCURVE",
"169 351 CURVE",
"171 341 OFFCURVE",
"168 317 OFFCURVE",
"180 315 CURVE",
"215 307 OFFCURVE",
"310 308 OFFCURVE",
"376 307 CURVE",
"466 305 OFFCURVE",
"644 307 OFFCURVE",
"721 307 CURVE",
"756 307 OFFCURVE",
"799 333 OFFCURVE",
"823 333 CURVE",
"841 332 OFFCURVE",
"869 317 OFFCURVE",
"869 304 CURVE",
"868 291 OFFCURVE",
"818 265 OFFCURVE",
"801 259 CURVE",
"789 255 OFFCURVE",
"778 267 OFFCURVE",
"765 267 CURVE",
"703 269 OFFCURVE",
"518 272 OFFCURVE",
"426 272 CURVE",
"354 273 OFFCURVE",
"265 272 OFFCURVE",
"211 270 CURVE",
"176 270 OFFCURVE",
"133 265 OFFCURVE",
"108 260 CURVE",
"91 256 OFFCURVE",
"75 242 OFFCURVE",
"62 238 CURVE",
"51 236 OFFCURVE",
"33 233 OFFCURVE",
"30 239 CURVE"
);
}
);
width = 899;
}
);
unicode = 308B;
},
{
glyphname = "re-hira";
lastChange = "2020-05-01 00:33:30 +0000";
layers = (
{
layerId = "1305C52C-0BD1-483E-A343-C05F3AFF2931";
paths = (
{
closed = 1;
nodes = (
"446 217 OFFCURVE",
"498 297 OFFCURVE",
"532 328 CURVE",
"568 360 OFFCURVE",
"638 422 OFFCURVE",
"668 383 CURVE",
"685 361 OFFCURVE",
"664 337 OFFCURVE",
"664 317 CURVE",
"663 295 OFFCURVE",
"660 249 OFFCURVE",
"660 249 CURVE",
"660 249 OFFCURVE",
"634 305 OFFCURVE",
"608 307 CURVE",
"561 311 OFFCURVE",
"446 217 OFFCURVE",
"446 217 CURVE"
);
},
{
closed = 1;
nodes = (
"79 192 OFFCURVE",
"124 220 OFFCURVE",
"120 246 CURVE",
"115 283 OFFCURVE",
"81 348 OFFCURVE",
"65 377 CURVE",
"54 398 OFFCURVE",
"32 405 OFFCURVE",
"30 441 CURVE",
"29 461 OFFCURVE",
"44 503 OFFCURVE",
"68 501 CURVE",
"86 500 OFFCURVE",
"165 369 OFFCURVE",
"225 368 CURVE",
"278 367 OFFCURVE",
"288 517 OFFCURVE",
"388 518 CURVE",
"467 518 OFFCURVE",
"517 356 OFFCURVE",
"588 267 CURVE",
"644 197 OFFCURVE",
"746 115 OFFCURVE",
"811 114 CURVE",
"855 113 OFFCURVE",
"939 144 OFFCURVE",
"939 144 CURVE",
"939 144 OFFCURVE",
"878 90 OFFCURVE",
"802 90 CURVE",
"739 89 OFFCURVE",
"622 170 OFFCURVE",
"573 231 CURVE",
"501 319 OFFCURVE",
"443 429 OFFCURVE",
"382 427 CURVE",
"318 425 OFFCURVE",
"281 337 OFFCURVE",
"234 333 CURVE",
"201 330 OFFCURVE",
"92 404 OFFCURVE",
"92 404 CURVE",
"92 404 OFFCURVE",
"102 365 OFFCURVE",
"139 321 CURVE",
"159 297 OFFCURVE",
"209 286 OFFCURVE",
"212 252 CURVE",
"213 225 OFFCURVE",
"181 191 OFFCURVE",
"160 179 CURVE",
"139 168 OFFCURVE",
"90 166 OFFCURVE",
"85 179 CURVE"
);
}
);
width = 969;
}
);
unicode = 308C;
},
{
glyphname = "ro-hira";
lastChange = "2020-05-01 00:35:54 +0000";
layers = (
{
layerId = "1305C52C-0BD1-483E-A343-C05F3AFF2931";
paths = (
{
closed = 1;
nodes = (
"79 158 OFFCURVE",
"118 184 OFFCURVE",
"115 207 CURVE",
"110 241 OFFCURVE",
"90 282 OFFCURVE",
"71 307 CURVE",
"52 332 OFFCURVE",
"32 334 OFFCURVE",
"30 375 CURVE",
"29 395 OFFCURVE",
"42 422 OFFCURVE",
"54 421 CURVE",
"65 421 OFFCURVE",
"74 399 OFFCURVE",
"86 393 CURVE",
"127 372 OFFCURVE",
"206 349 OFFCURVE",
"304 293 CURVE",
"440 216 OFFCURVE",
"481 152 OFFCURVE",
"481 152 CURVE",
"481 152 OFFCURVE",
"505 200 OFFCURVE",
"516 224 CURVE",
"544 281 OFFCURVE",
"646 388 OFFCURVE",
"645 496 CURVE",
"644 562 OFFCURVE",
"609 689 OFFCURVE",
"609 689 CURVE",
"609 689 OFFCURVE",
"713 537 OFFCURVE",
"716 454 CURVE",
"724 281 OFFCURVE",
"510 210 OFFCURVE",
"515 90 CURVE",
"518 23 OFFCURVE",
"599 -6 OFFCURVE",
"600 -30 CURVE",
"600 -45 OFFCURVE",
"582 -58 OFFCURVE",
"569 -61 CURVE",
"557 -63 OFFCURVE",
"548 -85 OFFCURVE",
"536 -84 CURVE",
"505 -82 OFFCURVE",
"519 -39 OFFCURVE",
"512 -16 CURVE",
"501 15 OFFCURVE",
"488 58 OFFCURVE",
"472 100 CURVE",
"453 149 OFFCURVE",
"416 195 OFFCURVE",
"292 268 CURVE",
"199 322 OFFCURVE",
"110 323 OFFCURVE",
"110 323 CURVE",
"110 323 OFFCURVE",
"129 278 OFFCURVE",
"144 260 CURVE",
"161 240 OFFCURVE",
"205 237 OFFCURVE",
"204 205 CURVE",
"203 187 OFFCURVE",
"160 141 OFFCURVE",
"138 138 CURVE",
"115 136 OFFCURVE",
"89 135 OFFCURVE",
"84 147 CURVE"
);
},
{
closed = 1;
nodes = (
"227 189 OFFCURVE",
"225 282 OFFCURVE",
"232 321 CURVE",
"243 384 OFFCURVE",
"284 415 OFFCURVE",
"307 413 CURVE",
"340 409 OFFCURVE",
"364 354 OFFCURVE",
"360 338 CURVE",
"357 327 OFFCURVE",
"338 329 OFFCURVE",
"326 323 CURVE",
"314 316 OFFCURVE",
"301 298 OFFCURVE",
"291 284 CURVE",
"275 262 OFFCURVE",
"227 189 OFFCURVE",
"227 189 CURVE"
);
}
);
width = 746;
}
);
unicode = 308D;
},
{
glyphname = "wa-hira";
lastChange = "2020-05-01 00:36:13 +0000";
layers = (
{
layerId = "1305C52C-0BD1-483E-A343-C05F3AFF2931";
paths = (
{
closed = 1;
nodes = (
"410 134 OFFCURVE",
"424 145 OFFCURVE",
"435 148 CURVE",
"447 151 OFFCURVE",
"467 150 OFFCURVE",
"479 136 CURVE",
"490 126 OFFCURVE",
"500 71 OFFCURVE",
"483 56 CURVE",
"467 40 OFFCURVE",
"414 33 OFFCURVE",
"388 51 CURVE",
"359 72 OFFCURVE",
"304 126 OFFCURVE",
"305 180 CURVE",
"305 206 OFFCURVE",
"335 231 OFFCURVE",
"360 233 CURVE",
"391 234 OFFCURVE",
"454 186 OFFCURVE",
"485 161 CURVE",
"510 140 OFFCURVE",
"561 86 OFFCURVE",
"561 86 CURVE",
"561 86 OFFCURVE",
"543 152 OFFCURVE",
"534 176 CURVE",
"526 195 OFFCURVE",
"508 207 OFFCURVE",
"509 231 CURVE",
"510 259 OFFCURVE",
"521 275 OFFCURVE",
"529 276 CURVE",
"545 276 OFFCURVE",
"551 248 OFFCURVE",
"552 232 CURVE",
"553 216 OFFCURVE",
"550 197 OFFCURVE",
"554 180 CURVE",
"559 158 OFFCURVE",
"571 120 OFFCURVE",
"584 97 CURVE",
"597 76 OFFCURVE",
"633 57 OFFCURVE",
"634 41 CURVE",
"635 24 OFFCURVE",
"605 -6 OFFCURVE",
"589 -3 CURVE",
"572 -1 OFFCURVE",
"563 49 OFFCURVE",
"537 78 CURVE",
"521 96 OFFCURVE",
"489 130 OFFCURVE",
"457 156 CURVE",
"431 177 OFFCURVE",
"385 206 OFFCURVE",
"366 206 CURVE",
"344 206 OFFCURVE",
"335 190 OFFCURVE",
"335 171 CURVE",
"335 157 OFFCURVE",
"349 132 OFFCURVE",
"360 118 CURVE",
"370 107 OFFCURVE",
"388 91 OFFCURVE",
"399 90 CURVE",
"412 89 OFFCURVE",
"427 93 OFFCURVE",
"427 101 CURVE",
"428 110 OFFCURVE",
"410 118 OFFCURVE",
"410 126 CURVE"
);
},
{
closed = 1;
nodes = (
"302 498 OFFCURVE",
"321 545 OFFCURVE",
"345 569 CURVE",
"360 584 OFFCURVE",
"382 606 OFFCURVE",
"399 607 CURVE",
"440 608 OFFCURVE",
"432 549 OFFCURVE",
"443 528 CURVE",
"460 497 OFFCURVE",
"507 452 OFFCURVE",
"530 418 CURVE",
"562 370 OFFCURVE",
"620 242 OFFCURVE",
"620 242 CURVE",
"620 242 OFFCURVE",
"545 338 OFFCURVE",
"504 386 CURVE",
"464 432 OFFCURVE",
"419 478 OFFCURVE",
"368 498 CURVE",
"353 504 OFFCURVE",
"321 477 OFFCURVE",
"313 486 CURVE"
);
},
{
closed = 1;
nodes = (
"23 235 OFFCURVE",
"50 288 OFFCURVE",
"73 325 CURVE",
"92 354 OFFCURVE",
"109 386 OFFCURVE",
"137 384 CURVE",
"169 382 OFFCURVE",
"158 350 OFFCURVE",
"173 342 CURVE",
"194 332 OFFCURVE",
"236 317 OFFCURVE",
"282 316 CURVE",
"380 314 OFFCURVE",
"706 314 OFFCURVE",
"798 315 CURVE",
"812 316 OFFCURVE",
"829 330 OFFCURVE",
"852 329 CURVE",
"865 329 OFFCURVE",
"888 332 OFFCURVE",
"890 321 CURVE",
"891 311 OFFCURVE",
"865 273 OFFCURVE",
"848 271 CURVE",
"835 269 OFFCURVE",
"813 268 OFFCURVE",
"801 269 CURVE",
"792 270 OFFCURVE",
"777 281 OFFCURVE",
"768 281 CURVE",
"662 284 OFFCURVE",
"276 290 OFFCURVE",
"166 286 CURVE",
"146 285 OFFCURVE",
"128 267 OFFCURVE",
"110 257 CURVE",
"88 246 OFFCURVE",
"40 212 OFFCURVE",
"32 223 CURVE"
);
}
);
width = 920;
}
);
unicode = 308F;
},
{
glyphname = "wo-hira";
lastChange = "2020-05-01 00:36:22 +0000";
layers = (
{
layerId = "1305C52C-0BD1-483E-A343-C05F3AFF2931";
paths = (
{
closed = 1;
nodes = (
"25 293 OFFCURVE",
"35 323 OFFCURVE",
"43 342 CURVE",
"51 360 OFFCURVE",
"68 385 OFFCURVE",
"86 383 CURVE",
"102 381 OFFCURVE",
"112 359 OFFCURVE",
"128 339 CURVE",
"145 318 OFFCURVE",
"161 300 OFFCURVE",
"176 285 CURVE",
"205 257 OFFCURVE",
"255 214 OFFCURVE",
"255 214 CURVE",
"255 214 OFFCURVE",
"253 271 OFFCURVE",
"274 297 CURVE",
"337 371 OFFCURVE",
"425 369 OFFCURVE",
"480 358 CURVE",
"619 329 OFFCURVE",
"803 368 OFFCURVE",
"801 516 CURVE",
"800 619 OFFCURVE",
"746 675 OFFCURVE",
"746 675 CURVE",
"746 675 OFFCURVE",
"873 584 OFFCURVE",
"872 488 CURVE",
"870 376 OFFCURVE",
"755 287 OFFCURVE",
"624 284 CURVE",
"557 282 OFFCURVE",
"472 316 OFFCURVE",
"416 313 CURVE",
"338 310 OFFCURVE",
"288 274 OFFCURVE",
"290 231 CURVE",
"292 172 OFFCURVE",
"353 166 OFFCURVE",
"365 145 CURVE",
"372 134 OFFCURVE",
"356 113 OFFCURVE",
"343 114 CURVE",
"282 117 OFFCURVE",
"283 157 OFFCURVE",
"258 179 CURVE",
"220 211 OFFCURVE",
"129 296 OFFCURVE",
"94 298 CURVE",
"79 298 OFFCURVE",
"79 278 OFFCURVE",
"72 274 CURVE",
"64 268 OFFCURVE",
"40 267 OFFCURVE",
"34 278 CURVE"
);
},
{
closed = 1;
nodes = (
"89 126 OFFCURVE",
"136 126 OFFCURVE",
"134 154 CURVE",
"133 175 OFFCURVE",
"82 239 OFFCURVE",
"82 239 CURVE",
"82 239 OFFCURVE",
"118 218 OFFCURVE",
"135 208 CURVE",
"157 194 OFFCURVE",
"200 193 OFFCURVE",
"208 154 CURVE",
"213 134 OFFCURVE",
"182 91 OFFCURVE",
"160 88 CURVE",
"136 86 OFFCURVE",
"87 105 OFFCURVE",
"88 116 CURVE"
);
},
{
closed = 1;
nodes = (
"504 94 OFFCURVE",
"525 111 OFFCURVE",
"537 114 CURVE",
"549 117 OFFCURVE",
"569 113 OFFCURVE",
"577 104 CURVE",
"587 93 OFFCURVE",
"592 71 OFFCURVE",
"592 46 CURVE",
"592 26 OFFCURVE",
"577 -8 OFFCURVE",
"533 -8 CURVE",
"482 -7 OFFCURVE",
"434 34 OFFCURVE",
"413 67 CURVE",
"392 99 OFFCURVE",
"389 173 OFFCURVE",
"404 193 CURVE",
"418 212 OFFCURVE",
"468 207 OFFCURVE",
"496 194 CURVE",
"525 181 OFFCURVE",
"556 152 OFFCURVE",
"582 129 CURVE",
"610 104 OFFCURVE",
"671 44 OFFCURVE",
"671 44 CURVE",
"671 44 OFFCURVE",
"656 90 OFFCURVE",
"647 113 CURVE",
"633 146 OFFCURVE",
"611 174 OFFCURVE",
"610 197 CURVE",
"608 221 OFFCURVE",
"622 257 OFFCURVE",
"638 257 CURVE",
"660 257 OFFCURVE",
"662 221 OFFCURVE",
"663 200 CURVE",
"664 133 OFFCURVE",
"680 83 OFFCURVE",
"692 61 CURVE",
"720 9 OFFCURVE",
"748 19 OFFCURVE",
"749 -2 CURVE",
"750 -20 OFFCURVE",
"721 -53 OFFCURVE",
"707 -53 CURVE",
"676 -55 OFFCURVE",
"680 -10 OFFCURVE",
"664 9 CURVE",
"640 37 OFFCURVE",
"596 89 OFFCURVE",
"562 117 CURVE",
"533 141 OFFCURVE",
"482 172 OFFCURVE",
"453 175 CURVE",
"437 176 OFFCURVE",
"419 163 OFFCURVE",
"419 138 CURVE",
"421 98 OFFCURVE",
"472 47 OFFCURVE",
"501 44 CURVE",
"512 43 OFFCURVE",
"525 46 OFFCURVE",
"525 60 CURVE",
"525 67 OFFCURVE",
"505 76 OFFCURVE",
"505 85 CURVE"
);
}
);
width = 902;
}
);
unicode = 3092;
},
{
glyphname = "n-hira";
lastChange = "2020-05-01 00:36:34 +0000";
layers = (
{
layerId = "1305C52C-0BD1-483E-A343-C05F3AFF2931";
paths = (
{
closed = 1;
nodes = (
"48 128 OFFCURVE",
"122 121 OFFCURVE",
"120 152 CURVE",
"117 197 OFFCURVE",
"30 310 OFFCURVE",
"30 397 CURVE",
"30 453 OFFCURVE",
"52 535 OFFCURVE",
"98 534 CURVE",
"191 532 OFFCURVE",
"250 361 OFFCURVE",
"358 360 CURVE",
"477 359 OFFCURVE",
"525 462 OFFCURVE",
"525 462 CURVE",
"525 462 OFFCURVE",
"489 313 OFFCURVE",
"355 320 CURVE",
"238 326 OFFCURVE",
"171 457 OFFCURVE",
"116 457 CURVE",
"89 456 OFFCURVE",
"69 434 OFFCURVE",
"71 396 CURVE",
"76 268 OFFCURVE",
"194 189 OFFCURVE",
"195 142 CURVE",
"196 109 OFFCURVE",
"154 73 OFFCURVE",
"129 71 CURVE",
"104 69 OFFCURVE",
"51 101 OFFCURVE",
"50 115 CURVE"
);
}
);
width = 555;
}
);
unicode = 3093;
},
{
glyphname = zero;
lastChange = "2019-12-15 13:44:06 +0000";
layers = (
{
layerId = "1305C52C-0BD1-483E-A343-C05F3AFF2931";
paths = (
{
closed = 1;
nodes = (
"172 281 LINE",
"183 280 OFFCURVE",
"213 260 OFFCURVE",
"229 240 CURVE",
"246 221 OFFCURVE",
"272 204 OFFCURVE",
"254 167 CURVE",
"249 155 OFFCURVE",
"217 166 OFFCURVE",
"205 159 CURVE",
"187 148 OFFCURVE",
"123 73 OFFCURVE",
"79 73 CURVE",
"49 73 OFFCURVE",
"27 133 OFFCURVE",
"30 167 CURVE",
"37 268 OFFCURVE",
"127 332 OFFCURVE",
"189 360 CURVE",
"251 386 OFFCURVE",
"360 390 OFFCURVE",
"398 324 CURVE",
"469 203 OFFCURVE",
"393 109 OFFCURVE",
"342 63 CURVE",
"249 -25 OFFCURVE",
"141 21 OFFCURVE",
"141 21 CURVE",
"141 21 OFFCURVE",
"193 26 OFFCURVE",
"217 33 CURVE",
"272 49 OFFCURVE",
"357 119 OFFCURVE",
"373 207 CURVE",
"383 262 OFFCURVE",
"362 335 OFFCURVE",
"290 341 CURVE",
"244 347 OFFCURVE",
"164 335 OFFCURVE",
"127 308 CURVE",
"87 281 OFFCURVE",
"59 215 OFFCURVE",
"59 181 CURVE",
"59 158 OFFCURVE",
"74 121 OFFCURVE",
"95 122 CURVE",
"128 125 OFFCURVE",
"176 185 OFFCURVE",
"177 208 CURVE",
"178 228 OFFCURVE",
"166 236 OFFCURVE",
"165 246 CURVE",
"164 257 OFFCURVE",
"162 282 OFFCURVE",
"172 281 CURVE"
);
}
);
width = 457;
}
);
unicode = 0030;
},
{
glyphname = one;
lastChange = "2019-12-15 13:45:54 +0000";
layers = (
{
layerId = "1305C52C-0BD1-483E-A343-C05F3AFF2931";
paths = (
{
closed = 1;
nodes = (
"194 732 LINE",
"196 737 OFFCURVE",
"213 728 OFFCURVE",
"223 726 CURVE",
"235 723 OFFCURVE",
"259 721 OFFCURVE",
"272 712 CURVE",
"289 701 OFFCURVE",
"314 672 OFFCURVE",
"314 658 CURVE",
"314 645 OFFCURVE",
"295 627 OFFCURVE",
"283 627 CURVE",
"271 624 OFFCURVE",
"260 634 OFFCURVE",
"248 634 CURVE",
"186 633 OFFCURVE",
"170 568 OFFCURVE",
"170 548 CURVE",
"170 495 OFFCURVE",
"169 389 OFFCURVE",
"170 306 CURVE",
"174 82 OFFCURVE",
"30 1 OFFCURVE",
"30 1 CURVE",
"30 1 OFFCURVE",
"95 80 OFFCURVE",
"110 121 CURVE",
"130 171 OFFCURVE",
"145 240 OFFCURVE",
"146 298 CURVE",
"146 359 OFFCURVE",
"148 433 OFFCURVE",
"147 474 CURVE",
"146 497 OFFCURVE",
"140 521 OFFCURVE",
"140 545 CURVE",
"142 660 OFFCURVE",
"199 689 OFFCURVE",
"206 700 CURVE",
"210 712 OFFCURVE",
"192 727 OFFCURVE",
"194 732 CURVE"
);
}
);
width = 344;
}
);
unicode = 0031;
},
